<svg xmlns="http://www.w3.org/2000/svg" xmlns:lucid="lucid" width="915.59" height="618.49"><g lucid:page-tab-id="0_0"><path d="M0 0h915.6v618.5H0z" fill="#fff"/><path d="M736.57 531.67l-98.84 65.36L563.3 484.5l98.84-65.38zM894.7 265.58l-231.65 153.2-124.98-189 231.65-153.2z" stroke="#0c7cba" stroke-width="4" fill-opacity="0"/><path d="M214.58 100.06l138.14 240.92-196.55 112.7L18.03 212.76z" stroke="#c92d39" stroke-width="4" fill-opacity="0"/><path d="M180.45 218.06c0 5.53-4.47 10-10 10-5.52 0-10-4.47-10-10 0-5.52 4.48-10 10-10 5.53 0 10 4.48 10 10z" stroke="#c92d39" fill="#ffbbb1"/><path d="M682.52 319.78l-106.2 47.88-31.18 12-25.07 8.46-21.63 6.3-19.32 4.75-17.66 3.57-16.38 2.6-15.37 1.78-14.56 1.07-13.9.43-13.4-.14-12.94-.7-12.6-1.18-12.32-1.7-12.12-2.16-11.96-2.68-11.87-3.18-11.82-3.7-11.8-4.26-11.9-4.85-11.97-5.5-12.14-6.18-12.35-6.96-12.6-7.82-11.84-8.04" stroke="#0c7cba" fill="none"/><path d="M683.2 320.02l-.5.22-.4-.9.45-.2z" fill="#0c7cba"/><path d="M200 336.4l24.84 2.7-15.25 20.4z" stroke="#0c7cba" fill="#fff"/><path d="M181.46 217.98l111.84-18.63 40.57-4.7 30.84-2.26 25.82-.8 22.62.24 20.4 1.08 18.76 1.8 17.5 2.4 16.55 3 15.8 3.53 15.17 4.08 14.73 4.63 14.36 5.2 14.12 5.77 13.95 6.4 13.84 7.07 13.84 7.8 13.9 8.64 14 9.55 14.22 10.57 14.5 11.76 8.67 7.67" stroke="#c92d39" fill="none"/><path d="M181.55 218.47l-.67.12.08-.53-.07-.5.5-.08z" fill="#c92d39"/><path d="M683.6 307.75l-24.45-5.27 17.3-18.68z" stroke="#c92d39" fill="#fff"/><path d="M419.73 161.64h24.98v25.05h-24.97z" fill="#fff" fill-opacity="0"/><path d="M443.56 186.1h-11.14v-.87l1.1-.1c1.15-.1 1.6-.4 1.6-1.15 0-.76-.42-1.97-1.6-4.7h-7.77l-.45 1.18c-.42 1.07-1.07 2.52-1.07 3.35 0 .9.76 1.3 2.8 1.43v.86h-7v-.87c1.6-.28 2.12-.9 3.43-4.15l7.65-18.85h.97l7.68 18.05c1.76 4.2 2.4 4.95 3.8 4.95v.86m-10.54-8.17l-3.48-8.4-3.25 8.4H433"/><path d="M170.8 20h73.83v40H170.8z" fill="#fff" fill-opacity="0"/><path d="M209.5 59.06h-11.25l-10.6-14.73h-4.02v14.73h-9.02V23.1H192c6.96 0 12.94 2.87 12.94 10.64 0 4.78-2.5 8.42-7.12 9.83m-.33-17.33v15.38c3.14-1.3 5.04-4.4 5.04-7.77 0-3.7-1.8-6.14-5.05-7.6m-2.4 15.42V25.9c-.82-.1-1.9-.42-2.72-.42h-8.75v16.46h8.48c1 0 2.02-.16 3-.27m9.73 15l-9.5-12.55c-1.6.27-3.22.2-4.8.2l8.97 12.35h5.33m-23.6 0v-31.2H177v31.2h4.24M238.48 33.85l-.2.27c-2.03 2.85-3.72 4.1-5.53 4.1-1 0-1.53-.6-1.53-1.75 0-.4.1-1.04.5-2.54l2.22-8.72c.2-.76.27-1.26.27-1.45 0-.46-.33-.8-.76-.8-1.15 0-3.1 1.8-5.03 4.5-1.87 2.64-2.64 4.52-4.14 10.44h-2.88l1.04-3.6c1.7-5.83 2.6-9.9 2.6-10.4 0-.6-.34-.96-.84-.96-1.3 0-3.57 2.23-5.72 5.5-1.3 2-1.85 3.38-3.7 9.45h-2.87l1.64-5.55c1.54-5.1 2.1-8.3 2.1-8.76 0-.58-.53-.85-1.56-.85h-.96v-.62l6.22-1.2.12.1-2.23 8.02c3.42-5.57 6.1-8.1 8.45-8.1 1.54 0 2.3.9 2.3 2.3 0 .73-.5 2.88-1.53 5.84 2.7-4.28 4.27-6.2 6.15-7.4.92-.57 1.65-.76 2.42-.76 1.42 0 2.23 1.04 2.23 2.42 0 .27-.08.9-.12 1.08l-2.6 9.64c-.24.9-.4 1.58-.4 1.73 0 .44.16.63.47.63.65 0 1.34-.62 2.5-2.04l.8-1"/><path d="M720 20h65.3v40H720z" fill="#fff" fill-opacity="0"/><path d="M758.7 59.06h-11.26l-10.6-14.73h-4v14.73h-9.04V23.1h17.4c6.95 0 12.93 2.87 12.93 10.64 0 4.78-2.5 8.42-7.12 9.83m-.32-17.33v15.38c3.16-1.3 5.06-4.4 5.06-7.77 0-3.7-1.8-6.14-5.06-7.6m-2.4 15.42V25.9c-.8-.1-1.9-.42-2.7-.42h-8.75v16.46h8.47c.98 0 2-.16 3-.27m9.72 15l-9.5-12.55c-1.6.27-3.22.2-4.8.2l8.97 12.35H754m-23.6 0v-31.2h-4.22v31.2h4.23M778.3 33.4l.53.5c-2.6 3.57-3.57 4.33-5.38 4.33-.96 0-1.8-.6-1.8-2.07 0-.4.07-.88.6-2.88l1.7-6.23c.3-1.2.54-2.57.54-3.03 0-.7-.36-1.12-.93-1.12-1.54 0-3.27 1.88-5.7 5.46-1.72 2.57-2.03 3.46-3.83 9.53h-2.88l3.7-13.46c.02-.2.06-.42.06-.65 0-.78-.54-1-2.5-1.05v-.62c3.12-.6 4.2-.77 6.23-1.2l.15.1-2.57 8.37c3.84-6.15 6.42-8.46 8.88-8.46 1.66 0 2.5.96 2.5 2.35 0 .68-.15 1.48-.38 2.3l-2.15 7.8c-.4 1.38-.54 2.03-.54 2.34 0 .34.15.7.6.7.55 0 1.24-.63 2.36-2.05l.8-1"/><path d="M88.08 257.22h56.66v25.7H88.08z" fill="#fff" fill-opacity="0"/><path d="M107.3 282.43h-8.98v-.7l.9-.08c.92-.1 1.28-.3 1.28-.92 0-.62-.33-1.6-1.28-3.8h-6.28l-.37.95c-.33.86-.86 2.04-.86 2.7 0 .73.62 1.04 2.27 1.15v.7h-5.64v-.7c1.28-.22 1.7-.73 2.76-3.35l6.16-15.2h.78l6.2 14.56c1.43 3.38 1.93 4 3.07 4v.7m-8.5-6.6l-2.82-6.78-2.63 6.78h5.45M120.8 259h-5.17v11.76h-1.3V259h-5.15v-1.3h11.63v1.3M143.8 282.43h-9v-.7l.9-.08c.92-.1 1.3-.3 1.3-.92 0-.62-.35-1.6-1.3-3.8h-6.28l-.36.95c-.34.86-.87 2.04-.87 2.7 0 .73.6 1.04 2.26 1.15v.7h-5.64v-.7c1.28-.22 1.7-.73 2.76-3.35l6.17-15.2h.78l6.2 14.56c1.42 3.38 1.92 4 3.07 4v.7m-8.52-6.6l-2.8-6.78-2.64 6.78h5.44"/><path d="M211.27 268.8h99.87v39.74h-99.87z" fill="#fff" fill-opacity="0"/><path d="M221.75 307.3v.82c-3.9-3.67-6.67-9.4-6.67-16.87 0-7.32 2.77-13.2 6.67-16.87v.82c-2.47 3.02-4.45 7.74-4.45 16.05 0 8.4 1.98 13.03 4.45 16.05M241.32 297.48h-8.04v-.63l.8-.07c.82-.08 1.15-.28 1.15-.83 0-.55-.3-1.42-1.15-3.4h-5.62l-.33.86c-.3.78-.77 1.83-.77 2.43 0 .65.55.92 2.02 1.02v.63h-5.05v-.63c1.15-.2 1.53-.65 2.48-3l5.53-13.6h.7l5.55 13.03c1.27 3.02 1.72 3.57 2.74 3.57v.63m-7.62-5.9l-2.52-6.07-2.35 6.08h4.87M253.4 276.5h-4.63v10.54h-1.16V276.5H243v-1.16h10.4v1.17M273.98 297.48h-8.04v-.63l.8-.07c.82-.08 1.14-.28 1.14-.83 0-.55-.3-1.42-1.15-3.4h-5.62l-.3.86c-.3.78-.8 1.83-.8 2.43 0 .65.56.92 2.04 1.02v.63H257v-.63c1.14-.2 1.5-.65 2.46-3l5.53-13.6h.7l5.53 13.03c1.28 3.02 1.73 3.57 2.75 3.57v.63m-7.62-5.9l-2.52-6.07-2.35 6.08h4.86M277.2 275.2v-.82c3.9 3.67 6.66 9.4 6.66 16.87 0 7.33-2.77 13.2-6.67 16.87v-.82c2.46-3.02 4.44-7.74 4.44-16.05 0-8.4-1.98-13.03-4.45-16.05M298.64 277.28h-9.84v-1.17h9.84v1.18M306.74 281.16h-4.88v-.26c1.3-.07 1.68-.44 1.68-1.42v-7.93c0-.6-.16-.86-.53-.86-.17 0-.47.07-.8.2l-.46.17v-.24l3.16-1.6.16.04v10.55c0 .76.35 1.08 1.68 1.08v.26"/><path d="M160.45 140h64.1v28.75h-64.1z" fill="#fff" fill-opacity="0"/><path d="M171.12 156.66l.3.33c-.07.1-1.84 2.8-5.18 2.8-2.45 0-4.9-1.38-4.9-4.78 0-4.6 3.5-8.35 7.4-9.22.5-.1.97-.16 1.4-.16 1.5 0 2.47.72 2.47 1.95 0 .65-.63 1.75-1.54 1.75-.77 0-1.16-.52-1.16-1.08 0-1.06 1.03-.87 1.03-1.43 0-.3-.56-.48-1-.48-2.15 0-4.4 1.56-5.55 4.44-.48 1.2-.8 2.6-.8 4.32 0 2.66 1.52 3.78 3.35 3.78 2.1 0 3.86-1.9 4.2-2.24M184.78 167.72v.68c-3.23-3.05-5.53-7.8-5.53-14 0-6.1 2.3-10.97 5.53-14.02v.68c-2.05 2.5-3.7 6.42-3.7 13.33 0 6.96 1.65 10.8 3.7 13.32M201.04 159.56h-6.68v-.52l.66-.06c.7-.06.96-.23.96-.7 0-.44-.25-1.17-.96-2.8h-4.66l-.27.7c-.26.64-.66 1.5-.66 2 0 .55.46.78 1.68.86v.52h-4.2v-.52c.97-.16 1.28-.54 2.07-2.5l4.57-11.3h.58l4.6 10.83c1.07 2.52 1.44 2.97 2.3 2.97v.52m-6.34-4.9l-2.08-5.04-1.95 5.04h4.04M211.07 142.14h-3.84v8.75h-.97v-8.76h-3.83v-.97h8.64v.97M215.84 141.06v-.68c3.23 3.05 5.53 7.8 5.53 14 0 6.1-2.3 10.97-5.53 14.02v-.68c2.05-2.5 3.7-6.43 3.7-13.33 0-6.98-1.65-10.83-3.7-13.34"/><path d="M618.03 532.94h74.02v28.75h-74.02z" fill="#fff" fill-opacity="0"/><path d="M631.95 549.9h.02c2.93-9.66 3.5-11.63 3.96-12.36.63-.96 1.4-1.54 2.37-1.54 1.02 0 1.8.77 1.8 1.75 0 .7-.37 1.24-1.1 1.24-1 0-.84-1.2-1.5-1.2-1.13 0-1.48 1.52-1.7 2.17L631.86 553h-.42c-1.95-2.66-3.84-5.8-5.35-9.88h-.04c-.75 3.6-2.18 10.15-5.38 10.15-1 0-1.8-.77-1.8-1.75 0-.7.37-1.24 1.1-1.24 1 0 .85 1.18 1.5 1.18 2.5 0 3.8-9.42 4.54-12.88h.56c1.6 4.04 3.2 8.5 5.4 11.33M652.27 560.66v.68c-3.23-3.05-5.53-7.8-5.53-14 0-6.1 2.3-10.97 5.53-14.02v.68c-2.05 2.5-3.7 6.42-3.7 13.33 0 6.97 1.65 10.82 3.7 13.33M668.53 552.5h-6.68v-.52l.67-.06c.68-.06.95-.23.95-.7 0-.44-.25-1.17-.95-2.8h-4.67l-.27.7c-.25.64-.65 1.5-.65 2 0 .55.46.78 1.7.86v.52h-4.2v-.52c.95-.16 1.26-.54 2.05-2.5l4.58-11.3h.6l4.6 10.83c1.05 2.52 1.42 2.98 2.27 2.98v.52m-6.32-4.9l-2.1-5.04-1.94 5.04h4.05M678.57 535.08h-3.85v8.75h-.97v-8.75h-3.83v-.97h8.65v.98M683.33 534v-.68c3.24 3.05 5.54 7.8 5.54 14 0 6.1-2.3 10.97-5.54 14.02v-.68c2.05-2.5 3.7-6.43 3.7-13.33 0-6.97-1.65-10.82-3.7-13.33"/><path d="M763.62 133.13h50.06v26.24h-50.06z" fill="#fff" fill-opacity="0"/><path d="M774.3 148.53l.3.34c-.1.12-1.85 2.8-5.2 2.8-2.44 0-4.9-1.37-4.9-4.78 0-4.6 3.5-8.35 7.42-9.22.5-.1.95-.17 1.4-.17 1.48 0 2.46.74 2.46 1.97 0 .66-.64 1.76-1.56 1.76-.76 0-1.16-.52-1.16-1.08 0-1.06 1.04-.87 1.04-1.43 0-.3-.56-.48-1-.48-2.16 0-4.4 1.56-5.56 4.44-.48 1.2-.8 2.6-.8 4.32 0 2.65 1.53 3.77 3.35 3.77 2.1 0 3.85-1.88 4.2-2.24M787.17 158.4v.6c-2.94-2.77-5.04-7.1-5.04-12.75 0-5.54 2.1-9.98 5.04-12.76v.6c-1.87 2.3-3.36 5.86-3.36 12.15 0 6.35 1.5 9.86 3.37 12.14M803.25 151.44h-6.68v-.52l.67-.06c.68-.06.95-.23.95-.7 0-.44-.26-1.17-.96-2.8h-4.67l-.27.7c-.25.64-.65 1.5-.65 2 0 .55.46.78 1.7.86v.52h-4.2v-.52c.95-.17 1.26-.54 2.05-2.5l4.58-11.3h.58l4.6 10.83c1.07 2.5 1.44 2.97 2.3 2.97v.52m-6.34-4.9l-2.1-5.04-1.94 5.04h4.04M805.74 134.1v-.6c2.95 2.77 5.05 7.1 5.05 12.75 0 5.54-2.1 9.98-5.06 12.76v-.6c1.87-2.3 3.37-5.86 3.37-12.15 0-6.35-1.5-9.86-3.36-12.14"/><path d="M141.47 185.34h16.98v25.68h-16.98z" fill="#fff" fill-opacity="0"/><path d="M157.9 210.43h-8.18v-.8c1.08-.08 1.52-.28 1.52-.7 0-.4-.3-.98-1.1-2.16-.52-.72-1-1.43-1.44-2.14l-.54.68c-1.33 1.6-2.17 2.96-2.17 3.5 0 .5.46.75 1.68.82v.8h-5.73v-.8c1.25-.07 1.93-.6 3.83-3.16l1.46-1.9c.5-.64.24-.34.75-.95l-4.35-6.67c-.68-1.02-.9-1.2-1.77-1.32v-.8h8.48v.8c-1.12.04-1.6.24-1.6.65 0 .44.86 1.87 1.98 3.32l.44.58 1.22-1.56c.9-1.2 1.3-1.67 1.3-2.18 0-.5-.28-.68-1.06-.75l-.68-.06v-.8h5.7v.8c-1.06.18-1.73.55-2.38 1.33l-3.42 4.27 5.02 7.74c.23.37.47.5 1 .68v.8M153.92 191.6h-1.15l-4.14-3.5-4.1 3.5h-1.16l4.2-5.66h2.1"/><path d="M540.83 401.9h15.32v19.94h-15.32z" fill="#fff" fill-opacity="0"/><path d="M546.64 402.37v7.13c1.05-1.1 2-1.54 3.36-1.54 3.05 0 5.17 2.6 5.17 6.44 0 4.13-2.53 6.96-6.22 6.96-1.37 0-2.36-.4-3.63-1.57l-2.17 1.53h-.34v-16.7c0-1.1-.23-1.35-1.5-1.6v-.66h5.34m0 8.7v7.24c0 1.33.74 2.18 1.9 2.18 1.76 0 2.6-1.76 2.6-5.6 0-3.62-.87-5.44-2.57-5.44-.9 0-1.43.44-1.93 1.63"/><path d="M709.18 297.28h34.3v23.93h-34.3z" fill="#fff" fill-opacity="0"/><path d="M715 297.75v7.13c1.04-1.1 2-1.54 3.35-1.54 3.05 0 5.17 2.62 5.17 6.44 0 4.13-2.53 6.96-6.22 6.96-1.37 0-2.36-.4-3.63-1.56l-2.17 1.54h-.34v-16.7c0-1.1-.24-1.36-1.5-1.6v-.67h5.33m0 8.7v7.24c0 1.3.73 2.16 1.9 2.16 1.75 0 2.58-1.76 2.58-5.58 0-3.64-.86-5.45-2.56-5.45-.9 0-1.43.44-1.93 1.62M731.3 318.4l.3.2c-1.18 1.5-2.2 2.1-3.67 2.1-1.8 0-2.86-1-2.86-3 0-1.8 1-3.5 2.4-4.6.95-.77 2.06-1.2 3.24-1.2 1.2 0 2.06.67 2.06 1.58 0 .53-.43.94-.94.94-.54 0-.76-.4-.76-.78 0-.35.3-.57.3-.94 0-.23-.28-.4-.72-.4-.78 0-1.56.36-2.13.95-1.08 1.15-1.76 2.8-1.76 4.53 0 1.4.63 2.22 1.74 2.22 1.03 0 1.77-.5 2.82-1.6M740.25 311.9l-.4 2.7h-.3c-.2-1.6-.78-2.25-1.73-2.25-.68 0-1.15.4-1.15 1.1 0 .54.3 1.1 1.05 2 .97 1.13 1.32 1.9 1.32 2.64 0 1.6-1.18 2.6-2.8 2.6-.33 0-.62-.02-1.07-.2-.37-.15-.64-.17-.86-.17-.2 0-.4.1-.55.4h-.3l.38-3.08h.3c.28 1.85.94 2.64 1.95 2.64.92 0 1.48-.55 1.48-1.5 0-.63-.33-1.3-1.1-2.24-.82-1.05-1.2-1.93-1.2-2.55 0-1.28.9-2.1 2.34-2.1.33 0 .6.06 1.1.2.36.12.54.14.7.14.3 0 .42-.08.58-.35h.27"/><path d="M80 480h432.65v97.95H80z" stroke="#e5e5e5" fill="#e5e5e5"/><path d="M98.93 489.5h395.62v82.8H98.93z" fill-opacity="0"/><path d="M124.12 549.26h-12.54V548c1.66-.1 2.34-.4 2.34-1.03s-.47-1.5-1.72-3.33c-.78-1.1-1.5-2.2-2.18-3.28-.27.3-.53.67-.84 1.04-2.03 2.44-3.33 4.53-3.33 5.36 0 .78.73 1.14 2.6 1.25v1.26h-8.8V548c1.93-.1 2.98-.93 5.9-4.83l2.23-2.92c.78-1 .36-.52 1.14-1.45l-6.66-10.26c-1.04-1.56-1.35-1.82-2.7-2.02v-1.25h13v1.25c-1.7.05-2.44.36-2.44.98 0 .68 1.3 2.87 3.02 5.1.2.26.47.58.67.9l1.9-2.4c1.4-1.83 1.96-2.56 1.96-3.34 0-.78-.4-1.04-1.6-1.14l-1.05-.1v-1.25h8.75v1.25c-1.6.26-2.65.83-3.64 2.02l-5.25 6.56 7.7 11.87c.37.57.73.78 1.57 1.04v1.26M118.03 520.37h-1.77L109.9 515l-6.3 5.37h-1.76l6.46-8.7h3.22M172.57 532.6H141.9v-3.43h30.67v3.43m0 10.4H141.9v-3.42h30.67V543M211.36 569.7v1.73c-8.12-7.66-13.9-19.6-13.9-35.14 0-15.27 5.78-27.5 13.9-35.15v1.7c-5.15 6.3-9.26 16.12-9.26 33.44 0 17.47 4.1 27.13 9.26 33.4M252.13 549.26h-16.75v-1.3l1.66-.16c1.72-.16 2.4-.57 2.4-1.72 0-1.14-.63-2.96-2.4-7.08h-11.7l-.68 1.77c-.63 1.62-1.62 3.8-1.62 5.05 0 1.35 1.15 1.93 4.22 2.14v1.3h-10.5v-1.3c2.38-.42 3.16-1.36 5.14-6.25l11.5-28.35h1.46l11.55 27.16c2.66 6.3 3.6 7.46 5.73 7.46v1.3m-15.87-12.28L231 524.33l-4.9 12.65h10.16M277.3 505.58h-9.65v21.93h-2.43V505.6h-9.6v-2.43h21.67v2.43M320.15 549.26H303.4v-1.3l1.66-.16c1.7-.16 2.4-.57 2.4-1.72 0-1.14-.63-2.96-2.4-7.08h-11.7l-.7 1.77c-.6 1.62-1.6 3.8-1.6 5.05 0 1.35 1.14 1.93 4.2 2.14v1.3h-10.5v-1.3c2.4-.42 3.18-1.36 5.15-6.25l11.5-28.35h1.47l11.55 27.16c2.66 6.3 3.6 7.46 5.73 7.46v1.3m-15.87-12.28l-5.26-12.65-4.9 12.65h10.16M326.83 502.86v-1.7c8.12 7.64 13.9 19.58 13.9 35.13 0 15.24-5.78 27.47-13.9 35.13v-1.72c5.15-6.27 9.26-16.1 9.26-33.4 0-17.5-4.12-27.16-9.27-33.44M371.52 507.18h-20.5v-2.43h20.5v2.43M388.37 515.27H378.2v-.55c2.74-.14 3.5-.92 3.5-2.94v-16.52c0-1.25-.32-1.8-1.1-1.8-.36 0-1 .18-1.65.44l-1 .36v-.5l6.6-3.36.32.1v21.98c0 1.58.74 2.24 3.5 2.24v.55M433.38 549.26h-16.75v-1.3l1.66-.16c1.7-.16 2.4-.57 2.4-1.72 0-1.14-.64-2.96-2.4-7.08h-11.72l-.67 1.77c-.62 1.62-1.6 3.8-1.6 5.05 0 1.35 1.14 1.93 4.2 2.14v1.3H398v-1.3c2.4-.42 3.17-1.36 5.15-6.25l11.5-28.35h1.46l11.56 27.16c2.65 6.3 3.6 7.46 5.72 7.46v1.3m-15.87-12.28l-5.24-12.65-4.9 12.65h10.15M458.54 505.58h-9.64v21.93h-2.43V505.6h-9.6v-2.43h21.67v2.43M476.52 514.08v13.48c1.98-2.1 3.8-2.92 6.35-2.92 5.78 0 9.8 4.95 9.8 12.18 0 7.8-4.8 13.16-11.77 13.16-2.6 0-4.48-.78-6.87-2.96l-4.1 2.9h-.64v-31.57c0-2.1-.48-2.55-2.87-3.02v-1.25h10.1m0 16.44v13.7c0 2.5 1.4 4.1 3.6 4.1 3.32 0 4.88-3.33 4.88-10.56 0-6.87-1.6-10.3-4.83-10.3-1.72 0-2.7.82-3.65 3.06"/><path d="M198.78 335.54c-3.06 4.6-9.26 5.85-13.86 2.8-4.6-3.07-5.85-9.28-2.8-13.88 3.06-4.6 9.27-5.85 13.87-2.8 4.6 3.07 5.84 9.28 2.78 13.88z" stroke="#c92d39" fill="#ffbbb1"/><path d="M200.32 324.57l1.27-2.85m1.68-3.8l.5-1.15 1.8-4.66m1.4-3.9l.85-2.6.94-3.4m.95-4.04l.13-.55.6-3.4.26-2.2m.35-4.16l.06-2.68-.06-2.8-.05-.76m-.43-4.14l-.07-.62-.5-2.78-.6-2.73m-1.16-4l-.68-2.04-1.24-3.2-.27-.6m-1.74-3.8l-1.38-2.75-1.56-2.74m-2.16-3.55l-1.52-2.4-1.97-2.77m-2.44-3.37l-1.92-2.45" stroke="#000" stroke-width="2" fill="none"/><path d="M201.25 324.95l-.86 1.92-.54-1.55-.58-.86.14-.32z"/><path d="M181.37 226.1l12.83 7.77-7.02 6.06z" stroke="#000" stroke-width="2" fill="#fff"/><path d="M161.45 225.12l-1.33 2.17-.25.44m-1.9 3.6l-1 2.08-1.33 3.1-.15.4m-1.36 3.85l-.65 2.1-.83 3.22-.12.57m-.75 4l-.3 2-.34 3.34-.04.75m-.13 4.07v2.02l.16 3.48.06.6m.46 4.06l.37 2.45.72 3.56m1.02 3.94l1.08 3.53.83 2.27m1.52 3.8l.65 1.53 1.87 3.87.07.12m1.96 3.58l.1.2 2.43 3.95.7 1.02m2.32 3.35l1.85 2.44" stroke="#000" stroke-width="2" fill="none"/><path d="M161.97 224.27l.73.73-.4.67-1.72-1.05.86-1.4z"/><path d="M179.5 321.8l-13.07-7.33 6.8-6.3z" stroke="#000" stroke-width="2" fill="#fff"/><path d="M701.88 318.06c-1.66 5.27-7.27 8.2-12.54 6.54-5.27-1.65-8.2-7.27-6.54-12.54 1.65-5.27 7.27-8.2 12.53-6.54 5.27 1.66 8.2 7.27 6.55 12.54zM641.64 484.88c0 5.53-4.48 10-10 10s-10-4.47-10-10c0-5.52 4.48-10 10-10s10 4.48 10 10zM575.87 384.5c3.04 4.6 1.77 10.8-2.85 13.85-4.6 3.04-10.8 1.77-13.85-2.85-3.04-4.6-1.77-10.8 2.85-13.85 4.6-3.04 10.8-1.77 13.85 2.85z" stroke="#83bbe5" fill="#b2d6ef"/><path d="M578.14 383.7c0 .55-.44 1-1 1-.55 0-1-.45-1-1s.45-1 1-1c.56 0 1 .45 1 1zm3.4-2.05c0 .55-.46 1-1 1-.56 0-1-.45-1-1 0-.56.44-1 1-1 .54 0 1 .44 1 1zm3.38-2.06c0 .54-.45 1-1 1-.56 0-1-.46-1-1 0-.56.44-1 1-1 .55 0 1 .44 1 1zm3.38-2.06c0 .55-.45 1-1 1s-1-.45-1-1 .45-1 1-1 1 .45 1 1zm3.4-2.06c0 .56-.46 1-1 1-.57 0-1-.44-1-1 0-.55.43-1 1-1 .54 0 1 .45 1 1zm3.37-2.05c0 .55-.45 1-1 1s-1-.45-1-1 .45-1 1-1 1 .45 1 1zm3.4-2.05c0 .55-.46 1-1 1-.56 0-1-.45-1-1 0-.56.44-1 1-1 .54 0 1 .44 1 1zm3.37-2.06c0 .56-.44 1-1 1-.55 0-1-.44-1-1 0-.55.45-1 1-1 .56 0 1 .45 1 1zm3.4-2.05c0 .55-.46 1-1 1-.56 0-1-.45-1-1s.44-1 1-1c.54 0 1 .45 1 1zm3.37-2.05c0 .55-.43 1-1 1-.54 0-1-.45-1-1 0-.56.46-1 1-1 .57 0 1 .44 1 1zm3.4-2.06c0 .55-.45 1-1 1s-1-.45-1-1 .45-1 1-1 1 .45 1 1zm3.38-2.05c0 .56-.44 1-1 1-.55 0-1-.44-1-1 0-.54.45-1 1-1 .56 0 1 .46 1 1zm3.4-2.05c0 .56-.46 1-1 1-.56 0-1-.44-1-1 0-.55.44-1 1-1 .54 0 1 .45 1 1zm3.38-2.05c0 .55-.45 1-1 1-.56 0-1-.45-1-1s.44-1 1-1c.55 0 1 .45 1 1zm3.38-2.05c0 .55-.45 1-1 1s-1-.45-1-1c0-.56.45-1 1-1s1 .44 1 1zm3.4-2.06c0 .54-.46 1-1 1-.57 0-1-.46-1-1 0-.56.43-1 1-1 .54 0 1 .44 1 1zm3.37-2.06c0 .55-.44 1-1 1-.54 0-1-.45-1-1s.46-1 1-1c.56 0 1 .45 1 1zm3.4-2.06c0 .56-.45 1-1 1-.56 0-1-.44-1-1 0-.55.44-1 1-1 .55 0 1 .45 1 1zm3.38-2.05c0 .55-.45 1-1 1s-1-.45-1-1 .45-1 1-1 1 .45 1 1zm3.4-2.05c0 .55-.46 1-1 1-.56 0-1-.45-1-1 0-.56.44-1 1-1 .54 0 1 .44 1 1zm3.37-2.06c0 .56-.44 1-1 1-.55 0-1-.44-1-1 0-.55.45-1 1-1 .56 0 1 .45 1 1zm3.4-2.05c0 .55-.46 1-1 1-.56 0-1-.45-1-1s.44-1 1-1c.54 0 1 .45 1 1zm3.37-2.05c0 .55-.44 1-1 1-.55 0-1-.45-1-1 0-.56.45-1 1-1 .56 0 1 .44 1 1zm3.4-2.06c0 .55-.46 1-1 1-.56 0-1-.45-1-1s.44-1 1-1c.54 0 1 .45 1 1zm3.38-2.05c0 .56-.45 1-1 1-.56 0-1-.44-1-1 0-.54.44-1 1-1 .55 0 1 .46 1 1zm3.38-2.05c0 .56-.45 1-1 1s-1-.44-1-1c0-.55.45-1 1-1s1 .45 1 1zm3.4-2.05c0 .55-.46 1-1 1-.57 0-1-.45-1-1s.43-1 1-1c.54 0 1 .45 1 1zm3.37-2.05c0 .55-.45 1-1 1s-1-.45-1-1c0-.56.45-1 1-1s1 .44 1 1zm3.4-2.06c0 .55-.46 1-1 1-.57 0-1-.45-1-1 0-.56.43-1 1-1 .54 0 1 .44 1 1zm3.37-2.06c0 .55-.45 1-1 1s-1-.45-1-1 .45-1 1-1 1 .45 1 1zm3.4-2.05c0 .54-.46 1-1 1-.56 0-1-.46-1-1 0-.57.44-1 1-1 .54 0 1 .43 1 1z"/><path d="M577.7 384.54l-1 .6-.4-.92-.67-.77 1.02-.62zM683.4 320.4l-.8.5-1.05-1.7.93-.58zM574.85 399.6c0 .56-.45 1-1 1s-1-.44-1-1c0-.54.45-1 1-1s1 .46 1 1zm2.18 3.35c0 .55-.45 1-1 1s-1-.45-1-1 .45-1 1-1 1 .45 1 1zm2.18 3.34c0 .54-.44 1-1 1-.54 0-1-.46-1-1 0-.57.46-1 1-1 .56 0 1 .43 1 1zm2.2 3.32c0 .56-.46 1-1 1-.57 0-1-.44-1-1 0-.55.43-1 1-1 .54 0 1 .45 1 1zm2.16 3.34c0 .56-.44 1-1 1-.55 0-1-.44-1-1 0-.55.45-1 1-1 .56 0 1 .45 1 1zm2.18 3.34c0 .55-.44 1-1 1-.55 0-1-.45-1-1s.45-1 1-1c.56 0 1 .45 1 1zm2.18 3.34c0 .55-.45 1-1 1s-1-.45-1-1 .45-1 1-1 1 .45 1 1zm2.18 3.34c0 .55-.45 1-1 1s-1-.45-1-1 .45-1 1-1 1 .45 1 1zm2.18 3.34c0 .55-.45 1-1 1s-1-.45-1-1c0-.56.45-1 1-1s1 .44 1 1zm2.18 3.34c0 .55-.45 1-1 1s-1-.45-1-1c0-.56.45-1 1-1s1 .44 1 1zm2.18 3.33c0 .55-.45 1-1 1-.56 0-1-.45-1-1 0-.56.44-1 1-1 .55 0 1 .44 1 1zm2.18 3.33c0 .55-.45 1-1 1-.56 0-1-.45-1-1s.44-1 1-1c.55 0 1 .45 1 1zm2.17 3.34c0 .55-.45 1-1 1-.56 0-1-.45-1-1s.44-1 1-1c.55 0 1 .45 1 1zm2.17 3.34c0 .56-.45 1-1 1s-1-.44-1-1c0-.54.45-1 1-1s1 .46 1 1zm2.18 3.35c0 .55-.45 1-1 1s-1-.45-1-1 .45-1 1-1 1 .45 1 1zm2.18 3.34c0 .54-.45 1-1 1s-1-.46-1-1c0-.57.45-1 1-1s1 .43 1 1zm2.18 3.33c0 .55-.44 1-1 1-.54 0-1-.45-1-1 0-.56.46-1 1-1 .56 0 1 .44 1 1zm2.2 3.33c0 .56-.46 1-1 1-.57 0-1-.44-1-1 0-.55.43-1 1-1 .54 0 1 .45 1 1zm2.17 3.34c0 .55-.45 1-1 1-.56 0-1-.45-1-1s.44-1 1-1c.55 0 1 .45 1 1zm2.17 3.34c0 .55-.44 1-1 1-.55 0-1-.45-1-1s.45-1 1-1c.56 0 1 .45 1 1zm2.18 3.34c0 .55-.44 1-1 1-.55 0-1-.45-1-1s.45-1 1-1c.56 0 1 .45 1 1zm2.18 3.34c0 .55-.45 1-1 1s-1-.45-1-1 .45-1 1-1 1 .45 1 1zm2.18 3.34c0 .55-.45 1-1 1s-1-.45-1-1c0-.56.45-1 1-1s1 .44 1 1z"/><path d="M574.7 399.08l-1.67 1.1-.65-1 .92-.4.75-.7zM625.3 476.62l-1.1.84-.4.53-.7-1.08 1.68-1.1z"/><path d="M650.66 474.92h40.83v23.93h-40.84z" fill="#fff" fill-opacity="0"/><path d="M656.46 475.4v7.12c1.05-1.1 2-1.54 3.36-1.54 3.06 0 5.18 2.62 5.18 6.44 0 4.13-2.54 6.96-6.22 6.96-1.38 0-2.37-.4-3.64-1.56l-2.17 1.54h-.33v-16.7c0-1.1-.25-1.36-1.5-1.6v-.67h5.32m0 8.7v7.23c0 1.32.75 2.17 1.9 2.17 1.77 0 2.6-1.76 2.6-5.58 0-3.64-.86-5.45-2.57-5.45-.92 0-1.44.44-1.94 1.62M671.4 484.93l-3 11.4c-.1.34-.14.67-.14.82 0 .24.13.35.33.35.28 0 .73-.3 1.3-1.1l.48-.7.27.2c-1.17 1.86-1.9 2.44-2.94 2.44-.6 0-.94-.37-.94-1.1 0-.14.02-.38.08-.57l2.66-10.2c.06-.2.06-.3.06-.37 0-.23-.33-.43-.95-.43h-.34v-.3c1.14-.15 1.86-.28 3-.53M680.34 495.85l.27.25c-1.3 1.8-1.8 2.2-2.7 2.2-.5 0-.92-.3-.92-1.05 0-.2.03-.45.3-1.46l.86-3.16c.16-.6.28-1.3.28-1.54 0-.35-.18-.56-.47-.56-.78 0-1.66.95-2.88 2.76-.88 1.3-1.03 1.75-1.95 4.83h-1.46l1.87-6.8c.02-.1.04-.23.04-.34 0-.4-.27-.52-1.27-.54v-.3c1.58-.32 2.13-.4 3.16-.6l.07.02-1.3 4.25c1.95-3.12 3.25-4.28 4.5-4.28.83 0 1.26.48 1.26 1.18 0 .35-.1.76-.2 1.17l-1.1 3.95c-.2.7-.27 1.03-.27 1.2 0 .16.08.34.32.34.27 0 .62-.32 1.18-1.04.14-.16.28-.33.4-.5M688.26 489.53l-.4 2.72h-.3c-.2-1.62-.78-2.26-1.73-2.26-.68 0-1.15.38-1.15 1.1 0 .53.3 1.1 1.05 2 .98 1.12 1.33 1.87 1.33 2.63 0 1.62-1.2 2.6-2.8 2.6-.34 0-.63 0-1.08-.18-.37-.16-.64-.18-.85-.18-.22 0-.43.1-.57.4h-.3l.38-3.08h.3c.28 1.83.95 2.63 1.96 2.63.9 0 1.48-.54 1.48-1.5 0-.62-.33-1.28-1.1-2.23-.83-1.05-1.22-1.93-1.22-2.55 0-1.3.92-2.1 2.36-2.1.33 0 .6.05 1.1.2.36.1.53.13.7.13.28 0 .4-.08.57-.35h.26"/><path d="M557.4 394.15l-9.83 2.72-51.72 15.24-15.16 3.5-13.5 2.5-12.63 1.78-12.12 1.2-11.82.7-11.65.16-11.6-.3-11.64-.8-11.73-1.3-11.9-1.83-12.15-2.38-12.45-3-12.84-3.66-13.3-4.4-13.83-5.24-14.47-6.18-15.2-7.27-16.1-8.52-17.07-10-18.27-11.74-8.58-6.03" stroke="#0c7cba" fill="none"/><path d="M558.1 394.47l-.57.16-.27-.96.4-.12z" fill="#0c7cba"/><path d="M200 336.4l24.9 2.26L210 359.3z" stroke="#0c7cba" fill="#fff"/><path d="M170.8 342.66h17v23.6h-17z" fill="#fff" fill-opacity="0"/><path d="M187.23 365.68h-8.18v-.8c1.1-.08 1.53-.28 1.53-.7 0-.4-.3-.97-1.12-2.16-.5-.7-1-1.43-1.43-2.14l-.54.68c-1.33 1.6-2.18 2.95-2.18 3.5 0 .5.47.74 1.7.8v.82h-5.74v-.8c1.26-.08 1.94-.62 3.84-3.17l1.45-1.9c.5-.63.24-.33.75-.94l-4.34-6.68c-.68-1.02-.88-1.2-1.77-1.32v-.82h8.5v.82c-1.12.03-1.6.23-1.6.64 0 .44.85 1.87 1.97 3.33.13.17.3.37.44.57l1.23-1.56c.92-1.2 1.3-1.66 1.3-2.17 0-.5-.28-.68-1.06-.75l-.68-.06v-.82h5.7v.82c-1.06.17-1.74.54-2.4 1.32l-3.4 4.27 5 7.74c.25.36.48.5 1.03.67v.8M182.78 343.26h1c-.73 2.58-1.7 3.6-3.58 3.6-.84 0-1.35-.14-2.74-.82-1.3-.6-1.56-.75-2.18-.75-.78 0-1.35.5-1.73 1.55h-.98c.5-2.2 1.73-3.42 3.43-3.42.74 0 1.56.2 2.37.6 1.46.75 1.94.96 2.6.96.8 0 1.24-.5 1.8-1.74"/><path d="M380 396.55h40v28.16h-40z" fill="#fff"/><path d="M401.1 424.2h-9.87v-.78l.98-.1c1.02-.08 1.42-.33 1.42-1 0-.67-.37-1.75-1.4-4.16h-6.9l-.4 1.04c-.36.95-.94 2.23-.94 2.97 0 .8.67 1.13 2.48 1.25v.77h-6.18v-.78c1.4-.24 1.86-.8 3.03-3.67l6.77-16.68h.86l6.8 15.97c1.55 3.7 2.1 4.38 3.36 4.38v.77m-9.35-7.24l-3.1-7.43-2.87 7.43h5.97M415.88 398.5h-5.67v12.9h-1.42v-12.9h-5.64v-1.43h12.74v1.43"/><path d="M484.76 422.8h103v14.46h-103z" fill="#fff" fill-opacity="0"/><path d="M489.7 436.72l-.18.26c-2.58-1.46-3.98-4.2-3.98-6.98 0-3.02 1.42-5.36 4.03-6.9l.14.25c-2.25 1.94-2.76 3.45-2.76 6.6 0 3.03.5 4.87 2.77 6.77M493.62 423.1v4.2c.62-.64 1.2-.9 2-.9 1.8 0 3.05 1.54 3.05 3.8 0 2.45-1.5 4.13-3.68 4.13-.83 0-1.4-.25-2.16-.93l-1.3.9h-.18v-9.87c0-.65-.15-.8-.9-.95v-.4h3.16m0 5.16v4.28c0 .78.44 1.3 1.12 1.3 1.05 0 1.54-1.05 1.54-3.32 0-2.15-.5-3.22-1.52-3.22-.54 0-.85.26-1.14.96M514.14 428.9h-9.6v-1.1h9.6v1.1m0 3.25h-9.6v-1.08h9.6v1.08M522.9 423.1v4.2c.62-.64 1.2-.9 2-.9 1.8 0 3.05 1.54 3.05 3.8 0 2.45-1.5 4.13-3.68 4.13-.8 0-1.4-.25-2.15-.93l-1.28.9h-.2v-9.87c0-.65-.15-.8-.9-.95v-.4h3.16m0 5.16v4.28c0 .78.44 1.3 1.13 1.3 1.04 0 1.53-1.05 1.53-3.32 0-2.15-.5-3.22-1.52-3.22-.53 0-.84.26-1.14.96M532.55 435.3l.2.13c-.7.88-1.32 1.24-2.2 1.24-1.06 0-1.68-.6-1.68-1.77 0-1.07.6-2.08 1.42-2.73.55-.45 1.2-.7 1.9-.7s1.22.4 1.22.93c0 .3-.26.55-.56.55-.32 0-.44-.23-.44-.46 0-.22.17-.34.17-.56 0-.14-.17-.23-.44-.23-.46 0-.92.2-1.25.56-.64.68-1.04 1.66-1.04 2.68 0 .83.37 1.32 1.02 1.32.6 0 1.05-.3 1.67-.95M537.85 431.45l-.23 1.62h-.18c-.12-.96-.46-1.34-1.03-1.34-.4 0-.67.23-.67.66 0 .3.18.63.62 1.16.58.67.8 1.12.8 1.57 0 .95-.72 1.54-1.67 1.54-.2 0-.37 0-.63-.1-.22-.1-.38-.12-.5-.12-.14 0-.26.06-.35.24h-.18l.23-1.84h.2c.15 1.1.54 1.57 1.14 1.57.53 0 .86-.32.86-.9 0-.36-.2-.75-.64-1.3-.5-.63-.73-1.15-.73-1.52 0-.75.53-1.23 1.4-1.23.18 0 .34.03.63.1.22.08.32.1.4.1.2 0 .27-.06.36-.22h.15M553.74 430.52h-4.26v4.25h-1.07v-4.25h-4.24v-1.08h4.25v-4.25h1.08v4.24h4.26v1.08M561.6 423.1v4.2c.62-.64 1.2-.9 2-.9 1.8 0 3.05 1.54 3.05 3.8 0 2.45-1.5 4.13-3.68 4.13-.8 0-1.4-.25-2.15-.93l-1.3.9h-.18v-9.87c0-.65-.15-.8-.9-.95v-.4h3.16m0 5.16v4.28c0 .78.44 1.3 1.13 1.3 1.04 0 1.53-1.05 1.53-3.32 0-2.15-.5-3.22-1.52-3.22-.54 0-.85.26-1.14.96M570.43 428.74l-1.76 6.73c-.06.2-.1.4-.1.5 0 .14.1.2.2.2.18 0 .44-.18.78-.65l.28-.4.17.1c-.7 1.1-1.12 1.45-1.74 1.45-.37 0-.57-.22-.57-.64 0-.1 0-.23.04-.35l1.58-6.03c.03-.12.03-.2.03-.22 0-.14-.2-.26-.56-.26h-.22V429c.68-.1 1.1-.17 1.78-.32M575.73 435.2l.16.15c-.8 1.07-1.08 1.3-1.62 1.3-.3 0-.54-.2-.54-.62 0-.12.02-.27.18-.87l.5-1.86c.1-.36.17-.78.17-.9 0-.22-.1-.35-.3-.35-.45 0-.96.57-1.7 1.64-.5.76-.6 1.02-1.14 2.84h-.87l1.1-4.03.02-.18c0-.23-.16-.3-.75-.3v-.2l1.87-.35.05.02-.78 2.5c1.15-1.84 1.92-2.53 2.66-2.53.5 0 .74.28.74.7 0 .2-.04.45-.1.7l-.66 2.33c-.1.4-.16.6-.16.7 0 .1.05.2.2.2.15 0 .36-.18.7-.6l.23-.3M580.42 431.45l-.23 1.62h-.2c-.1-.96-.46-1.34-1.02-1.34-.4 0-.68.23-.68.66 0 .3.17.63.62 1.16.58.67.78 1.12.78 1.57 0 .95-.7 1.54-1.65 1.54-.2 0-.37 0-.64-.1-.2-.1-.37-.12-.5-.12-.12 0-.25.06-.33.24h-.18l.22-1.84h.18c.16 1.1.55 1.57 1.15 1.57.55 0 .88-.32.88-.9 0-.36-.2-.75-.65-1.3-.5-.63-.72-1.15-.72-1.52 0-.75.54-1.23 1.4-1.23.2 0 .35.03.64.1.22.08.32.1.4.1.18 0 .27-.06.36-.22h.16M582.8 423.35l.2-.26c2.48 1.5 3.96 4.2 3.96 6.98 0 3-1.43 5.32-4.02 6.9l-.15-.26c2.3-1.9 2.76-3.43 2.76-6.6 0-3.04-.4-4.9-2.77-6.77"/></g></svg>