<?xml version="1.0" encoding="UTF-8" standalone="no"?>
<svg
   xmlns:lucid="lucid"
   xmlns:dc="http://purl.org/dc/elements/1.1/"
   xmlns:cc="http://creativecommons.org/ns#"
   xmlns:rdf="http://www.w3.org/1999/02/22-rdf-syntax-ns#"
   xmlns:svg="http://www.w3.org/2000/svg"
   xmlns="http://www.w3.org/2000/svg"
   xmlns:sodipodi="http://sodipodi.sourceforge.net/DTD/sodipodi-0.dtd"
   xmlns:inkscape="http://www.inkscape.org/namespaces/inkscape"
   width="915.59"
   height="618.49"
   version="1.1"
   id="svg118"
   sodipodi:docname="left_pinv.svg"
   inkscape:version="0.92.4 (5da689c313, 2019-01-14)"
   inkscape:export-filename="D:\work\website\siva82kb.github.io\figs\left_pinv.png"
   inkscape:export-xdpi="600"
   inkscape:export-ydpi="600">
  <metadata
     id="metadata124">
    <rdf:RDF>
      <cc:Work
         rdf:about="">
        <dc:format>image/svg+xml</dc:format>
        <dc:type
           rdf:resource="http://purl.org/dc/dcmitype/StillImage" />
      </cc:Work>
    </rdf:RDF>
  </metadata>
  <defs
     id="defs122" />
  <sodipodi:namedview
     pagecolor="#ffffff"
     bordercolor="#666666"
     borderopacity="1"
     objecttolerance="10"
     gridtolerance="10"
     guidetolerance="10"
     inkscape:pageopacity="0"
     inkscape:pageshadow="2"
     inkscape:window-width="1920"
     inkscape:window-height="1027"
     id="namedview120"
     showgrid="false"
     inkscape:zoom="0.92984473"
     inkscape:cx="442.94768"
     inkscape:cy="361.18759"
     inkscape:window-x="-8"
     inkscape:window-y="-8"
     inkscape:window-maximized="1"
     inkscape:current-layer="g116" />
  <g
     lucid:page-tab-id="0_0"
     id="g116">
    <path
       d="M736.57 531.67l-98.84 65.36L563.3 484.5l98.84-65.38zM894.7 265.58l-231.65 153.2-124.98-189 231.65-153.2z"
       stroke="#0c7cba"
       stroke-width="4"
       fill-opacity="0"
       id="path4" />
    <path
       d="M214.58 100.06l138.14 240.92-196.55 112.7L18.03 212.76z"
       stroke="#c92d39"
       stroke-width="4"
       fill-opacity="0"
       id="path6" />
    <path
       d="M180.45 218.06c0 5.53-4.47 10-10 10-5.52 0-10-4.47-10-10 0-5.52 4.48-10 10-10 5.53 0 10 4.48 10 10z"
       stroke="#c92d39"
       fill="#ffbbb1"
       id="path8" />
    <path
       d="M682.52 319.78l-106.2 47.88-31.18 12-25.07 8.46-21.63 6.3-19.32 4.75-17.66 3.57-16.38 2.6-15.37 1.78-14.56 1.07-13.9.43-13.4-.14-12.94-.7-12.6-1.18-12.32-1.7-12.12-2.16-11.96-2.68-11.87-3.18-11.82-3.7-11.8-4.26-11.9-4.85-11.97-5.5-12.14-6.18-12.35-6.96-12.6-7.82-11.84-8.04"
       stroke="#0c7cba"
       fill="none"
       id="path10" />
    <path
       d="M683.2 320.02l-.5.22-.4-.9.45-.2z"
       fill="#0c7cba"
       id="path12" />
    <path
       d="M200 336.4l24.84 2.7-15.25 20.4z"
       stroke="#0c7cba"
       fill="#fff"
       id="path14" />
    <path
       d="M181.46 217.98l111.84-18.63 40.57-4.7 30.84-2.26 25.82-.8 22.62.24 20.4 1.08 18.76 1.8 17.5 2.4 16.55 3 15.8 3.53 15.17 4.08 14.73 4.63 14.36 5.2 14.12 5.77 13.95 6.4 13.84 7.07 13.84 7.8 13.9 8.64 14 9.55 14.22 10.57 14.5 11.76 8.67 7.67"
       stroke="#c92d39"
       fill="none"
       id="path16" />
    <path
       d="M181.55 218.47l-.67.12.08-.53-.07-.5.5-.08z"
       fill="#c92d39"
       id="path18" />
    <path
       d="M683.6 307.75l-24.45-5.27 17.3-18.68z"
       stroke="#c92d39"
       fill="#fff"
       id="path20" />
    <path
       d="M419.73 161.64h24.98v25.05h-24.97z"
       fill="#fff"
       fill-opacity="0"
       id="path22" />
    <path
       d="M443.56 186.1h-11.14v-.87l1.1-.1c1.15-.1 1.6-.4 1.6-1.15 0-.76-.42-1.97-1.6-4.7h-7.77l-.45 1.18c-.42 1.07-1.07 2.52-1.07 3.35 0 .9.76 1.3 2.8 1.43v.86h-7v-.87c1.6-.28 2.12-.9 3.43-4.15l7.65-18.85h.97l7.68 18.05c1.76 4.2 2.4 4.95 3.8 4.95v.86m-10.54-8.17l-3.48-8.4-3.25 8.4H433"
       id="path24" />
    <path
       d="M170.8 20h73.83v40H170.8z"
       fill="#fff"
       fill-opacity="0"
       id="path26" />
    <path
       d="M209.5 59.06h-11.25l-10.6-14.73h-4.02v14.73h-9.02V23.1H192c6.96 0 12.94 2.87 12.94 10.64 0 4.78-2.5 8.42-7.12 9.83m-.33-17.33v15.38c3.14-1.3 5.04-4.4 5.04-7.77 0-3.7-1.8-6.14-5.05-7.6m-2.4 15.42V25.9c-.82-.1-1.9-.42-2.72-.42h-8.75v16.46h8.48c1 0 2.02-.16 3-.27m9.73 15l-9.5-12.55c-1.6.27-3.22.2-4.8.2l8.97 12.35h5.33m-23.6 0v-31.2H177v31.2h4.24M238.48 33.85l-.2.27c-2.03 2.85-3.72 4.1-5.53 4.1-1 0-1.53-.6-1.53-1.75 0-.4.1-1.04.5-2.54l2.22-8.72c.2-.76.27-1.26.27-1.45 0-.46-.33-.8-.76-.8-1.15 0-3.1 1.8-5.03 4.5-1.87 2.64-2.64 4.52-4.14 10.44h-2.88l1.04-3.6c1.7-5.83 2.6-9.9 2.6-10.4 0-.6-.34-.96-.84-.96-1.3 0-3.57 2.23-5.72 5.5-1.3 2-1.85 3.38-3.7 9.45h-2.87l1.64-5.55c1.54-5.1 2.1-8.3 2.1-8.76 0-.58-.53-.85-1.56-.85h-.96v-.62l6.22-1.2.12.1-2.23 8.02c3.42-5.57 6.1-8.1 8.45-8.1 1.54 0 2.3.9 2.3 2.3 0 .73-.5 2.88-1.53 5.84 2.7-4.28 4.27-6.2 6.15-7.4.92-.57 1.65-.76 2.42-.76 1.42 0 2.23 1.04 2.23 2.42 0 .27-.08.9-.12 1.08l-2.6 9.64c-.24.9-.4 1.58-.4 1.73 0 .44.16.63.47.63.65 0 1.34-.62 2.5-2.04l.8-1"
       id="path28" />
    <path
       d="M720 20h65.3v40H720z"
       fill="#fff"
       fill-opacity="0"
       id="path30" />
    <path
       d="M758.7 59.06h-11.26l-10.6-14.73h-4v14.73h-9.04V23.1h17.4c6.95 0 12.93 2.87 12.93 10.64 0 4.78-2.5 8.42-7.12 9.83m-.32-17.33v15.38c3.16-1.3 5.06-4.4 5.06-7.77 0-3.7-1.8-6.14-5.06-7.6m-2.4 15.42V25.9c-.8-.1-1.9-.42-2.7-.42h-8.75v16.46h8.47c.98 0 2-.16 3-.27m9.72 15l-9.5-12.55c-1.6.27-3.22.2-4.8.2l8.97 12.35H754m-23.6 0v-31.2h-4.22v31.2h4.23M778.3 33.4l.53.5c-2.6 3.57-3.57 4.33-5.38 4.33-.96 0-1.8-.6-1.8-2.07 0-.4.07-.88.6-2.88l1.7-6.23c.3-1.2.54-2.57.54-3.03 0-.7-.36-1.12-.93-1.12-1.54 0-3.27 1.88-5.7 5.46-1.72 2.57-2.03 3.46-3.83 9.53h-2.88l3.7-13.46c.02-.2.06-.42.06-.65 0-.78-.54-1-2.5-1.05v-.62c3.12-.6 4.2-.77 6.23-1.2l.15.1-2.57 8.37c3.84-6.15 6.42-8.46 8.88-8.46 1.66 0 2.5.96 2.5 2.35 0 .68-.15 1.48-.38 2.3l-2.15 7.8c-.4 1.38-.54 2.03-.54 2.34 0 .34.15.7.6.7.55 0 1.24-.63 2.36-2.05l.8-1"
       id="path32" />
    <path
       d="M88.08 257.22h56.66v25.7H88.08z"
       fill="#fff"
       fill-opacity="0"
       id="path34" />
    <path
       d="M107.3 282.43h-8.98v-.7l.9-.08c.92-.1 1.28-.3 1.28-.92 0-.62-.33-1.6-1.28-3.8h-6.28l-.37.95c-.33.86-.86 2.04-.86 2.7 0 .73.62 1.04 2.27 1.15v.7h-5.64v-.7c1.28-.22 1.7-.73 2.76-3.35l6.16-15.2h.78l6.2 14.56c1.43 3.38 1.93 4 3.07 4v.7m-8.5-6.6l-2.82-6.78-2.63 6.78h5.45M120.8 259h-5.17v11.76h-1.3V259h-5.15v-1.3h11.63v1.3M143.8 282.43h-9v-.7l.9-.08c.92-.1 1.3-.3 1.3-.92 0-.62-.35-1.6-1.3-3.8h-6.28l-.36.95c-.34.86-.87 2.04-.87 2.7 0 .73.6 1.04 2.26 1.15v.7h-5.64v-.7c1.28-.22 1.7-.73 2.76-3.35l6.17-15.2h.78l6.2 14.56c1.42 3.38 1.92 4 3.07 4v.7m-8.52-6.6l-2.8-6.78-2.64 6.78h5.44"
       id="path36" />
    <path
       d="M211.27 268.8h99.87v39.74h-99.87z"
       fill="#fff"
       fill-opacity="0"
       id="path38" />
    <path
       d="M221.75 307.3v.82c-3.9-3.67-6.67-9.4-6.67-16.87 0-7.32 2.77-13.2 6.67-16.87v.82c-2.47 3.02-4.45 7.74-4.45 16.05 0 8.4 1.98 13.03 4.45 16.05M241.32 297.48h-8.04v-.63l.8-.07c.82-.08 1.15-.28 1.15-.83 0-.55-.3-1.42-1.15-3.4h-5.62l-.33.86c-.3.78-.77 1.83-.77 2.43 0 .65.55.92 2.02 1.02v.63h-5.05v-.63c1.15-.2 1.53-.65 2.48-3l5.53-13.6h.7l5.55 13.03c1.27 3.02 1.72 3.57 2.74 3.57v.63m-7.62-5.9l-2.52-6.07-2.35 6.08h4.87M253.4 276.5h-4.63v10.54h-1.16V276.5H243v-1.16h10.4v1.17M273.98 297.48h-8.04v-.63l.8-.07c.82-.08 1.14-.28 1.14-.83 0-.55-.3-1.42-1.15-3.4h-5.62l-.3.86c-.3.78-.8 1.83-.8 2.43 0 .65.56.92 2.04 1.02v.63H257v-.63c1.14-.2 1.5-.65 2.46-3l5.53-13.6h.7l5.53 13.03c1.28 3.02 1.73 3.57 2.75 3.57v.63m-7.62-5.9l-2.52-6.07-2.35 6.08h4.86M277.2 275.2v-.82c3.9 3.67 6.66 9.4 6.66 16.87 0 7.33-2.77 13.2-6.67 16.87v-.82c2.46-3.02 4.44-7.74 4.44-16.05 0-8.4-1.98-13.03-4.45-16.05M298.64 277.28h-9.84v-1.17h9.84v1.18M306.74 281.16h-4.88v-.26c1.3-.07 1.68-.44 1.68-1.42v-7.93c0-.6-.16-.86-.53-.86-.17 0-.47.07-.8.2l-.46.17v-.24l3.16-1.6.16.04v10.55c0 .76.35 1.08 1.68 1.08v.26"
       id="path40" />
    <path
       d="M160.45 140h64.1v28.75h-64.1z"
       fill="#fff"
       fill-opacity="0"
       id="path42" />
    <path
       d="M171.12 156.66l.3.33c-.07.1-1.84 2.8-5.18 2.8-2.45 0-4.9-1.38-4.9-4.78 0-4.6 3.5-8.35 7.4-9.22.5-.1.97-.16 1.4-.16 1.5 0 2.47.72 2.47 1.95 0 .65-.63 1.75-1.54 1.75-.77 0-1.16-.52-1.16-1.08 0-1.06 1.03-.87 1.03-1.43 0-.3-.56-.48-1-.48-2.15 0-4.4 1.56-5.55 4.44-.48 1.2-.8 2.6-.8 4.32 0 2.66 1.52 3.78 3.35 3.78 2.1 0 3.86-1.9 4.2-2.24M184.78 167.72v.68c-3.23-3.05-5.53-7.8-5.53-14 0-6.1 2.3-10.97 5.53-14.02v.68c-2.05 2.5-3.7 6.42-3.7 13.33 0 6.96 1.65 10.8 3.7 13.32M201.04 159.56h-6.68v-.52l.66-.06c.7-.06.96-.23.96-.7 0-.44-.25-1.17-.96-2.8h-4.66l-.27.7c-.26.64-.66 1.5-.66 2 0 .55.46.78 1.68.86v.52h-4.2v-.52c.97-.16 1.28-.54 2.07-2.5l4.57-11.3h.58l4.6 10.83c1.07 2.52 1.44 2.97 2.3 2.97v.52m-6.34-4.9l-2.08-5.04-1.95 5.04h4.04M211.07 142.14h-3.84v8.75h-.97v-8.76h-3.83v-.97h8.64v.97M215.84 141.06v-.68c3.23 3.05 5.53 7.8 5.53 14 0 6.1-2.3 10.97-5.53 14.02v-.68c2.05-2.5 3.7-6.43 3.7-13.33 0-6.98-1.65-10.83-3.7-13.34"
       id="path44" />
    <path
       d="M618.03 532.94h74.02v28.75h-74.02z"
       fill="#fff"
       fill-opacity="0"
       id="path46" />
    <path
       d="M631.95 549.9h.02c2.93-9.66 3.5-11.63 3.96-12.36.63-.96 1.4-1.54 2.37-1.54 1.02 0 1.8.77 1.8 1.75 0 .7-.37 1.24-1.1 1.24-1 0-.84-1.2-1.5-1.2-1.13 0-1.48 1.52-1.7 2.17L631.86 553h-.42c-1.95-2.66-3.84-5.8-5.35-9.88h-.04c-.75 3.6-2.18 10.15-5.38 10.15-1 0-1.8-.77-1.8-1.75 0-.7.37-1.24 1.1-1.24 1 0 .85 1.18 1.5 1.18 2.5 0 3.8-9.42 4.54-12.88h.56c1.6 4.04 3.2 8.5 5.4 11.33M652.27 560.66v.68c-3.23-3.05-5.53-7.8-5.53-14 0-6.1 2.3-10.97 5.53-14.02v.68c-2.05 2.5-3.7 6.42-3.7 13.33 0 6.97 1.65 10.82 3.7 13.33M668.53 552.5h-6.68v-.52l.67-.06c.68-.06.95-.23.95-.7 0-.44-.25-1.17-.95-2.8h-4.67l-.27.7c-.25.64-.65 1.5-.65 2 0 .55.46.78 1.7.86v.52h-4.2v-.52c.95-.16 1.26-.54 2.05-2.5l4.58-11.3h.6l4.6 10.83c1.05 2.52 1.42 2.98 2.27 2.98v.52m-6.32-4.9l-2.1-5.04-1.94 5.04h4.05M678.57 535.08h-3.85v8.75h-.97v-8.75h-3.83v-.97h8.65v.98M683.33 534v-.68c3.24 3.05 5.54 7.8 5.54 14 0 6.1-2.3 10.97-5.54 14.02v-.68c2.05-2.5 3.7-6.43 3.7-13.33 0-6.97-1.65-10.82-3.7-13.33"
       id="path48" />
    <path
       d="M763.62 133.13h50.06v26.24h-50.06z"
       fill="#fff"
       fill-opacity="0"
       id="path50" />
    <path
       d="m 750.75,148.9 0.3,0.34 c -0.1,0.12 -1.85,2.8 -5.2,2.8 -2.44,0 -4.9,-1.37 -4.9,-4.78 0,-4.6 3.5,-8.35 7.42,-9.22 0.5,-0.1 0.95,-0.17 1.4,-0.17 1.48,0 2.46,0.74 2.46,1.97 0,0.66 -0.64,1.76 -1.56,1.76 -0.76,0 -1.16,-0.52 -1.16,-1.08 0,-1.06 1.04,-0.87 1.04,-1.43 0,-0.3 -0.56,-0.48 -1,-0.48 -2.16,0 -4.4,1.56 -5.56,4.44 -0.48,1.2 -0.8,2.6 -0.8,4.32 0,2.65 1.53,3.77 3.35,3.77 2.1,0 3.85,-1.88 4.2,-2.24 m 12.88,9.87 v 0.6 c -2.94,-2.77 -5.04,-7.1 -5.04,-12.75 0,-5.54 2.1,-9.98 5.04,-12.76 v 0.6 c -1.87,2.3 -3.36,5.86 -3.36,12.15 0,6.35 1.5,9.86 3.37,12.14 m 16.07,-6.94 h -6.68 v -0.52 l 0.67,-0.06 c 0.68,-0.06 0.95,-0.23 0.95,-0.7 0,-0.44 -0.26,-1.17 -0.96,-2.8 h -4.67 l -0.27,0.7 c -0.25,0.64 -0.65,1.5 -0.65,2 0,0.55 0.46,0.78 1.7,0.86 v 0.52 h -4.2 v -0.52 c 0.95,-0.17 1.26,-0.54 2.05,-2.5 l 4.58,-11.3 h 0.58 l 4.6,10.83 c 1.07,2.5 1.44,2.97 2.3,2.97 v 0.52 m -6.34,-4.9 -2.1,-5.04 -1.94,5.04 h 4.04 m 8.83,-12.44 v -0.6 c 2.95,2.77 5.05,7.1 5.05,12.75 0,5.54 -2.1,9.98 -5.06,12.76 v -0.6 c 1.87,-2.3 3.37,-5.86 3.37,-12.15 0,-6.35 -1.5,-9.86 -3.36,-12.14"
       id="path52"
       inkscape:connector-curvature="0" />
    <path
       d="M141.47 185.34h16.98v25.68h-16.98z"
       fill="#fff"
       fill-opacity="0"
       id="path54" />
    <path
       d="M157.9 210.43h-8.18v-.8c1.08-.08 1.52-.28 1.52-.7 0-.4-.3-.98-1.1-2.16-.52-.72-1-1.43-1.44-2.14l-.54.68c-1.33 1.6-2.17 2.96-2.17 3.5 0 .5.46.75 1.68.82v.8h-5.73v-.8c1.25-.07 1.93-.6 3.83-3.16l1.46-1.9c.5-.64.24-.34.75-.95l-4.35-6.67c-.68-1.02-.9-1.2-1.77-1.32v-.8h8.48v.8c-1.12.04-1.6.24-1.6.65 0 .44.86 1.87 1.98 3.32l.44.58 1.22-1.56c.9-1.2 1.3-1.67 1.3-2.18 0-.5-.28-.68-1.06-.75l-.68-.06v-.8h5.7v.8c-1.06.18-1.73.55-2.38 1.33l-3.42 4.27 5.02 7.74c.23.37.47.5 1 .68v.8M153.92 191.6h-1.15l-4.14-3.5-4.1 3.5h-1.16l4.2-5.66h2.1"
       id="path56" />
    <path
       d="M540.83 401.9h15.32v19.94h-15.32z"
       fill="#fff"
       fill-opacity="0"
       id="path58" />
    <path
       d="M709.18 297.28h34.3v23.93h-34.3z"
       fill="#fff"
       fill-opacity="0"
       id="path62" />
    <path
       d="M80 480h432.65v97.95H80z"
       stroke="#e5e5e5"
       fill="#e5e5e5"
       id="path66" />
    <path
       d="M98.93 489.5h395.62v82.8H98.93z"
       fill-opacity="0"
       id="path68" />
    <path
       d="M198.78 335.54c-3.06 4.6-9.26 5.85-13.86 2.8-4.6-3.07-5.85-9.28-2.8-13.88 3.06-4.6 9.27-5.85 13.87-2.8 4.6 3.07 5.84 9.28 2.78 13.88z"
       stroke="#c92d39"
       fill="#ffbbb1"
       id="path72" />
    <path
       d="M200.32 324.57l1.27-2.85m1.68-3.8l.5-1.15 1.8-4.66m1.4-3.9l.85-2.6.94-3.4m.95-4.04l.13-.55.6-3.4.26-2.2m.35-4.16l.06-2.68-.06-2.8-.05-.76m-.43-4.14l-.07-.62-.5-2.78-.6-2.73m-1.16-4l-.68-2.04-1.24-3.2-.27-.6m-1.74-3.8l-1.38-2.75-1.56-2.74m-2.16-3.55l-1.52-2.4-1.97-2.77m-2.44-3.37l-1.92-2.45"
       stroke="#000"
       stroke-width="2"
       fill="none"
       id="path74" />
    <path
       d="M201.25 324.95l-.86 1.92-.54-1.55-.58-.86.14-.32z"
       id="path76" />
    <path
       d="M181.37 226.1l12.83 7.77-7.02 6.06z"
       stroke="#000"
       stroke-width="2"
       fill="#fff"
       id="path78" />
    <path
       d="M161.45 225.12l-1.33 2.17-.25.44m-1.9 3.6l-1 2.08-1.33 3.1-.15.4m-1.36 3.85l-.65 2.1-.83 3.22-.12.57m-.75 4l-.3 2-.34 3.34-.04.75m-.13 4.07v2.02l.16 3.48.06.6m.46 4.06l.37 2.45.72 3.56m1.02 3.94l1.08 3.53.83 2.27m1.52 3.8l.65 1.53 1.87 3.87.07.12m1.96 3.58l.1.2 2.43 3.95.7 1.02m2.32 3.35l1.85 2.44"
       stroke="#000"
       stroke-width="2"
       fill="none"
       id="path80" />
    <path
       d="M161.97 224.27l.73.73-.4.67-1.72-1.05.86-1.4z"
       id="path82" />
    <path
       d="M179.5 321.8l-13.07-7.33 6.8-6.3z"
       stroke="#000"
       stroke-width="2"
       fill="#fff"
       id="path84" />
    <path
       d="M701.88 318.06c-1.66 5.27-7.27 8.2-12.54 6.54-5.27-1.65-8.2-7.27-6.54-12.54 1.65-5.27 7.27-8.2 12.53-6.54 5.27 1.66 8.2 7.27 6.55 12.54zM641.64 484.88c0 5.53-4.48 10-10 10s-10-4.47-10-10c0-5.52 4.48-10 10-10s10 4.48 10 10zM575.87 384.5c3.04 4.6 1.77 10.8-2.85 13.85-4.6 3.04-10.8 1.77-13.85-2.85-3.04-4.6-1.77-10.8 2.85-13.85 4.6-3.04 10.8-1.77 13.85 2.85z"
       stroke="#83bbe5"
       fill="#b2d6ef"
       id="path86" />
    <path
       d="M578.14 383.7c0 .55-.44 1-1 1-.55 0-1-.45-1-1s.45-1 1-1c.56 0 1 .45 1 1zm3.4-2.05c0 .55-.46 1-1 1-.56 0-1-.45-1-1 0-.56.44-1 1-1 .54 0 1 .44 1 1zm3.38-2.06c0 .54-.45 1-1 1-.56 0-1-.46-1-1 0-.56.44-1 1-1 .55 0 1 .44 1 1zm3.38-2.06c0 .55-.45 1-1 1s-1-.45-1-1 .45-1 1-1 1 .45 1 1zm3.4-2.06c0 .56-.46 1-1 1-.57 0-1-.44-1-1 0-.55.43-1 1-1 .54 0 1 .45 1 1zm3.37-2.05c0 .55-.45 1-1 1s-1-.45-1-1 .45-1 1-1 1 .45 1 1zm3.4-2.05c0 .55-.46 1-1 1-.56 0-1-.45-1-1 0-.56.44-1 1-1 .54 0 1 .44 1 1zm3.37-2.06c0 .56-.44 1-1 1-.55 0-1-.44-1-1 0-.55.45-1 1-1 .56 0 1 .45 1 1zm3.4-2.05c0 .55-.46 1-1 1-.56 0-1-.45-1-1s.44-1 1-1c.54 0 1 .45 1 1zm3.37-2.05c0 .55-.43 1-1 1-.54 0-1-.45-1-1 0-.56.46-1 1-1 .57 0 1 .44 1 1zm3.4-2.06c0 .55-.45 1-1 1s-1-.45-1-1 .45-1 1-1 1 .45 1 1zm3.38-2.05c0 .56-.44 1-1 1-.55 0-1-.44-1-1 0-.54.45-1 1-1 .56 0 1 .46 1 1zm3.4-2.05c0 .56-.46 1-1 1-.56 0-1-.44-1-1 0-.55.44-1 1-1 .54 0 1 .45 1 1zm3.38-2.05c0 .55-.45 1-1 1-.56 0-1-.45-1-1s.44-1 1-1c.55 0 1 .45 1 1zm3.38-2.05c0 .55-.45 1-1 1s-1-.45-1-1c0-.56.45-1 1-1s1 .44 1 1zm3.4-2.06c0 .54-.46 1-1 1-.57 0-1-.46-1-1 0-.56.43-1 1-1 .54 0 1 .44 1 1zm3.37-2.06c0 .55-.44 1-1 1-.54 0-1-.45-1-1s.46-1 1-1c.56 0 1 .45 1 1zm3.4-2.06c0 .56-.45 1-1 1-.56 0-1-.44-1-1 0-.55.44-1 1-1 .55 0 1 .45 1 1zm3.38-2.05c0 .55-.45 1-1 1s-1-.45-1-1 .45-1 1-1 1 .45 1 1zm3.4-2.05c0 .55-.46 1-1 1-.56 0-1-.45-1-1 0-.56.44-1 1-1 .54 0 1 .44 1 1zm3.37-2.06c0 .56-.44 1-1 1-.55 0-1-.44-1-1 0-.55.45-1 1-1 .56 0 1 .45 1 1zm3.4-2.05c0 .55-.46 1-1 1-.56 0-1-.45-1-1s.44-1 1-1c.54 0 1 .45 1 1zm3.37-2.05c0 .55-.44 1-1 1-.55 0-1-.45-1-1 0-.56.45-1 1-1 .56 0 1 .44 1 1zm3.4-2.06c0 .55-.46 1-1 1-.56 0-1-.45-1-1s.44-1 1-1c.54 0 1 .45 1 1zm3.38-2.05c0 .56-.45 1-1 1-.56 0-1-.44-1-1 0-.54.44-1 1-1 .55 0 1 .46 1 1zm3.38-2.05c0 .56-.45 1-1 1s-1-.44-1-1c0-.55.45-1 1-1s1 .45 1 1zm3.4-2.05c0 .55-.46 1-1 1-.57 0-1-.45-1-1s.43-1 1-1c.54 0 1 .45 1 1zm3.37-2.05c0 .55-.45 1-1 1s-1-.45-1-1c0-.56.45-1 1-1s1 .44 1 1zm3.4-2.06c0 .55-.46 1-1 1-.57 0-1-.45-1-1 0-.56.43-1 1-1 .54 0 1 .44 1 1zm3.37-2.06c0 .55-.45 1-1 1s-1-.45-1-1 .45-1 1-1 1 .45 1 1zm3.4-2.05c0 .54-.46 1-1 1-.56 0-1-.46-1-1 0-.57.44-1 1-1 .54 0 1 .43 1 1z"
       id="path88" />
    <path
       d="M577.7 384.54l-1 .6-.4-.92-.67-.77 1.02-.62zM683.4 320.4l-.8.5-1.05-1.7.93-.58zM574.85 399.6c0 .56-.45 1-1 1s-1-.44-1-1c0-.54.45-1 1-1s1 .46 1 1zm2.18 3.35c0 .55-.45 1-1 1s-1-.45-1-1 .45-1 1-1 1 .45 1 1zm2.18 3.34c0 .54-.44 1-1 1-.54 0-1-.46-1-1 0-.57.46-1 1-1 .56 0 1 .43 1 1zm2.2 3.32c0 .56-.46 1-1 1-.57 0-1-.44-1-1 0-.55.43-1 1-1 .54 0 1 .45 1 1zm2.16 3.34c0 .56-.44 1-1 1-.55 0-1-.44-1-1 0-.55.45-1 1-1 .56 0 1 .45 1 1zm2.18 3.34c0 .55-.44 1-1 1-.55 0-1-.45-1-1s.45-1 1-1c.56 0 1 .45 1 1zm2.18 3.34c0 .55-.45 1-1 1s-1-.45-1-1 .45-1 1-1 1 .45 1 1zm2.18 3.34c0 .55-.45 1-1 1s-1-.45-1-1 .45-1 1-1 1 .45 1 1zm2.18 3.34c0 .55-.45 1-1 1s-1-.45-1-1c0-.56.45-1 1-1s1 .44 1 1zm2.18 3.34c0 .55-.45 1-1 1s-1-.45-1-1c0-.56.45-1 1-1s1 .44 1 1zm2.18 3.33c0 .55-.45 1-1 1-.56 0-1-.45-1-1 0-.56.44-1 1-1 .55 0 1 .44 1 1zm2.18 3.33c0 .55-.45 1-1 1-.56 0-1-.45-1-1s.44-1 1-1c.55 0 1 .45 1 1zm2.17 3.34c0 .55-.45 1-1 1-.56 0-1-.45-1-1s.44-1 1-1c.55 0 1 .45 1 1zm2.17 3.34c0 .56-.45 1-1 1s-1-.44-1-1c0-.54.45-1 1-1s1 .46 1 1zm2.18 3.35c0 .55-.45 1-1 1s-1-.45-1-1 .45-1 1-1 1 .45 1 1zm2.18 3.34c0 .54-.45 1-1 1s-1-.46-1-1c0-.57.45-1 1-1s1 .43 1 1zm2.18 3.33c0 .55-.44 1-1 1-.54 0-1-.45-1-1 0-.56.46-1 1-1 .56 0 1 .44 1 1zm2.2 3.33c0 .56-.46 1-1 1-.57 0-1-.44-1-1 0-.55.43-1 1-1 .54 0 1 .45 1 1zm2.17 3.34c0 .55-.45 1-1 1-.56 0-1-.45-1-1s.44-1 1-1c.55 0 1 .45 1 1zm2.17 3.34c0 .55-.44 1-1 1-.55 0-1-.45-1-1s.45-1 1-1c.56 0 1 .45 1 1zm2.18 3.34c0 .55-.44 1-1 1-.55 0-1-.45-1-1s.45-1 1-1c.56 0 1 .45 1 1zm2.18 3.34c0 .55-.45 1-1 1s-1-.45-1-1 .45-1 1-1 1 .45 1 1zm2.18 3.34c0 .55-.45 1-1 1s-1-.45-1-1c0-.56.45-1 1-1s1 .44 1 1z"
       id="path90" />
    <path
       d="M574.7 399.08l-1.67 1.1-.65-1 .92-.4.75-.7zM625.3 476.62l-1.1.84-.4.53-.7-1.08 1.68-1.1z"
       id="path92" />
    <path
       d="M650.66 474.92h40.83v23.93h-40.84z"
       fill="#fff"
       fill-opacity="0"
       id="path94" />
    <path
       d="M557.4 394.15l-9.83 2.72-51.72 15.24-15.16 3.5-13.5 2.5-12.63 1.78-12.12 1.2-11.82.7-11.65.16-11.6-.3-11.64-.8-11.73-1.3-11.9-1.83-12.15-2.38-12.45-3-12.84-3.66-13.3-4.4-13.83-5.24-14.47-6.18-15.2-7.27-16.1-8.52-17.07-10-18.27-11.74-8.58-6.03"
       stroke="#0c7cba"
       fill="none"
       id="path98" />
    <path
       d="M558.1 394.47l-.57.16-.27-.96.4-.12z"
       fill="#0c7cba"
       id="path100" />
    <path
       d="M200 336.4l24.9 2.26L210 359.3z"
       stroke="#0c7cba"
       fill="#fff"
       id="path102" />
    <path
       d="M170.8 342.66h17v23.6h-17z"
       fill="#fff"
       fill-opacity="0"
       id="path104" />
    <path
       d="M187.23 365.68h-8.18v-.8c1.1-.08 1.53-.28 1.53-.7 0-.4-.3-.97-1.12-2.16-.5-.7-1-1.43-1.43-2.14l-.54.68c-1.33 1.6-2.18 2.95-2.18 3.5 0 .5.47.74 1.7.8v.82h-5.74v-.8c1.26-.08 1.94-.62 3.84-3.17l1.45-1.9c.5-.63.24-.33.75-.94l-4.34-6.68c-.68-1.02-.88-1.2-1.77-1.32v-.82h8.5v.82c-1.12.03-1.6.23-1.6.64 0 .44.85 1.87 1.97 3.33.13.17.3.37.44.57l1.23-1.56c.92-1.2 1.3-1.66 1.3-2.17 0-.5-.28-.68-1.06-.75l-.68-.06v-.82h5.7v.82c-1.06.17-1.74.54-2.4 1.32l-3.4 4.27 5 7.74c.25.36.48.5 1.03.67v.8M182.78 343.26h1c-.73 2.58-1.7 3.6-3.58 3.6-.84 0-1.35-.14-2.74-.82-1.3-.6-1.56-.75-2.18-.75-.78 0-1.35.5-1.73 1.55h-.98c.5-2.2 1.73-3.42 3.43-3.42.74 0 1.56.2 2.37.6 1.46.75 1.94.96 2.6.96.8 0 1.24-.5 1.8-1.74"
       id="path106" />
    <path
       d="M380 396.55h40v28.16h-40z"
       fill="#fff"
       id="path108" />
    <path
       d="M401.1 424.2h-9.87v-.78l.98-.1c1.02-.08 1.42-.33 1.42-1 0-.67-.37-1.75-1.4-4.16h-6.9l-.4 1.04c-.36.95-.94 2.23-.94 2.97 0 .8.67 1.13 2.48 1.25v.77h-6.18v-.78c1.4-.24 1.86-.8 3.03-3.67l6.77-16.68h.86l6.8 15.97c1.55 3.7 2.1 4.38 3.36 4.38v.77m-9.35-7.24l-3.1-7.43-2.87 7.43h5.97M415.88 398.5h-5.67v12.9h-1.42v-12.9h-5.64v-1.43h12.74v1.43"
       id="path110" />
    <path
       d="M484.76 422.8h103v14.46h-103z"
       fill="#fff"
       fill-opacity="0"
       id="path112" />
    <g
       id="page1"
       transform="matrix(1.5066667,0,0,1.5066667,460.9586,322.7715)">
      <path
         inkscape:connector-curvature="0"
         d="m 68.682856,56.359133 c 0.148723,-0.347019 0.247871,-0.545315 1.834242,-0.545315 v -1.065844 c -0.842759,0.04957 -0.941908,0.04957 -1.958177,0.04957 -0.66925,0 -0.718824,0 -2.131686,-0.04957 v 1.065844 c 0.02479,0 1.189778,0 1.189778,0.322231 0,0.07436 -0.07436,0.223084 -0.09915,0.297445 l -2.900083,6.246337 -3.172743,-6.866013 h 1.363288 v -1.065844 c -0.594889,0.04957 -2.280409,0.04957 -2.974447,0.04957 -0.718824,0 -2.18126,0 -2.825724,-0.04957 v 1.065844 h 1.586372 l 4.585605,9.939608 c -0.123936,0.297445 -0.470954,1.016269 -0.59489,1.313714 -0.520528,1.115417 -1.313714,2.825724 -3.048807,2.825724 -0.09915,0 -0.396593,0 -0.669251,-0.148722 0.04957,-0.02479 0.793186,-0.322232 0.793186,-1.26414 0,-0.817973 -0.594889,-1.338501 -1.338501,-1.338501 -0.768399,0 -1.363288,0.520528 -1.363288,1.363288 0,1.164991 1.090631,2.206048 2.577854,2.206048 2.032538,0 3.371039,-1.834242 3.86678,-2.924873 z"
         id="use5" />
    </g>
    <g
       id="page1-2"
       transform="matrix(1.2204,0,0,1.2204,637.33849,229.25524)">
      <path
         inkscape:connector-curvature="0"
         d="m 63.957908,53.809275 -3.048807,3.371039 0.297444,0.297445 2.751363,-2.677002 2.751363,2.677002 0.297445,-0.297445 z"
         id="use6" />
      <path
         inkscape:connector-curvature="0"
         d="m 68.682856,61.963037 c 0.148723,-0.347019 0.247871,-0.545315 1.834242,-0.545315 v -1.065844 c -0.842759,0.04957 -0.941908,0.04957 -1.958177,0.04957 -0.66925,0 -0.718824,0 -2.131686,-0.04957 v 1.065844 c 0.02479,0 1.189778,0 1.189778,0.322231 0,0.07436 -0.07436,0.223084 -0.09915,0.297445 l -2.900083,6.246337 -3.172743,-6.866013 h 1.363288 v -1.065844 c -0.594889,0.04957 -2.280409,0.04957 -2.974447,0.04957 -0.718824,0 -2.18126,0 -2.825724,-0.04957 v 1.065844 h 1.586372 l 4.585605,9.939608 c -0.123936,0.297445 -0.470954,1.016269 -0.59489,1.313714 -0.520528,1.115417 -1.313714,2.825724 -3.048807,2.825724 -0.09915,0 -0.396593,0 -0.669251,-0.148722 0.04957,-0.02479 0.793186,-0.322232 0.793186,-1.26414 0,-0.817973 -0.594889,-1.338501 -1.338501,-1.338501 -0.768399,0 -1.363288,0.520528 -1.363288,1.363288 0,1.164991 1.090631,2.206048 2.577854,2.206048 2.032538,0 3.371039,-1.834242 3.86678,-2.924873 z"
         id="use8" />
    </g>
    <g
       id="page1-22"
       transform="matrix(1.2204,0,0,1.2204,576.50765,425.96788)">
      <path
         inkscape:connector-curvature="0"
         d="m 68.682856,56.359133 c 0.148723,-0.347019 0.247871,-0.545315 1.834242,-0.545315 v -1.065844 c -0.842759,0.04957 -0.941908,0.04957 -1.958177,0.04957 -0.66925,0 -0.718824,0 -2.131686,-0.04957 v 1.065844 c 0.02479,0 1.189778,0 1.189778,0.322231 0,0.07436 -0.07436,0.223084 -0.09915,0.297445 l -2.900083,6.246337 -3.172743,-6.866013 h 1.363288 v -1.065844 c -0.594889,0.04957 -2.280409,0.04957 -2.974447,0.04957 -0.718824,0 -2.18126,0 -2.825724,-0.04957 v 1.065844 h 1.586372 l 4.585605,9.939608 c -0.123936,0.297445 -0.470954,1.016269 -0.59489,1.313714 -0.520528,1.115417 -1.313714,2.825724 -3.048807,2.825724 -0.09915,0 -0.396593,0 -0.669251,-0.148722 0.04957,-0.02479 0.793186,-0.322232 0.793186,-1.26414 0,-0.817973 -0.594889,-1.338501 -1.338501,-1.338501 -0.768399,0 -1.363288,0.520528 -1.363288,1.363288 0,1.164991 1.090631,2.206048 2.577854,2.206048 2.032538,0 3.371039,-1.834242 3.86678,-2.924873 z"
         id="use7" />
      <path
         inkscape:connector-curvature="0"
         d="m 75.387056,63.417339 c 0.04133,-0.123975 0.557888,-1.157101 1.322402,-1.818302 0.537225,-0.4959 1.239751,-0.8265 2.045589,-0.8265 0.826501,0 1.115776,0.619875 1.115776,1.446376 0,1.177764 -0.847163,3.533291 -1.260413,4.649067 -0.185963,0.495901 -0.289276,0.764514 -0.289276,1.136439 0,0.929813 0.640538,1.673664 1.632339,1.673664 1.921615,0 2.644803,-3.03739 2.644803,-3.161366 0,-0.103312 -0.08265,-0.185962 -0.206625,-0.185962 -0.185963,0 -0.206625,0.06199 -0.309938,0.41325 -0.475238,1.694327 -1.260414,2.520828 -2.066252,2.520828 -0.206625,0 -0.537226,-0.02066 -0.537226,-0.681863 0,-0.516563 0.227288,-1.136439 0.351263,-1.425714 0.413251,-1.136439 1.281077,-3.450641 1.281077,-4.628405 0,-1.239751 -0.723189,-2.169565 -2.29354,-2.169565 -1.838965,0 -2.810103,1.301739 -3.182028,1.818302 -0.06199,-1.177764 -0.909151,-1.818302 -1.818302,-1.818302 -0.661201,0 -1.115776,0.392588 -1.467039,1.095114 -0.371926,0.743851 -0.661201,1.983602 -0.661201,2.066252 0,0.08265 0.08265,0.185963 0.227288,0.185963 0.1653,0 0.185962,-0.02066 0.309938,-0.495901 0.3306,-1.260414 0.702525,-2.438177 1.529026,-2.438177 0.475238,0 0.640538,0.3306 0.640538,0.950476 0,0.454575 -0.206625,1.260413 -0.351263,1.900952 l -0.57855,2.231552 c -0.08265,0.392588 -0.309938,1.322401 -0.413251,1.694327 -0.144637,0.537225 -0.371925,1.508364 -0.371925,1.611676 0,0.289275 0.227288,0.516563 0.537226,0.516563 0.24795,0 0.537225,-0.123975 0.702525,-0.433913 0.04133,-0.103312 0.227288,-0.826501 0.330601,-1.239751 l 0.454575,-1.859627 z"
         id="use9" />
      <path
         inkscape:connector-curvature="0"
         d="m 87.918552,65.338954 c 0.351263,0.06199 0.909151,0.185962 1.033126,0.206625 0.268613,0.08265 1.198426,0.41325 1.198426,1.405051 0,0.640539 -0.578551,2.314203 -2.975403,2.314203 -0.433913,0 -1.983602,-0.06199 -2.396852,-1.198426 0.8265,0.103312 1.239751,-0.537226 1.239751,-0.991801 0,-0.433913 -0.289275,-0.661201 -0.702526,-0.661201 -0.454575,0 -1.053788,0.351263 -1.053788,1.281076 0,1.219089 1.239751,1.983602 2.892753,1.983602 3.140703,0 4.070516,-2.314202 4.070516,-3.388653 0,-0.309938 0,-0.888489 -0.661201,-1.549689 -0.516563,-0.495901 -1.012463,-0.599213 -2.128239,-0.826501 -0.557888,-0.123975 -1.446377,-0.309938 -1.446377,-1.239751 0,-0.413251 0.371926,-1.900952 2.334865,-1.900952 0.867826,0 1.714989,0.3306 1.921615,1.074451 -0.909151,0 -0.950476,0.785176 -0.950476,0.805838 0,0.433913 0.392588,0.557888 0.57855,0.557888 0.289276,0 0.867826,-0.227288 0.867826,-1.095113 0,-0.867825 -0.785176,-1.756315 -2.396852,-1.756315 -2.706791,0 -3.429979,2.12824 -3.429979,2.975403 0,1.570352 1.529027,1.900952 2.004265,2.004265 z"
         id="use11" />
    </g>
    <g
       id="page1-3"
       transform="matrix(1.8230667,0,0,1.8230667,-4.8068237,384.71073)">
      <path
         style="stroke-width:1.19961405"
         id="use16"
         d="m 63.764266,70.096836 -3.048807,3.371039 0.297444,0.297446 2.751363,-2.677003 2.751362,2.677003 0.297445,-0.297446 z"
         inkscape:connector-curvature="0" />
      <path
         inkscape:connector-curvature="0"
         d="M 64.766502,81.522488 67.6418,78.22581 c 0.272658,-0.322232 0.495741,-0.520528 2.553067,-0.520528 v -1.065844 c -1.388075,0.04957 -1.437649,0.04957 -2.280409,0.04957 -0.718825,0 -1.784668,0 -2.478706,-0.04957 v 1.065844 c 0.470954,0 0.991483,0.123935 0.991483,0.297444 0,0.04957 -0.123936,0.223084 -0.17351,0.272658 l -2.156473,2.429131 -2.453919,-2.999233 h 1.041057 v -1.065844 c -0.570103,0.04957 -2.255622,0.04957 -2.924873,0.04957 -0.743611,0 -2.082112,0 -2.77615,-0.04957 v 1.065844 h 1.759881 l 3.86678,4.70954 -3.222317,3.643697 c -0.297444,0.347018 -0.470954,0.520528 -2.528279,0.520528 v 1.065843 c 1.487223,-0.04957 1.536797,-0.04957 2.305196,-0.04957 0.718824,0 1.759881,0 2.453918,0.04957 v -1.065843 c -0.470954,0 -0.991482,-0.123936 -0.991482,-0.297445 0,-0.02479 0,-0.04957 0.173509,-0.24787 l 2.478706,-2.800938 2.751363,3.346253 h -1.041057 v 1.065843 c 0.59489,-0.04957 2.255622,-0.04957 2.94966,-0.04957 0.743611,0 2.057325,0 2.751363,0.04957 v -1.065843 h -1.735094 z"
         id="use18" />
      <path
         style="stroke-width:1.19961405"
         id="use20"
         d="m 93.953912,79.688247 c 0.371806,0 0.743612,0 0.743612,-0.42138 0,-0.446166 -0.42138,-0.446166 -0.84276,-0.446166 H 79.998803 c -0.42138,0 -0.84276,0 -0.84276,0.446166 0,0.42138 0.371806,0.42138 0.743612,0.42138 z m -0.09915,4.412094 c 0.42138,0 0.84276,0 0.84276,-0.446166 0,-0.42138 -0.371806,-0.42138 -0.743612,-0.42138 H 79.899655 c -0.371806,0 -0.743612,0 -0.743612,0.42138 0,0.446166 0.42138,0.446166 0.84276,0.446166 z"
         inkscape:connector-curvature="0" />
      <path
         inkscape:connector-curvature="0"
         d="m 115.50907,103.45878 c 0.0496,0.0248 0.27266,0.27266 0.29744,0.27266 h 0.54532 c 0.0744,0 0.27266,-0.0248 0.27266,-0.24787 0,-0.0991 -0.0496,-0.14872 -0.0991,-0.22308 -0.89234,-0.89234 -2.23084,-2.25562 -3.76763,-4.982199 -2.67701,-4.759114 -3.66849,-10.881516 -3.66849,-16.830409 0,-11.005452 3.12317,-17.474873 7.46091,-21.862181 0.0744,-0.07436 0.0744,-0.148722 0.0744,-0.198297 0,-0.24787 -0.17351,-0.24787 -0.47096,-0.24787 -0.32223,0 -0.3718,0 -0.59489,0.198296 -2.35477,2.032539 -5.00698,5.477939 -6.71729,10.708007 -1.06584,3.271891 -1.63594,7.262607 -1.63594,11.377258 0,5.874532 1.06584,12.517462 4.95741,18.268058 0.66925,0.966697 1.58637,1.982967 1.58637,2.007747 0.24787,0.29745 0.59489,0.69404 0.79318,0.86755 z"
         id="use22" />
      <path
         inkscape:connector-curvature="0"
         d="m 128.89963,70.864055 c -0.17351,-0.446167 -0.22309,-0.570102 -0.81797,-0.570102 -0.61968,0 -0.66926,0.123935 -0.84276,0.570102 l -6.14719,15.120102 c -0.17351,0.396593 -0.17351,0.446167 -0.86755,0.520529 -0.61968,0.07436 -0.71883,0.07436 -1.26414,0.07436 h -0.44617 v 1.065843 c 0.64447,-0.04957 2.13169,-0.04957 2.85051,-0.04957 0.66925,0 2.47871,0 3.04881,0.04957 v -1.065843 c -0.54531,0 -1.48722,0 -2.18126,-0.272658 0.0744,-0.223083 0.0744,-0.272657 0.12394,-0.371806 l 1.31371,-3.222317 h 6.64293 l 1.56158,3.866781 h -2.32998 v 1.065843 c 0.79319,-0.04957 3.19753,-0.04957 4.13944,-0.04957 0.79318,0 3.32146,0 3.94114,0.04957 v -1.065843 h -2.35477 z m -1.90861,3.643697 2.8753,7.138671 h -5.77538 z"
         id="use24" />
      <path
         inkscape:connector-curvature="0"
         d="m 147.05568,64.434452 h 5.76484 c 0.35126,0 0.72319,0 0.72319,-0.413251 0,-0.413251 -0.37193,-0.41325 -0.72319,-0.41325 h -12.33553 c -0.30993,0 -0.74385,0 -0.74385,0.41325 0,0.41325 0.43392,0.413251 0.74385,0.413251 h 5.74419 v 12.232212 c 0,0.309938 0,0.743851 0.41325,0.743851 0.41325,0 0.41325,-0.371925 0.41325,-0.743851 z"
         id="use26" />
      <path
         inkscape:connector-curvature="0"
         d="m 166.52621,70.864055 c -0.17351,-0.446167 -0.22309,-0.570102 -0.81798,-0.570102 -0.61967,0 -0.66925,0.123935 -0.84276,0.570102 l -6.14718,15.120102 c -0.17351,0.396593 -0.17351,0.446167 -0.86755,0.520529 -0.61968,0.07436 -0.71883,0.07436 -1.26414,0.07436 h -0.44617 v 1.065843 c 0.64446,-0.04957 2.13169,-0.04957 2.85051,-0.04957 0.66925,0 2.47871,0 3.04881,0.04957 v -1.065843 c -0.54531,0 -1.48722,0 -2.18126,-0.272658 0.0744,-0.223083 0.0744,-0.272657 0.12393,-0.371806 l 1.31372,-3.222317 h 6.64293 l 1.56158,3.866781 h -2.32998 v 1.065843 c 0.79319,-0.04957 3.19753,-0.04957 4.13944,-0.04957 0.79318,0 3.32146,0 3.94114,0.04957 v -1.065843 h -2.35477 z m -1.90861,3.643697 2.8753,7.138671 h -5.77538 z"
         id="use28" />
      <path
         inkscape:connector-curvature="0"
         d="m 186.54269,81.423095 c 0,-7.113884 -1.66073,-14.673936 -6.54378,-20.251023 -0.34702,-0.396593 -1.26414,-1.363288 -1.85903,-1.883816 -0.17351,-0.148722 -0.22308,-0.148722 -0.54531,-0.148722 -0.24788,0 -0.47096,0 -0.47096,0.24787 0,0.09915 0.0991,0.198297 0.14872,0.247871 0.84276,0.867547 2.18126,2.230835 3.71806,4.957411 2.677,4.759114 3.66849,10.881516 3.66849,16.830409 0,10.757581 -2.97445,17.32615 -7.43612,21.862185 -0.0496,0.0496 -0.0991,0.12393 -0.0991,0.19829 0,0.24787 0.22308,0.24787 0.47096,0.24787 0.32223,0 0.3718,0 0.59488,-0.19829 2.35477,-2.03254 5.00699,-5.477942 6.7173,-10.708011 1.09063,-3.395826 1.63594,-7.411328 1.63594,-11.402044 z"
         id="use30" />
      <path
         inkscape:connector-curvature="0"
         d="m 204.6513,62.365158 c 0.35126,0 0.72319,0 0.72319,-0.41325 0,-0.41325 -0.37193,-0.413251 -0.72319,-0.413251 h -11.17842 c -0.35127,0 -0.72319,0 -0.72319,0.413251 0,0.413251 0.37192,0.41325 0.72319,0.41325 z"
         id="use32" />
      <path
         inkscape:connector-curvature="0"
         d="m 212.60184,53.914187 c 0,-0.433913 -0.0207,-0.454575 -0.30994,-0.454575 -0.80584,0.971138 -2.02493,1.281076 -3.18203,1.322401 -0.062,0 -0.1653,0 -0.18596,0.04133 -0.0207,0.04133 -0.0207,0.08265 -0.0207,0.516563 0.64053,0 1.71499,-0.123975 2.54149,-0.619876 v 10.889149 c 0,0.723188 -0.0413,0.971138 -1.81831,0.971138 h -0.61987 v 0.537221 c 0.9918,-0.02066 2.02493,-0.04133 3.01673,-0.04133 0.9918,0 2.02492,0.02066 3.01672,0.04133 v -0.537226 h -0.61987 c -1.77698,0 -1.8183,-0.227287 -1.8183,-0.971138 z"
         id="use34" />
      <path
         inkscape:connector-curvature="0"
         d="m 232.56356,70.864055 c -0.17351,-0.446167 -0.22308,-0.570102 -0.81797,-0.570102 -0.61968,0 -0.66925,0.123935 -0.84276,0.570102 l -6.14719,15.120102 c -0.17351,0.396593 -0.17351,0.446167 -0.86755,0.520529 -0.61967,0.07436 -0.71882,0.07436 -1.26414,0.07436 h -0.44616 v 1.065843 c 0.64446,-0.04957 2.13168,-0.04957 2.85051,-0.04957 0.66925,0 2.4787,0 3.0488,0.04957 v -1.065843 c -0.54531,0 -1.48722,0 -2.18126,-0.272658 0.0744,-0.223083 0.0744,-0.272657 0.12394,-0.371806 l 1.31371,-3.222317 h 6.64293 l 1.56159,3.866781 h -2.32999 v 1.065843 c 0.79319,-0.04957 3.19753,-0.04957 4.13944,-0.04957 0.79319,0 3.32147,0 3.94114,0.04957 v -1.065843 h -2.35477 z m -1.9086,3.643697 2.8753,7.138671 h -5.77539 z"
         id="use36" />
      <path
         inkscape:connector-curvature="0"
         d="m 250.7196,64.434452 h 5.76484 c 0.35127,0 0.72319,0 0.72319,-0.413251 0,-0.413251 -0.37192,-0.41325 -0.72319,-0.41325 h -12.33552 c -0.30994,0 -0.74385,0 -0.74385,0.41325 0,0.41325 0.43391,0.413251 0.74385,0.413251 h 5.74418 v 12.232212 c 0,0.309938 0,0.743851 0.41325,0.743851 0.41325,0 0.41325,-0.371925 0.41325,-0.743851 z"
         id="use38" />
      <path
         inkscape:connector-curvature="0"
         d="m 271.10724,78.250597 c 0.14872,-0.347019 0.24787,-0.545315 1.83424,-0.545315 v -1.065844 c -0.84276,0.04957 -0.94191,0.04957 -1.95818,0.04957 -0.66925,0 -0.71882,0 -2.13168,-0.04957 v 1.065844 c 0.0248,0 1.18977,0 1.18977,0.322231 0,0.07436 -0.0744,0.223084 -0.0991,0.297445 l -2.90008,6.246337 -3.17274,-6.866013 h 1.36329 v -1.065844 c -0.59489,0.04957 -2.28041,0.04957 -2.97445,0.04957 -0.71882,0 -2.18126,0 -2.82572,-0.04957 v 1.065844 h 1.58637 l 4.5856,9.939608 c -0.12393,0.297445 -0.47095,1.016269 -0.59489,1.313714 -0.52053,1.115417 -1.31371,2.825724 -3.0488,2.825724 -0.0992,0 -0.3966,0 -0.66926,-0.148722 0.0496,-0.02479 0.79319,-0.322232 0.79319,-1.26414 0,-0.817973 -0.59489,-1.338501 -1.3385,-1.338501 -0.7684,0 -1.36329,0.520528 -1.36329,1.363288 0,1.164991 1.09063,2.206048 2.57786,2.206048 2.03253,0 3.37103,-1.834242 3.86678,-2.924873 z"
         id="use40" />
    </g>
  </g>
</svg>
