<?xml version="1.0" encoding="UTF-8" standalone="no"?>
<svg
   xmlns:lucid="lucid"
   xmlns:dc="http://purl.org/dc/elements/1.1/"
   xmlns:cc="http://creativecommons.org/ns#"
   xmlns:rdf="http://www.w3.org/1999/02/22-rdf-syntax-ns#"
   xmlns:svg="http://www.w3.org/2000/svg"
   xmlns="http://www.w3.org/2000/svg"
   xmlns:xlink="http://www.w3.org/1999/xlink"
   xmlns:sodipodi="http://sodipodi.sourceforge.net/DTD/sodipodi-0.dtd"
   xmlns:inkscape="http://www.inkscape.org/namespaces/inkscape"
   width="570"
   height="268"
   version="1.1"
   id="svg168"
   sodipodi:docname="real_number.svg"
   inkscape:version="0.92.3 (2405546, 2018-03-11)"
   inkscape:export-filename="/media/home/sb/Documents/work/website/siva82kb.github.io/figs/real_number.svg.png"
   inkscape:export-xdpi="300"
   inkscape:export-ydpi="300">
  <metadata
     id="metadata174">
    <rdf:RDF>
      <cc:Work
         rdf:about="">
        <dc:format>image/svg+xml</dc:format>
        <dc:type
           rdf:resource="http://purl.org/dc/dcmitype/StillImage" />
      </cc:Work>
    </rdf:RDF>
  </metadata>
  <defs
     id="defs172" />
  <sodipodi:namedview
     pagecolor="#ffffff"
     bordercolor="#666666"
     borderopacity="1"
     objecttolerance="10"
     gridtolerance="10"
     guidetolerance="10"
     inkscape:pageopacity="0"
     inkscape:pageshadow="2"
     inkscape:window-width="1871"
     inkscape:window-height="1025"
     id="namedview170"
     showgrid="false"
     inkscape:zoom="1.2"
     inkscape:cx="87.125747"
     inkscape:cy="94.191768"
     inkscape:window-x="49"
     inkscape:window-y="27"
     inkscape:window-maximized="1"
     inkscape:current-layer="svg168" />
  <g
     transform="translate(0 -27)"
     lucid:page-tab-id="0_0"
     id="g166">
    <path
       d="M0 0h580v227.53H0z"
       stroke="#000"
       stroke-opacity="0"
       stroke-width="2"
       fill="#fff"
       fill-opacity="0"
       id="path2" />
    <use
       xlink:href="#a"
       transform="matrix(1,0,0,1,5,5) translate(0 148.075)"
       id="use4" />
    <path
       d="M468.05 63.77h240v68.46h-240z"
       stroke="#000"
       stroke-opacity="0"
       stroke-width="2"
       fill="#fff"
       fill-opacity="0"
       id="path6" />
    <use
       xlink:href="#b"
       transform="matrix(1,0,0,1,473.0472440944882,68.76666666666665) translate(0 67)"
       id="use8" />
    <use
       xlink:href="#c"
       transform="matrix(1,0,0,1,473.0472440944882,68.76666666666665) translate(27.066666666666666 67)"
       id="use10" />
    <use
       xlink:href="#d"
       transform="matrix(1,0,0,1,473.0472440944882,68.76666666666665) translate(54.13333333333333 67)"
       id="use12" />
    <path
       style="fill:none"
       inkscape:connector-curvature="0"
       id="path14"
       d="m 264.7,160 v 80 H 19.04 v -80 z" />
    <path
       style="fill:none;stroke:#999999;stroke-width:2"
       inkscape:connector-curvature="0"
       id="path16"
       d="m 19.05,160 c 0,8.48 6.87,15.35 15.35,15.35 h 92.1 c 8.5,0 15.37,6.88 15.37,15.35 0,-8.47 6.87,-15.35 15.35,-15.35 h 92.1 c 8.5,0 15.37,-6.87 15.37,-15.35" />
    <path
       d="M21.87 180h240v110.4h-240z"
       stroke="#000"
       stroke-opacity="0"
       stroke-width="2"
       fill="#fff"
       fill-opacity="0"
       id="path20" />
    <use
       xlink:href="#e"
       transform="matrix(1,0,0,1,26.866361297823687,185) translate(51.07999999999999 40.199999999999996)"
       id="use22" />
    <use
       xlink:href="#f"
       transform="matrix(1,0,0,1,26.866361297823687,185) translate(76.5 90.39999999999999)"
       id="use24" />
    <path
       style="fill:none"
       inkscape:connector-curvature="0"
       id="path26"
       d="m 560,160 v 80 H 314.36 v -80 z" />
    <path
       style="fill:none;stroke:#999999;stroke-width:2"
       inkscape:connector-curvature="0"
       id="path28"
       d="m 314.36,160 c 0,8.48 6.88,15.35 15.35,15.35 h 92.13 c 8.48,0 15.35,6.88 15.35,15.35 0,-8.47 6.87,-15.35 15.35,-15.35 h 92.12 c 8.48,0 15.35,-6.87 15.35,-15.35" />
    <path
       d="M317.18 180h240v110.4h-240z"
       stroke="#000"
       stroke-opacity="0"
       stroke-width="2"
       fill="#fff"
       fill-opacity="0"
       id="path32" />
    <use
       xlink:href="#g"
       transform="matrix(1,0,0,1,322.1808827966646,185) translate(25.78 40.199999999999996)"
       id="use34" />
    <use
       xlink:href="#f"
       transform="matrix(1,0,0,1,322.1808827966646,185) translate(76.5 90.39999999999999)"
       id="use36" />
    <path
       d="M170 20h240v60H170z"
       stroke="#000"
       stroke-opacity="0"
       stroke-width="2"
       fill="#fff"
       fill-opacity="0"
       id="path38" />
    <use
       xlink:href="#h"
       transform="matrix(1,0,0,1,175,24.999999999999993) translate(15.800000000000011 40.199999999999996)"
       id="use40" />
    <use
       xlink:href="#i"
       transform="matrix(1,0,0,1,175,24.999999999999993) translate(122.04 40.199999999999996)"
       id="use42" />
    <path
       d="M290.05 81l1.7 33.68"
       stroke="#999"
       stroke-width="2"
       fill="none"
       id="path44" />
    <path
       d="M291.05 80.97l-2 .1L289 80h2z"
       fill="#999"
       id="path46" />
    <path
       d="M292.5 129.93l-5.34-14.02 9.26-.45z"
       stroke="#999"
       stroke-width="2"
       fill="#999"
       id="path48" />
    <defs
       id="defs164">
      <path
         d="M126 0v-62h159v-548l-145 98-36-53 214-145h42v648h154V0H126"
         id="j" />
      <path
         d="M311-720c168 6 237 159 235 351 1 148-41 268-120 332C388-7 346 8 297 8 118 1 53-138 54-342c-1-147 43-267 122-331 39-31 84-47 135-47zM129-342c0 159 36 272 168 281 53 0 92-27 127-77 58-83 61-350 5-442-61-100-195-92-250 9-33 54-50 130-50 229"
         id="k" />
      <path
         d="M143-46c0 31-22 55-54 54-31 1-55-24-54-54-1-30 23-55 54-54 32-1 54 23 54 54"
         id="l" />
      <g
         id="a">
        <use
           transform="matrix(0.06666666666666667,0,0,0.06666666666666667,0,0)"
           xlink:href="#j"
           id="use53" />
        <use
           transform="matrix(0.06666666666666667,0,0,0.06666666666666667,40,0)"
           xlink:href="#k"
           id="use55" />
        <use
           transform="matrix(0.06666666666666667,0,0,0.06666666666666667,80,0)"
           xlink:href="#j"
           id="use57" />
        <use
           transform="matrix(0.06666666666666667,0,0,0.06666666666666667,120,0)"
           xlink:href="#j"
           id="use59" />
        <use
           transform="matrix(0.06666666666666667,0,0,0.06666666666666667,160,0)"
           xlink:href="#k"
           id="use61" />
        <use
           transform="matrix(0.06666666666666667,0,0,0.06666666666666667,200,0)"
           xlink:href="#k"
           id="use63" />
        <use
           transform="matrix(0.06666666666666667,0,0,0.06666666666666667,240,0)"
           xlink:href="#j"
           id="use65" />
        <use
           transform="matrix(0.10666666666666667,0,0,0.10666666666666667,280,0)"
           xlink:href="#l"
           id="use67" />
        <use
           transform="matrix(0.06666666666666667,0,0,0.06666666666666667,298.9866666666667,0)"
           xlink:href="#k"
           id="use69" />
        <use
           transform="matrix(0.06666666666666667,0,0,0.06666666666666667,338.9866666666667,0)"
           xlink:href="#j"
           id="use71" />
        <use
           transform="matrix(0.06666666666666667,0,0,0.06666666666666667,378.9866666666667,0)"
           xlink:href="#k"
           id="use73" />
        <use
           transform="matrix(0.06666666666666667,0,0,0.06666666666666667,418.9866666666667,0)"
           xlink:href="#j"
           id="use75" />
      </g>
      <use
         transform="matrix(0.06666666666666667,0,0,0.06666666666666667,0,0)"
         xlink:href="#l"
         id="b" />
      <use
         transform="matrix(0.06666666666666667,0,0,0.06666666666666667,0,0)"
         xlink:href="#l"
         id="c" />
      <use
         transform="matrix(0.06666666666666667,0,0,0.06666666666666667,0,0)"
         xlink:href="#l"
         id="d" />
      <path
         fill="#999"
         d="M82 0v-710h77V0H82"
         id="m" />
      <path
         fill="#999"
         d="M429-291c-1-87-22-147-103-147-96 0-130 76-156 177-16 64-23 151-23 261H75v-497h74l-6 170c28-99 89-179 201-179 111 0 159 85 158 206L500 0h-73"
         id="n" />
      <path
         fill="#999"
         d="M377-28C351-5 310 7 264 8 155 10 93-55 94-159l3-276H9v-62h89l1-104h73l-1 104h173v62H170l-3 271c0 65 33 107 101 106 39-1 60-8 85-28"
         id="o" />
      <path
         fill="#999"
         d="M304-59c64-2 111-29 140-72l46 42C445-24 382 8 299 8 146 9 51-88 53-242c4-154 87-264 237-264 149 0 220 112 197 283H128c3 106 67 164 176 164zm119-223c8-104-42-165-132-165-100 0-149 74-162 165h294"
         id="p" />
      <path
         fill="#999"
         d="M294-506c69-1 123 36 146 82l10-73h55v430c6 218-131 307-339 269-30-6-56-15-77-27l20-66c70 42 229 48 281-13 36-42 45-138 45-225C402-60 343-2 249-1 120 1 52-101 53-230c4-160 85-269 241-276zm139 217c1-90-49-151-137-151-112 5-164 88-167 204-1 96 42 168 131 168 115 0 170-100 173-221"
         id="q" />
      <path
         fill="#999"
         d="M143-320c28-115 78-190 203-184 8 1 16 2 22 5l-11 71c-86-18-135 16-169 98-27 68-40 178-40 330H76c0-166 0-332-1-497h73"
         id="r" />
      <g
         id="e">
        <use
           transform="matrix(0.04,0,0,0.04,0,0)"
           xlink:href="#m"
           id="use87" />
        <use
           transform="matrix(0.04,0,0,0.04,9.64,0)"
           xlink:href="#n"
           id="use89" />
        <use
           transform="matrix(0.04,0,0,0.04,32.480000000000004,0)"
           xlink:href="#o"
           id="use91" />
        <use
           transform="matrix(0.04,0,0,0.04,46.800000000000004,0)"
           xlink:href="#p"
           id="use93" />
        <use
           transform="matrix(0.04,0,0,0.04,68.2,0)"
           xlink:href="#q"
           id="use95" />
        <use
           transform="matrix(0.04,0,0,0.04,91.4,0)"
           xlink:href="#p"
           id="use97" />
        <use
           transform="matrix(0.04,0,0,0.04,112.8,0)"
           xlink:href="#r"
           id="use99" />
      </g>
      <path
         fill="#999"
         d="M284 8c-63 0-114-32-137-73 2 87 1 177 1 265H75v-697h74l-3 116c31-68 90-124 182-125 134 3 195 97 195 232C523-112 441 1 284 8zM147-215c-2 91 48 156 135 156 107 0 167-95 165-210 1-96-41-171-129-171-116 0-168 103-171 225"
         id="s" />
      <path
         fill="#999"
         d="M292-506c68-1 122 36 144 82l10-73h55V0h-74l3-117C398-50 339 6 248 8 114 5 53-90 53-225c0-162 81-275 239-281zm137 221c1-90-48-155-135-155-107 0-167 94-165 209-1 97 41 172 129 172 116 0 168-103 171-226"
         id="t" />
      <g
         id="f">
        <use
           transform="matrix(0.04,0,0,0.04,0,0)"
           xlink:href="#s"
           id="use104" />
        <use
           transform="matrix(0.04,0,0,0.04,23.04,0)"
           xlink:href="#t"
           id="use106" />
        <use
           transform="matrix(0.04,0,0,0.04,46.08,0)"
           xlink:href="#r"
           id="use108" />
        <use
           transform="matrix(0.04,0,0,0.04,62.279999999999994,0)"
           xlink:href="#o"
           id="use110" />
      </g>
      <path
         fill="#999"
         d="M473-644H158v261h306v66H158V0H82v-710h391v66"
         id="u" />
      <path
         fill="#999"
         d="M289-60c63-1 106-27 131-71l54 42C434-24 371 8 286 8 139 9 51-89 53-240c4-159 88-261 245-266 80 0 139 32 176 96l-56 42c-27-47-67-71-122-71-105-1-168 88-166 199-1 112 52 180 159 180"
         id="v" />
      <path
         fill="#999"
         d="M163-660c0 27-21 51-50 50-30 1-50-22-50-50 0-27 21-51 50-50 29-1 50 23 50 50zm-16 163V0H75v-497h72"
         id="w" />
      <path
         fill="#999"
         d="M53-240c4-155 86-261 239-266 141-1 224 102 222 247C509-105 431 5 278 8 135 11 51-93 53-240zm76 0c-1 108 48 180 149 181 102 0 163-91 160-200 1-106-47-181-145-181-111 0-161 86-164 200"
         id="x" />
      <path
         fill="#999"
         d="M279-17C262-2 228 8 197 8 117 10 76-40 75-116v-624h73v615c0 43 16 67 60 67 18 1 40-7 51-14"
         id="y" />
      <g
         id="g">
        <use
           transform="matrix(0.04,0,0,0.04,0,0)"
           xlink:href="#u"
           id="use118" />
        <use
           transform="matrix(0.04,0,0,0.04,19.16,0)"
           xlink:href="#r"
           id="use120" />
        <use
           transform="matrix(0.04,0,0,0.04,32.96,0)"
           xlink:href="#t"
           id="use122" />
        <use
           transform="matrix(0.04,0,0,0.04,56,0)"
           xlink:href="#v"
           id="use124" />
        <use
           transform="matrix(0.04,0,0,0.04,75.68,0)"
           xlink:href="#o"
           id="use126" />
        <use
           transform="matrix(0.04,0,0,0.04,90.4,0)"
           xlink:href="#w"
           id="use128" />
        <use
           transform="matrix(0.04,0,0,0.04,99.28,0)"
           xlink:href="#x"
           id="use130" />
        <use
           transform="matrix(0.04,0,0,0.04,121.96000000000001,0)"
           xlink:href="#n"
           id="use132" />
        <use
           transform="matrix(0.04,0,0,0.04,144.8,0)"
           xlink:href="#t"
           id="use134" />
        <use
           transform="matrix(0.04,0,0,0.04,167.84,0)"
           xlink:href="#y"
           id="use136" />
      </g>
      <path
         fill="#999"
         d="M472-87c22 32 90 33 122 10l17 60c-38 30-116 31-160 3-23-13-46-36-68-68L250-278c-19-27-44-50-92-44V0H82v-710h200c143-2 246 61 246 192 0 135-103 192-239 194 19 9 38 28 57 57 41 58 82 126 126 180zm-21-429c-2-94-68-130-175-130H158v262c144 4 297 7 293-132"
         id="z" />
      <path
         fill="#999"
         d="M292-506c63 0 114 30 138 71-4-98-1-203-2-305h73V0h-74l3-117C398-50 339 6 248 8 114 5 53-90 53-225c0-162 81-275 239-281zm137 221c1-90-48-155-135-155-107 0-167 94-165 209-1 97 41 172 129 172 116 0 168-103 171-226"
         id="A" />
      <path
         fill="#999"
         d="M95 0H11l184-251L19-497h89l132 185 134-185h84L281-254 462 0h-88L236-194"
         id="B" />
      <g
         id="h">
        <use
           transform="matrix(0.04,0,0,0.04,0,0)"
           xlink:href="#z"
           id="use142" />
        <use
           transform="matrix(0.04,0,0,0.04,23.080000000000002,0)"
           xlink:href="#t"
           id="use144" />
        <use
           transform="matrix(0.04,0,0,0.04,46.12,0)"
           xlink:href="#A"
           id="use146" />
        <use
           transform="matrix(0.04,0,0,0.04,69.16,0)"
           xlink:href="#w"
           id="use148" />
        <use
           transform="matrix(0.04,0,0,0.04,78.03999999999999,0)"
           xlink:href="#B"
           id="use150" />
      </g>
      <g
         id="i">
        <use
           transform="matrix(0.04,0,0,0.04,0,0)"
           xlink:href="#s"
           id="use153" />
        <use
           transform="matrix(0.04,0,0,0.04,23.04,0)"
           xlink:href="#x"
           id="use155" />
        <use
           transform="matrix(0.04,0,0,0.04,45.72,0)"
           xlink:href="#w"
           id="use157" />
        <use
           transform="matrix(0.04,0,0,0.04,54.6,0)"
           xlink:href="#n"
           id="use159" />
        <use
           transform="matrix(0.04,0,0,0.04,77.44,0)"
           xlink:href="#o"
           id="use161" />
      </g>
    </defs>
  </g>
</svg>
