<svg xmlns="http://www.w3.org/2000/svg" xmlns:lucid="lucid" width="836.88" height="576.61"><g lucid:page-tab-id="0_0"><path d="M0 0h836.88v576.6H0z" fill="#fff"/><path d="M216.55 38L354.7 278.95l-196.56 112.7L20 150.7z" stroke="#c92d39" stroke-width="4" fill-opacity="0"/><path d="M158 391.2l65.56 114.3-103.52 59.37-65.56-114.33z" stroke="#c92d39" stroke-width="4" fill-opacity="0"/><path d="M821.65 131.17L728.8 392.9l-213.53-75.73L608.1 55.43z" stroke="#0c7cba" stroke-width="4" fill-opacity="0"/><path d="M203.4 257.77c4.8 2.7 6.52 8.8 3.8 13.62-2.7 4.8-8.8 6.5-13.6 3.8-4.82-2.7-6.53-8.8-3.83-13.6 2.7-4.82 8.8-6.53 13.62-3.83z" stroke="#c92d39" fill="#ffbbb1"/><path d="M687.6 137.6l-9.14-5.52-9.65-5.28-9.74-4.82-9.87-4.37-10-3.93-10.18-3.52-10.35-3.1-10.55-2.7-10.8-2.27-11.04-1.85-11.35-1.4-11.67-.97-12.03-.48-12.42.02-12.86.57-13.34 1.14-13.87 1.8-14.45 2.46-15.07 3.24-15.75 4.08-16.5 5-17.32 6.08-18.2 7.25-19.13 8.57-20.14 10.05-21.22 11.72-22.36 13.6-23.56 15.73-24.8 18.1-26.1 20.76L224 244.98" stroke="#0c7cba" fill="none"/><path d="M688.34 137.46l-.62.8-.4-.24.53-.85z" fill="#0c7cba"/><path d="M207.6 259.67l7.53-23.84 16.98 18.96z" stroke="#0c7cba" fill="#fff"/><path d="M706.38 144.1c0 5.5-4.48 10-10 10s-10-4.5-10-10c0-5.54 4.48-10 10-10s10 4.46 10 10z" stroke="#0c7cba" fill="#b2d6ef"/><path d="M620 269.3c0 5.53-4.48 10-10 10-5.53 0-10-4.47-10-10 0-5.52 4.47-10 10-10 5.52 0 10 4.48 10 10z" stroke="#7ab648" fill="#a3d977"/><path d="M208.07 271.92l10.8 7.54 11.08 7.05 10.96 6.36 10.92 5.7 10.88 5.15 10.9 4.62 11 4.1 11.1 3.62 11.25 3.16 11.5 2.7 11.75 2.26 12.1 1.8 12.53 1.33 13.03.83 13.64.3 14.4-.3 15.27-.93 16.4-1.7 17.76-2.62 19.56-3.7 21.94-5.14 25.35-7.07 30.82-10 36.76-13.7" stroke="#c92d39" fill="none"/><path d="M208.37 271.52l-.58.82-.46-.3.3-.4.2-.5z" fill="#c92d39"/><path d="M600.27 275.22l-15.37 19.72-9.32-23.68z" stroke="#c92d39" fill="#fff"/><path d="M422.6 80.16h40v28.16h-40z" fill="#fff"/><path d="M443.7 107.8h-9.87v-.77l.98-.1c1.02-.08 1.42-.33 1.42-1 0-.67-.37-1.75-1.4-4.16h-6.9l-.4 1.04c-.36.96-.94 2.24-.94 2.98 0 .8.67 1.13 2.48 1.25v.77h-6.2v-.77c1.42-.24 1.88-.8 3.04-3.67l6.77-16.68h.86l6.8 15.97c1.55 3.7 2.1 4.38 3.36 4.38v.77m-9.35-7.23l-3.1-7.43-2.87 7.43h5.97M458.48 82.1h-5.67V95h-1.42V82.1h-5.65V80.7h12.75v1.43"/><path d="M40 17.95h73.82v40H40z" fill="#fff" fill-opacity="0"/><path d="M78.7 57.02H67.43L56.84 42.3h-4V57H43.8V21.04h17.4c6.95 0 12.93 2.88 12.93 10.65 0 4.77-2.5 8.4-7.12 9.83M66.7 24.2v15.37c3.16-1.3 5.06-4.4 5.06-7.77 0-3.7-1.8-6.14-5.06-7.6m-2.4 15.43V23.87c-.8-.1-1.9-.44-2.7-.44h-8.75V39.9h8.47c.98 0 2-.17 3-.27m9.72 15l-9.5-12.56c-1.6.27-3.22.22-4.8.22L68.7 54.6H74m-23.6 0v-31.2H46.2v31.2h4.23M107.67 31.8l-.2.28c-2.03 2.84-3.72 4.1-5.52 4.1-1 0-1.54-.6-1.54-1.76 0-.38.12-1.04.5-2.54l2.24-8.72c.2-.77.27-1.27.27-1.46 0-.46-.34-.8-.76-.8-1.16 0-3.12 1.8-5.04 4.5-1.88 2.64-2.65 4.52-4.15 10.44h-2.88l1.04-3.57c1.7-5.84 2.62-9.92 2.62-10.42 0-.6-.34-.96-.84-.96-1.3 0-3.58 2.22-5.73 5.5-1.3 2-1.84 3.37-3.7 9.44H81.1l1.65-5.53c1.54-5.1 2.12-8.3 2.12-8.75 0-.58-.54-.85-1.58-.85h-.96v-.6l6.23-1.2.12.07L86.42 27c3.42-5.57 6.1-8.1 8.45-8.1 1.54 0 2.3.92 2.3 2.3 0 .73-.5 2.88-1.53 5.84 2.7-4.26 4.27-6.18 6.15-7.38.9-.57 1.64-.76 2.4-.76 1.43 0 2.24 1.03 2.24 2.42 0 .27-.08.88-.1 1.07l-2.63 9.64c-.22.88-.37 1.57-.37 1.73 0 .42.15.6.46.6.64 0 1.34-.6 2.5-2.02l.8-1"/><path d="M720 17.95h65.3v40H720z" fill="#fff" fill-opacity="0"/><path d="M758.7 57.02h-11.26l-10.6-14.73h-4V57h-9.04V21.04h17.4c6.95 0 12.93 2.88 12.93 10.65 0 4.77-2.5 8.4-7.12 9.83m-.32-17.34v15.37c3.16-1.3 5.06-4.4 5.06-7.77 0-3.7-1.8-6.14-5.06-7.6m-2.4 15.43V23.87c-.8-.1-1.9-.44-2.7-.44h-8.75V39.9h8.47c.98 0 2-.17 3-.27m9.72 15l-9.5-12.56c-1.6.27-3.22.22-4.8.22l8.97 12.32H754m-23.6 0v-31.2h-4.22v31.2h4.23M778.3 31.35l.53.5c-2.6 3.57-3.57 4.34-5.38 4.34-.96 0-1.8-.63-1.8-2.1 0-.37.07-.87.6-2.87l1.7-6.22c.3-1.2.54-2.57.54-3.03 0-.7-.36-1.1-.93-1.1-1.54 0-3.27 1.87-5.7 5.44-1.72 2.6-2.03 3.47-3.83 9.54h-2.88l3.7-13.45c.02-.2.06-.43.06-.66 0-.77-.54-1-2.5-1.04v-.6c3.12-.63 4.2-.78 6.23-1.2l.15.07-2.57 8.38c3.84-6.15 6.42-8.45 8.88-8.45 1.66 0 2.5.96 2.5 2.34 0 .7-.15 1.5-.38 2.3l-2.15 7.8c-.4 1.4-.54 2.04-.54 2.35 0 .34.15.68.6.68.55 0 1.24-.6 2.36-2.03.26-.3.53-.66.8-1"/><path d="M684.98 144.54l-2.58 1.3m-3.45 1.75l-4.33 2.18-.82.46m-3.36 1.9l-2 1.13-2.96 1.86m-3.24 2.1l-2.86 1.98-1.85 1.4M654.5 163l-2.33 1.92-2.07 1.86m-2.8 2.66l-1.4 1.38-2.6 2.8m-2.53 2.93l-.57.67-2.7 3.47-.3.42m-2.24 3.14l-.1.13-2.58 3.97-.45.77m-1.96 3.34l-.1.2-2.5 4.7-.1.22m-1.67 3.5l-.68 1.42-1.64 3.87m-1.43 3.6l-1.72 4.6-.27.83m-1.2 3.68l-.86 2.66-.8 2.9m-1.02 3.7l-.44 1.57-.93 4.06m-.86 3.76l-.36 1.6-.23 1.23" stroke="#000" stroke-width="2" fill="none"/><path d="M685.88 144.1l.16 1.02-.63.32-.9-1.78 1.53-.77z"/><path d="M610.53 255.6l-2.22-14.83 9.15 1.53z" stroke="#000" stroke-width="2" fill="#fff"/><path d="M621.5 269.18l1.3-.16 1.6-.27m3.86-.76l1.53-.33 4.18-1.1m3.77-1.1l2.15-.66 3.44-1.2m3.68-1.36l4.3-1.72 1.15-.52m3.6-1.62l.8-.37 4.47-2.24m3.44-1.88l2.26-1.26 2.82-1.74m3.3-2.13l2.5-1.7 2.3-1.7m3.1-2.43l1.75-1.4 2.74-2.43m2.84-2.73l.3-.3 2.54-2.66 1.17-1.34m2.5-3.02l.7-.88 1.9-2.6.86-1.3m2.1-3.32l.3-.5 1.38-2.53 1.07-2.16m1.6-3.6l.72-1.87.88-2.58.33-1.12m1-3.8l.1-.32.53-2.67.43-2.73V197m.4-3.92l.1-1.65.1-2.93-.02-1.3m-.16-3.94l-.05-.94-.33-3.26-.24-1.66m-.66-3.87l-.28-1.46-.33-1.42" stroke="#000" stroke-width="2" fill="none"/><path d="M621.64 270.17l-1.3.16.16-1.02-.13-1 1.02-.1z"/><path d="M702.57 156.17l8.86 12.1-8.8 2.9z" stroke="#000" stroke-width="2" fill="#fff"/><path d="M581.66 157.95h56.67v25.7h-56.67z" fill="#fff" fill-opacity="0"/><path d="M600.9 183.16h-9v-.7l.9-.08c.92-.08 1.3-.3 1.3-.92 0-.6-.35-1.6-1.3-3.8h-6.28l-.36.95c-.34.88-.87 2.05-.87 2.72 0 .73.6 1.03 2.25 1.15v.7h-5.64v-.7c1.3-.23 1.72-.73 2.78-3.35l6.17-15.22h.78l6.2 14.57c1.42 3.38 1.92 4 3.07 4v.7m-8.52-6.6l-2.82-6.78-2.62 6.78h5.44M621.05 183.16h-9v-.7l.9-.08c.93-.08 1.3-.3 1.3-.92 0-.6-.34-1.6-1.3-3.8h-6.27l-.37.95c-.32.88-.85 2.05-.85 2.72 0 .73.6 1.03 2.26 1.15v.7h-5.63v-.7c1.28-.23 1.7-.73 2.76-3.35L611 163.9h.8l6.18 14.57c1.43 3.38 1.93 4 3.07 4v.7m-8.5-6.6l-2.83-6.78-2.62 6.78h5.44M634.55 159.73h-5.17v11.77h-1.3v-11.77h-5.16v-1.3h11.63v1.3"/><path d="M677.05 237.95h99.87v39.76h-99.87z" fill="#fff" fill-opacity="0"/><path d="M687.53 276.47v.82c-3.9-3.7-6.67-9.42-6.67-16.88 0-7.33 2.77-13.2 6.67-16.87v.82c-2.47 3.02-4.45 7.74-4.45 16.05 0 8.4 1.98 13.03 4.45 16.05M707.1 266.65h-8.04v-.63l.8-.07c.82-.08 1.15-.28 1.15-.83 0-.55-.3-1.42-1.14-3.4h-5.62l-.33.85c-.3.78-.76 1.83-.76 2.43 0 .65.55.92 2.02 1.02v.63h-5.04v-.63c1.14-.2 1.52-.65 2.47-3l5.5-13.6h.7l5.56 13.03c1.27 3.02 1.72 3.57 2.75 3.57v.63m-7.6-5.9l-2.54-6.07-2.35 6.07h4.9M725.15 266.65h-8.05v-.63l.8-.07c.82-.08 1.15-.28 1.15-.83 0-.55-.3-1.42-1.15-3.4h-5.62l-.33.85c-.3.78-.77 1.83-.77 2.43 0 .65.55.92 2.02 1.02v.63h-5.04v-.63c1.14-.2 1.52-.65 2.47-3l5.52-13.6h.7l5.55 13.03c1.27 3.02 1.72 3.57 2.75 3.57v.63m-7.63-5.9l-2.52-6.07-2.35 6.07h4.87M737.22 245.67h-4.63v10.53h-1.17v-10.53h-4.6v-1.16h10.4v1.17M742.97 244.37v-.82c3.9 3.67 6.67 9.4 6.67 16.87 0 7.32-2.77 13.2-6.67 16.87v-.83c2.47-3.02 4.45-7.74 4.45-16.05 0-8.4-1.98-13.03-4.45-16.05M764.43 246.44h-9.84v-1.16h9.83v1.16M772.52 250.33h-4.88v-.26c1.3-.08 1.68-.45 1.68-1.42v-7.93c0-.6-.16-.87-.53-.87-.2 0-.5.1-.8.22l-.48.17V240l3.16-1.6.16.04V249c0 .75.35 1.07 1.68 1.07v.26"/><path d="M45.57 141.65h64.1v28.74h-64.1z" fill="#fff" fill-opacity="0"/><path d="M56.24 158.3l.3.33c-.07.13-1.83 2.8-5.18 2.8-2.44 0-4.9-1.37-4.9-4.77 0-4.58 3.5-8.34 7.42-9.2.5-.12.95-.18 1.4-.18 1.48 0 2.45.73 2.45 1.95 0 .67-.64 1.77-1.55 1.77-.77 0-1.16-.52-1.16-1.08 0-1.06 1.03-.87 1.03-1.43 0-.33-.56-.5-1-.5-2.15 0-4.4 1.56-5.55 4.45-.48 1.2-.8 2.6-.8 4.32 0 2.65 1.52 3.77 3.35 3.77 2.1 0 3.86-1.9 4.2-2.24M69.9 169.36v.7c-3.23-3.07-5.53-7.83-5.53-14.03 0-6.08 2.3-10.96 5.53-14v.68c-2.05 2.5-3.7 6.43-3.7 13.33 0 6.98 1.65 10.83 3.7 13.33M86.16 161.2h-6.68v-.5l.67-.07c.68-.07.95-.23.95-.7 0-.45-.25-1.17-.95-2.8h-4.67l-.27.7c-.24.64-.64 1.5-.64 2 0 .55.46.77 1.68.86v.5h-4.2v-.5c.97-.18 1.28-.55 2.07-2.5l4.6-11.3h.57l4.6 10.82c1.07 2.5 1.44 2.97 2.3 2.97v.5m-6.34-4.9l-2.1-5.03-1.94 5.04h4.03M96.2 143.8h-3.85v8.73h-.97v-8.74h-3.83v-.98h8.64v.97M100.96 142.7v-.68c3.23 3.05 5.54 7.82 5.54 14 0 6.1-2.3 10.97-5.54 14.03v-.7c2.05-2.5 3.7-6.4 3.7-13.32 0-6.97-1.65-10.82-3.7-13.32"/><path d="M108.14 510.96h59.98v26.24h-59.98z" fill="#fff" fill-opacity="0"/><path d="M122.06 526.68h.02c2.93-9.67 3.5-11.64 3.97-12.37.62-.94 1.4-1.52 2.36-1.52 1.03 0 1.82.76 1.82 1.74 0 .7-.38 1.24-1.1 1.24-1 0-.85-1.18-1.52-1.18-1.12 0-1.47 1.52-1.68 2.16l-3.96 13.03h-.42c-1.95-2.66-3.84-5.8-5.35-9.88h-.05c-.75 3.6-2.18 10.14-5.38 10.14-1 0-1.8-.77-1.8-1.74 0-.7.37-1.25 1.1-1.25 1 0 .85 1.18 1.5 1.18 2.5 0 3.8-9.42 4.54-12.88h.57c1.62 4.04 3.2 8.5 5.4 11.33M141.6 536.22v.63c-2.94-2.78-5.03-7.12-5.03-12.77 0-5.54 2.1-9.98 5.04-12.76v.63c-1.86 2.28-3.35 5.85-3.35 12.13 0 6.35 1.5 9.86 3.36 12.14M157.7 529.27H151v-.52l.67-.06c.7-.07.96-.24.96-.7 0-.45-.25-1.18-.96-2.82H147l-.27.7c-.24.65-.64 1.52-.64 2.02 0 .54.45.77 1.67.85v.52h-4.2v-.52c.97-.16 1.28-.54 2.06-2.5l4.6-11.3h.57l4.6 10.84c1.07 2.5 1.44 2.95 2.3 2.95v.52m-6.34-4.9l-2.1-5.04-1.94 5.04h4.04M160.18 511.95v-.63c2.95 2.78 5.04 7.12 5.04 12.76 0 5.54-2.1 10-5.04 12.77v-.63c1.87-2.28 3.36-5.85 3.36-12.14 0-6.35-1.5-9.85-3.36-12.13"/><path d="M763.62 131.08h50.06v26.24h-50.06z" fill="#fff" fill-opacity="0"/><path d="M774.3 146.5l.3.32c-.1.12-1.85 2.8-5.2 2.8-2.44 0-4.9-1.37-4.9-4.77 0-4.6 3.5-8.34 7.42-9.22.5-.1.95-.16 1.4-.16 1.48 0 2.46.72 2.46 1.95 0 .66-.64 1.76-1.56 1.76-.76 0-1.16-.52-1.16-1.08 0-1.05 1.04-.87 1.04-1.43 0-.3-.56-.48-1-.48-2.16 0-4.4 1.55-5.56 4.44-.48 1.2-.8 2.6-.8 4.3 0 2.67 1.53 3.8 3.35 3.8 2.1 0 3.85-1.9 4.2-2.25M787.17 156.34v.63c-2.94-2.78-5.04-7.12-5.04-12.77 0-5.54 2.1-9.98 5.04-12.76v.63c-1.87 2.28-3.36 5.85-3.36 12.13 0 6.35 1.5 9.86 3.37 12.14M803.25 149.4h-6.68v-.53l.67-.06c.68-.05.95-.22.95-.67 0-.46-.26-1.2-.96-2.83h-4.67l-.27.7c-.25.65-.65 1.52-.65 2.02 0 .54.46.77 1.7.85v.52h-4.2v-.53c.95-.16 1.26-.54 2.05-2.5l4.58-11.3h.58l4.6 10.84c1.07 2.52 1.44 2.97 2.3 2.97v.52m-6.34-4.9l-2.1-5.05-1.94 5.05h4.04M805.74 132.07v-.63c2.95 2.78 5.05 7.12 5.05 12.76 0 5.55-2.1 10-5.06 12.77v-.63c1.87-2.28 3.37-5.85 3.37-12.14 0-6.35-1.5-9.85-3.36-12.13"/><path d="M143.97 254.8h39.6V277h-39.6z" fill="#fff" fill-opacity="0"/><path d="M160.4 271.02h-8.18v-.8c1.08-.08 1.52-.28 1.52-.7 0-.4-.3-.97-1.12-2.16-.5-.7-.98-1.43-1.42-2.14-.17.2-.34.44-.55.68-1.32 1.6-2.17 2.95-2.17 3.5 0 .5.48.74 1.7.8v.82h-5.73v-.8c1.25-.08 1.93-.62 3.83-3.17l1.46-1.9c.5-.64.24-.33.75-.95l-4.36-6.68c-.68-1.02-.88-1.2-1.76-1.32v-.82h8.48v.82c-1.12.03-1.6.24-1.6.64 0 .44.85 1.87 1.97 3.33.14.17.3.37.44.57l1.23-1.56c.9-1.18 1.28-1.66 1.28-2.17 0-.5-.27-.67-1.05-.73l-.68-.07v-.82h5.7v.82c-1.05.17-1.73.54-2.37 1.32l-3.43 4.28 5.02 7.73c.24.37.48.5 1.02.68v.82M165.16 270.76l.38-.84c.46-1 1.27-2.28 2.25-3.3.62-.65 1.34-1.1 1.9-1.1.66 0 1.12.52 1.12 1.24s-.4 1.3-1.13 1.3c-.44 0-.63-.27-.85-.63-.14-.24-.22-.34-.38-.34-.44 0-1.1.78-1.97 2.25-1.03 1.77-1.46 2.73-2.66 6.76H162l1.96-7c.33-1.24.38-1.46.38-1.96s-.43-.62-.9-.62c-.2 0-.4.02-.75.07v-.42l3.7-.65.08.05M179.6 265.5l-.48 3.37h-.4c-.23-2-.95-2.78-2.12-2.78-.84 0-1.42.46-1.42 1.35 0 .65.36 1.35 1.3 2.45 1.2 1.4 1.63 2.33 1.63 3.26 0 2-1.45 3.22-3.44 3.22-.4 0-.77-.03-1.32-.24-.46-.2-.8-.22-1.06-.22s-.53.12-.7.5h-.38l.48-3.8h.38c.34 2.27 1.16 3.25 2.4 3.25 1.13 0 1.83-.67 1.83-1.84 0-.77-.42-1.6-1.36-2.76-1.03-1.3-1.5-2.38-1.5-3.15 0-1.58 1.12-2.6 2.9-2.6.4 0 .74.1 1.34.25.45.15.67.17.86.17.36 0 .53-.1.72-.43h.34"/><path d="M606.7 282.82h15.32v19.94H606.7z" fill="#fff" fill-opacity="0"/><path d="M612.5 283.3v7.12c1.05-1.1 2.02-1.54 3.36-1.54 3.06 0 5.18 2.6 5.18 6.44 0 4.13-2.53 6.96-6.22 6.96-1.38 0-2.37-.4-3.63-1.57l-2.2 1.55h-.32v-16.7c0-1.1-.25-1.35-1.5-1.6v-.66h5.33m0 8.7v7.23c0 1.32.75 2.17 1.9 2.17 1.77 0 2.6-1.76 2.6-5.6 0-3.62-.86-5.44-2.57-5.44-.9 0-1.43.44-1.92 1.63"/><path d="M708.5 112.13h15.33v25.45H708.5z" fill="#fff" fill-opacity="0"/><path d="M714.32 118.1v7.14c1.04-1.1 2-1.54 3.35-1.54 3.06 0 5.18 2.6 5.18 6.44 0 4.13-2.53 6.96-6.22 6.96-1.38 0-2.37-.4-3.63-1.57l-2.18 1.55h-.33v-16.7c0-1.1-.26-1.36-1.52-1.6v-.67h5.34m0 8.7v7.25c0 1.32.74 2.17 1.9 2.17 1.76 0 2.58-1.76 2.58-5.6 0-3.62-.85-5.43-2.56-5.43-.9 0-1.43.43-1.92 1.6M719 112.6h.8c-.58 2.1-1.38 2.93-2.9 2.93-.68 0-1.1-.12-2.23-.67-1.04-.5-1.26-.6-1.76-.6-.62 0-1.1.4-1.4 1.27h-.8c.42-1.8 1.4-2.78 2.8-2.78.6 0 1.26.16 1.92.5 1.18.6 1.57.76 2.12.76.63 0 1-.37 1.46-1.4"/><path d="M347.32 437.95H800v97.95H347.32z" stroke="#e5e5e5" fill="#e5e5e5"/><path d="M358.5 445.53h430.33v82.8H358.5z" fill-opacity="0"/><path d="M383.68 505.3h-12.54v-1.26c1.66-.1 2.34-.42 2.34-1.04 0-.63-.47-1.5-1.72-3.33-.78-1.1-1.5-2.2-2.18-3.28-.26.3-.52.67-.84 1.03-2.03 2.45-3.33 4.53-3.33 5.36 0 .77.74 1.14 2.62 1.24v1.25h-8.8v-1.26c1.93-.1 2.97-.94 5.88-4.84l2.24-2.9c.78-1 .36-.53 1.14-1.47l-6.66-10.25c-1.04-1.56-1.35-1.82-2.7-2.03v-1.25h13v1.25c-1.7.05-2.44.36-2.44 1 0 .66 1.3 2.85 3.02 5.1.2.25.47.56.68.87l1.87-2.4c1.4-1.8 1.98-2.54 1.98-3.32 0-.78-.42-1.04-1.62-1.15l-1.03-.1v-1.25h8.74v1.25c-1.6.26-2.64.83-3.63 2.03l-5.25 6.55 7.7 11.87c.36.57.73.78 1.56 1.04v1.25M391 504.9l.58-1.3c.7-1.54 1.95-3.5 3.46-5.08.95-1 2.06-1.65 2.9-1.65 1.03 0 1.73.77 1.73 1.87s-.62 2-1.73 2c-.66 0-.95-.4-1.3-.97-.2-.36-.32-.5-.57-.5-.67 0-1.7 1.2-3.02 3.45-1.58 2.72-2.25 4.2-4.1 10.37h-2.78l2.98-10.75c.5-1.9.6-2.24.6-3.02 0-.77-.68-.95-1.4-.95-.3 0-.6.03-1.15.1v-.62l5.7-1 .1.08M413.14 496.83l-.74 5.15h-.58c-.37-3.05-1.48-4.27-3.28-4.27-1.3 0-2.17.75-2.17 2.1 0 1 .55 2.07 2 3.76 1.83 2.14 2.5 3.57 2.5 5 0 3.06-2.26 4.94-5.3 4.94-.64 0-1.2-.04-2.03-.37-.7-.3-1.22-.33-1.62-.33-.4 0-.8.18-1.07.77h-.6l.75-5.85h.6c.5 3.5 1.75 5 3.67 5 1.72 0 2.8-1.02 2.8-2.83 0-1.18-.63-2.44-2.07-4.24-1.58-2-2.32-3.64-2.32-4.82 0-2.43 1.73-3.97 4.46-3.97.62 0 1.14.1 2.06.37.7.22 1.03.25 1.32.25.55 0 .8-.15 1.1-.67h.52M466.84 488.64H436.2v-3.44h30.64v3.44m0 10.4H436.2v-3.43h30.64v3.44M519.66 505.3H502.9V504l1.67-.17c1.7-.15 2.4-.57 2.4-1.72 0-1.13-.64-2.95-2.4-7.06h-11.7l-.7 1.77c-.6 1.62-1.6 3.8-1.6 5.05 0 1.36 1.14 1.93 4.2 2.14v1.3h-10.5V504c2.4-.43 3.17-1.37 5.15-6.26l11.5-28.36h1.46l11.55 27.17c2.66 6.3 3.6 7.44 5.73 7.44v1.3M503.78 493l-5.25-12.64-4.9 12.65h10.15M544.8 461.6h-9.63v21.94h-2.43V461.6h-9.6v-2.42h21.67v2.43M573.64 525.74v1.72c-8.1-7.66-13.88-19.6-13.88-35.14 0-15.26 5.77-27.5 13.88-35.14v1.7c-5.14 6.3-9.25 16.13-9.25 33.44 0 17.48 4.1 27.14 9.24 33.42M614.42 505.3h-16.76V504l1.67-.17c1.72-.15 2.4-.57 2.4-1.72 0-1.13-.63-2.95-2.4-7.06h-11.7l-.7 1.77c-.6 1.62-1.6 3.8-1.6 5.05 0 1.36 1.14 1.93 4.2 2.14v1.3h-10.5V504c2.4-.43 3.18-1.37 5.15-6.26l11.5-28.36h1.46l11.56 27.17c2.65 6.3 3.6 7.44 5.72 7.44v1.3M598.55 493l-5.26-12.64-4.9 12.65h10.15M652 505.3h-16.77V504l1.67-.17c1.72-.15 2.4-.57 2.4-1.72 0-1.13-.63-2.95-2.4-7.06h-11.7l-.7 1.77c-.6 1.62-1.6 3.8-1.6 5.05 0 1.36 1.15 1.93 4.22 2.14v1.3h-10.5V504c2.38-.43 3.16-1.37 5.14-6.26l11.5-28.36h1.45l11.57 27.17c2.65 6.3 3.6 7.44 5.72 7.44v1.3M636.1 493l-5.26-12.64-4.9 12.65h10.16M677.15 461.6h-9.64v21.94h-2.42V461.6h-9.6v-2.42h21.67v2.43M689.12 458.9v-1.72c8.1 7.65 13.9 19.6 13.9 35.14 0 15.25-5.8 27.48-13.9 35.14v-1.72c5.14-6.28 9.26-16.1 9.26-33.42 0-17.5-4.12-27.14-9.26-33.43M733.8 463.2h-20.5v-2.42h20.5v2.43M750.66 471.3H740.5v-.54c2.72-.15 3.5-.92 3.5-2.95v-16.5c0-1.26-.34-1.8-1.1-1.8-.38 0-1 .17-1.66.43l-1 .37v-.52l6.6-3.35.32.1v21.98c0 1.6.74 2.26 3.5 2.26v.55M770.85 470.1v13.5c1.98-2.1 3.8-2.93 6.35-2.93 5.77 0 9.78 4.95 9.78 12.18 0 7.8-4.8 13.17-11.76 13.17-2.6 0-4.48-.78-6.87-2.97l-4.1 2.92h-.64v-31.6c0-2.07-.45-2.54-2.85-3v-1.26h10.1m0 16.45v13.7c0 2.5 1.4 4.1 3.6 4.1 3.32 0 4.88-3.33 4.88-10.56 0-6.88-1.6-10.32-4.84-10.32-1.73 0-2.72.84-3.65 3.07"/><path d="M163.22 445.2c0 5.52-4.47 10-10 10-5.52 0-10-4.48-10-10 0-5.53 4.48-10 10-10 5.53 0 10 4.47 10 10zM280.37 380.6c0 5.52-4.48 10-10 10-5.53 0-10-4.48-10-10s4.47-10 10-10c5.52 0 10 4.48 10 10z" stroke="#c92d39" fill="#ffbbb1"/><path d="M164.75 440.8c0 .54-.45 1-1 1-.56 0-1-.46-1-1 0-.56.44-1 1-1 .55 0 1 .44 1 1zm3.43-2c0 .56-.45 1-1 1s-1-.44-1-1c0-.55.45-1 1-1s1 .45 1 1zm3.44-1.98c0 .55-.45 1-1 1-.56 0-1-.45-1-1 0-.56.44-1 1-1 .55 0 1 .44 1 1zm3.43-2c0 .56-.45 1-1 1s-1-.44-1-1c0-.54.45-1 1-1s1 .46 1 1zm3.44-1.98c0 .56-.46 1-1 1-.57 0-1-.44-1-1 0-.55.43-1 1-1 .54 0 1 .45 1 1zm3.42-1.98c0 .55-.45 1-1 1s-1-.45-1-1 .45-1 1-1 1 .45 1 1zm3.43-2c0 .56-.44 1-1 1-.55 0-1-.44-1-1 0-.54.45-1 1-1 .56 0 1 .46 1 1zm3.44-1.98c0 .56-.46 1-1 1-.56 0-1-.44-1-1 0-.55.44-1 1-1 .54 0 1 .45 1 1zm3.42-1.98c0 .55-.44 1-1 1-.55 0-1-.45-1-1s.45-1 1-1c.56 0 1 .45 1 1zm3.44-2c0 .56-.45 1-1 1s-1-.44-1-1c0-.54.45-1 1-1s1 .46 1 1zm3.43-1.97c0 .55-.45 1-1 1-.56 0-1-.45-1-1 0-.56.44-1 1-1 .55 0 1 .44 1 1zm3.43-2c0 .56-.45 1-1 1s-1-.44-1-1c0-.54.45-1 1-1s1 .46 1 1zm3.43-1.98c0 .55-.45 1-1 1s-1-.45-1-1 .45-1 1-1 1 .45 1 1zm3.44-1.98c0 .55-.45 1-1 1-.56 0-1-.45-1-1 0-.56.44-1 1-1 .55 0 1 .44 1 1zm3.43-2c0 .56-.45 1-1 1s-1-.44-1-1c0-.54.45-1 1-1s1 .46 1 1zm3.44-1.98c0 .55-.45 1-1 1-.56 0-1-.45-1-1 0-.56.44-1 1-1 .55 0 1 .44 1 1zm3.43-2c0 .56-.45 1-1 1s-1-.44-1-1c0-.55.45-1 1-1s1 .45 1 1zm3.44-1.98c0 .55-.45 1-1 1-.56 0-1-.45-1-1s.44-1 1-1c.55 0 1 .45 1 1zm3.43-2c0 .57-.45 1-1 1s-1-.43-1-1c0-.54.45-1 1-1s1 .46 1 1zm3.43-1.97c0 .55-.44 1-1 1-.55 0-1-.45-1-1 0-.56.45-1 1-1 .56 0 1 .44 1 1zm3.44-2c0 .56-.45 1-1 1s-1-.44-1-1c0-.54.45-1 1-1s1 .46 1 1zm3.43-1.98c0 .56-.44 1-1 1-.55 0-1-.44-1-1 0-.55.45-1 1-1 .56 0 1 .45 1 1zm3.44-1.98c0 .54-.44 1-1 1-.54 0-1-.46-1-1 0-.56.46-1 1-1 .56 0 1 .44 1 1zm3.44-2c0 .55-.44 1-1 1-.55 0-1-.45-1-1s.45-1 1-1c.56 0 1 .45 1 1zm3.44-2c0 .57-.45 1-1 1s-1-.43-1-1c0-.54.45-1 1-1s1 .46 1 1zm3.43-1.97c0 .55-.44 1-1 1-.54 0-1-.45-1-1s.46-1 1-1c.56 0 1 .45 1 1zm3.45-2c0 .56-.45 1-1 1-.56 0-1-.44-1-1 0-.54.44-1 1-1 .55 0 1 .46 1 1zm3.43-1.97c0 .55-.45 1-1 1s-1-.45-1-1c0-.56.45-1 1-1s1 .44 1 1zm3.44-2c0 .56-.45 1-1 1-.56 0-1-.44-1-1 0-.54.44-1 1-1 .55 0 1 .46 1 1z"/><path d="M164.27 441.64l-1 .58-.77-1.86.77-.45zM260.4 383.92l.84 1.64-.85.5-1-1.74.97-.57zM263.4 372.32c0 .55-.44 1-1 1-.54 0-1-.45-1-1s.46-1 1-1c.56 0 1 .45 1 1zm-2.1-3.4c0 .55-.44 1-1 1-.55 0-1-.45-1-1 0-.56.45-1 1-1 .56 0 1 .44 1 1zm-2.1-3.4c0 .54-.45 1-1 1-.56 0-1-.46-1-1 0-.57.44-1 1-1 .55 0 1 .43 1 1zm-2.1-3.42c0 .55-.46 1-1 1-.57 0-1-.45-1-1s.43-1 1-1c.54 0 1 .45 1 1zm-2.12-3.4c0 .54-.45 1-1 1s-1-.46-1-1c0-.56.45-1 1-1s1 .44 1 1zm-2.1-3.42c0 .55-.46 1-1 1-.56 0-1-.45-1-1s.44-1 1-1c.54 0 1 .45 1 1zm-2.12-3.4c0 .55-.45 1-1 1s-1-.45-1-1c0-.56.45-1 1-1s1 .44 1 1zm-2.1-3.4c0 .54-.46 1-1 1-.56 0-1-.46-1-1 0-.57.44-1 1-1 .54 0 1 .43 1 1zm-2.12-3.42c0 .55-.44 1-1 1-.55 0-1-.45-1-1s.45-1 1-1c.56 0 1 .45 1 1zm-2.1-3.4c0 .54-.45 1-1 1-.56 0-1-.46-1-1 0-.56.44-1 1-1 .55 0 1 .44 1 1zm-2.1-3.42c0 .56-.46 1-1 1-.57 0-1-.44-1-1 0-.55.43-1 1-1 .54 0 1 .45 1 1zm-2.12-3.4c0 .55-.45 1-1 1s-1-.45-1-1c0-.56.45-1 1-1s1 .44 1 1zm-2.1-3.4c0 .54-.46 1-1 1-.56 0-1-.46-1-1 0-.56.44-1 1-1 .54 0 1 .44 1 1zM236 328c0 .55-.45 1-1 1s-1-.45-1-1 .45-1 1-1 1 .45 1 1zm-2.1-3.4c0 .54-.45 1-1 1-.56 0-1-.46-1-1 0-.56.44-1 1-1 .55 0 1 .44 1 1zm-2.12-3.42c0 .56-.44 1-1 1-.55 0-1-.44-1-1 0-.55.45-1 1-1 .56 0 1 .45 1 1zm-2.1-3.4c0 .55-.45 1-1 1-.56 0-1-.45-1-1 0-.56.44-1 1-1 .55 0 1 .44 1 1zm-2.1-3.4c0 .54-.46 1-1 1-.56 0-1-.46-1-1 0-.56.44-1 1-1 .54 0 1 .44 1 1zm-2.12-3.42c0 .55-.45 1-1 1s-1-.45-1-1 .45-1 1-1 1 .45 1 1zm-2.1-3.4c0 .55-.46 1-1 1-.56 0-1-.45-1-1 0-.56.44-1 1-1 .54 0 1 .44 1 1zm-2.12-3.4c0 .54-.45 1-1 1s-1-.46-1-1c0-.57.45-1 1-1s1 .43 1 1zm-2.1-3.42c0 .55-.45 1-1 1-.56 0-1-.45-1-1s.44-1 1-1c.55 0 1 .45 1 1zm-2.1-3.4c0 .54-.46 1-1 1-.57 0-1-.46-1-1 0-.56.43-1 1-1 .54 0 1 .44 1 1zm-2.12-3.42c0 .55-.45 1-1 1s-1-.45-1-1 .45-1 1-1 1 .45 1 1zm-2.1-3.4c0 .55-.46 1-1 1-.56 0-1-.45-1-1 0-.56.44-1 1-1 .54 0 1 .44 1 1zm-2.12-3.4c0 .54-.45 1-1 1s-1-.46-1-1c0-.57.45-1 1-1s1 .43 1 1zm-2.1-3.42c0 .55-.46 1-1 1-.56 0-1-.45-1-1s.44-1 1-1c.54 0 1 .45 1 1zm-2.12-3.4c0 .54-.44 1-1 1-.55 0-1-.46-1-1 0-.56.45-1 1-1 .56 0 1 .44 1 1zm-2.1-3.42c0 .56-.45 1-1 1-.56 0-1-.44-1-1 0-.55.44-1 1-1 .55 0 1 .45 1 1z"/><path d="M263.74 372.56l-.8.6-.65.86-.75-1.2 1.7-1.05zM204.24 276.4l-1.7 1.05-.7-1.12 1-.28.84-.55z"/><path d="M281.37 380.6l1.58-.02 2.83-.15 4-.37 5.9-.8 9.22-1.67 15.53-3.5 28.46-7.64 56.22-17.67 106.94-38.55 67.74-26.9" stroke="#c92d39" fill="none"/><path d="M281.4 381.1h-.6l.07-.5-.07-.5h.58z" fill="#c92d39"/><path d="M600.27 275.22L584.97 295l-9.4-23.66z" stroke="#c92d39" fill="#fff"/><path d="M434.54 314.8h24.98v25.06h-24.98z" fill="#fff"/><path d="M458.36 339.27h-11.13v-.87l1.1-.1c1.15-.1 1.6-.38 1.6-1.14 0-.76-.42-1.97-1.6-4.7h-7.77l-.45 1.17c-.4 1.07-1.07 2.52-1.07 3.35 0 .9.76 1.28 2.8 1.42v.87h-6.98v-.87c1.6-.28 2.1-.9 3.42-4.15l7.65-18.84h.96l7.68 18.06c1.76 4.18 2.4 4.94 3.8 4.94v.87m-10.54-8.17l-3.5-8.4-3.25 8.4h6.75"/><path d="M118.93 452.36h41.72v22.2h-41.72z" fill="#fff" fill-opacity="0"/><path d="M135.35 468.58h-8.17v-.8c1.08-.08 1.52-.28 1.52-.7 0-.4-.3-.97-1.12-2.16-.5-.7-.98-1.43-1.42-2.14l-.54.68c-1.33 1.6-2.18 2.95-2.18 3.5 0 .5.48.74 1.7.8v.82h-5.73v-.8c1.26-.08 1.94-.62 3.84-3.17l1.46-1.9c.5-.63.24-.32.75-.94l-4.35-6.68c-.68-1.02-.88-1.2-1.76-1.32v-.82h8.48v.82c-1.12.03-1.6.24-1.6.64 0 .44.85 1.87 1.97 3.33.13.17.3.37.43.57l1.23-1.56c.9-1.18 1.28-1.66 1.28-2.17 0-.5-.27-.68-1.05-.74l-.7-.07v-.82h5.7v.82c-1.04.17-1.72.54-2.36 1.32l-3.43 4.28 5.03 7.73c.24.36.48.5 1.02.67v.8M146.93 470.87l.34.3c-1.64 2.24-2.24 2.72-3.36 2.72-.6 0-1.12-.4-1.12-1.3 0-.25.05-.56.38-1.8l1.06-3.9c.2-.74.33-1.6.33-1.9 0-.42-.2-.68-.57-.68-.96 0-2.04 1.17-3.55 3.4-1.08 1.6-1.27 2.16-2.4 5.95h-1.8l2.3-8.4c.03-.1.05-.26.05-.4 0-.48-.33-.63-1.56-.65v-.38c1.95-.4 2.62-.48 3.9-.75l.08.04-1.6 5.23c2.4-3.84 4-5.28 5.54-5.28 1.03 0 1.56.6 1.56 1.46 0 .43-.1.93-.24 1.44l-1.35 4.87c-.23.86-.32 1.27-.32 1.46 0 .2.1.43.38.43.34 0 .77-.38 1.47-1.27l.5-.63M156.67 463.07l-.48 3.36h-.4c-.23-2-.95-2.8-2.13-2.8-.84 0-1.42.5-1.42 1.38 0 .66.36 1.36 1.3 2.46 1.2 1.4 1.63 2.33 1.63 3.26 0 2-1.46 3.22-3.45 3.22-.4 0-.77-.03-1.32-.24-.45-.2-.78-.22-1.05-.22-.26 0-.53.12-.7.5h-.38l.48-3.8h.4c.32 2.27 1.14 3.25 2.4 3.25 1.1 0 1.8-.67 1.8-1.84 0-.78-.4-1.6-1.34-2.77-1.02-1.3-1.5-2.38-1.5-3.15 0-1.58 1.13-2.6 2.9-2.6.4 0 .75.1 1.35.25.46.15.67.17.86.17.37 0 .54-.1.73-.43h.34"/><path d="M281.85 387.4h16.98v16.8h-16.98z" fill="#fff" fill-opacity="0"/><path d="M298.27 403.62h-8.18v-.8c1.08-.08 1.52-.28 1.52-.7 0-.4-.3-.97-1.12-2.16-.5-.7-1-1.43-1.43-2.14l-.54.68c-1.32 1.6-2.17 2.95-2.17 3.5 0 .5.47.74 1.7.8v.82h-5.74v-.8c1.26-.08 1.93-.62 3.83-3.17l1.46-1.9c.52-.64.25-.34.76-.95l-4.34-6.68c-.68-1.02-.88-1.2-1.77-1.32v-.82h8.48v.82c-1.1.03-1.6.23-1.6.64 0 .44.86 1.87 1.98 3.33l.45.57 1.22-1.56c.92-1.18 1.3-1.66 1.3-2.17 0-.5-.28-.67-1.06-.73l-.67-.07v-.82h5.7v.82c-1.05.17-1.73.54-2.38 1.32l-3.42 4.27 5.02 7.73c.24.37.47.5 1.02.68v.82"/><path d="M245.58 407.45h96.68v14.45h-96.68z" fill="#fff" fill-opacity="0"/><path d="M250.53 421.36l-.2.26c-2.57-1.46-3.97-4.22-3.97-6.98 0-3.02 1.42-5.36 4.03-6.9l.13.25c-2.26 1.93-2.77 3.44-2.77 6.6 0 3.02.5 4.86 2.77 6.76M258.9 418.74h-3.94v-.4c.52-.02.74-.12.74-.32s-.15-.47-.54-1.04c-.25-.34-.47-.68-.7-1.02l-.25.32c-.62.77-1.03 1.42-1.03 1.68 0 .24.23.36.82.4v.38h-2.77v-.4c.6-.02.93-.28 1.84-1.5l.7-.92.36-.45-2.08-3.2c-.33-.5-.43-.58-.85-.65v-.4h4.07v.4c-.54.02-.76.12-.76.3 0 .22.4.9.95 1.6.07.1.15.2.2.3l.6-.76c.44-.57.62-.8.62-1.05 0-.23-.13-.3-.5-.34l-.33-.04v-.4h2.73v.4c-.5.08-.83.26-1.14.64L256 414.3l2.4 3.72c.1.18.23.25.5.33v.4M274.05 413.53h-9.6v-1.08h9.6v1.08m0 3.26h-9.6v-1.1h9.6v1.1M287.26 418.74h-3.93v-.4c.53-.02.74-.12.74-.32s-.15-.47-.54-1.04c-.24-.34-.47-.68-.68-1.02-.1.1-.17.2-.26.32-.65.77-1.06 1.42-1.06 1.68 0 .24.23.36.82.4v.38h-2.76v-.4c.6-.02.93-.28 1.84-1.5l.7-.92.36-.45-2.08-3.2c-.33-.5-.42-.58-.85-.65v-.4h4.07v.4c-.53.02-.76.12-.76.3 0 .22.4.9.94 1.6.07.1.15.2.2.3l.6-.76c.44-.57.62-.8.62-1.05 0-.23-.13-.3-.5-.34l-.33-.04v-.4h2.75v.4c-.5.08-.84.26-1.14.64l-1.64 2.05 2.4 3.72c.12.18.24.25.5.33v.4M289.55 418.62l.18-.4c.22-.5.6-1.1 1.08-1.6.3-.3.66-.52.92-.52.33 0 .54.25.54.6 0 .34-.2.6-.54.6-.2 0-.3-.1-.4-.3-.07-.1-.1-.15-.18-.15-.2 0-.53.38-.95 1.1-.5.84-.7 1.3-1.3 3.23h-.86l.93-3.36c.16-.6.2-.7.2-.94 0-.25-.22-.3-.45-.3-.1 0-.2 0-.36.03v-.18l1.8-.32.02.03M296.48 416.1l-.23 1.6h-.18c-.12-.95-.47-1.33-1.03-1.33-.4 0-.68.23-.68.66 0 .3.17.64.62 1.17.58.67.8 1.12.8 1.57 0 .95-.72 1.54-1.67 1.54-.2 0-.36 0-.63-.1-.2-.1-.38-.1-.5-.1-.13 0-.26.05-.34.23h-.18l.23-1.83h.18c.16 1.1.56 1.57 1.16 1.57.54 0 .87-.32.87-.9 0-.36-.2-.75-.65-1.3-.5-.64-.73-1.15-.73-1.52 0-.76.54-1.25 1.4-1.25.2 0 .35.04.64.12.22.07.32.08.4.08.2 0 .27-.05.36-.2h.16M312.36 415.16h-4.25v4.25h-1.07v-4.24h-4.25v-1.08h4.25v-4.25h1.08v4.25h4.26v1.08M324.67 418.74h-3.93v-.4c.53-.02.74-.12.74-.32s-.15-.47-.54-1.04c-.24-.34-.47-.68-.68-1.02-.1.1-.17.2-.26.32-.64.77-1.05 1.42-1.05 1.68 0 .24.23.36.82.4v.38h-2.75v-.4c.6-.02.92-.28 1.84-1.5l.7-.92c.24-.3.1-.16.35-.45l-2.07-3.2c-.33-.5-.42-.58-.85-.65v-.4h4.07v.4c-.53.02-.76.12-.76.3 0 .22.4.9.93 1.6l.22.3.58-.76c.44-.57.62-.8.62-1.05 0-.23-.13-.3-.5-.34l-.33-.04v-.4h2.74v.4c-.5.08-.83.26-1.14.64l-1.65 2.05 2.4 3.72c.13.18.24.25.5.33v.4M330.23 419.84l.16.15c-.8 1.06-1.08 1.3-1.62 1.3-.3 0-.54-.2-.54-.64 0-.1.02-.26.18-.86l.5-1.86c.1-.36.17-.78.17-.9 0-.22-.12-.35-.3-.35-.45 0-.97.56-1.7 1.63-.5.77-.6 1.03-1.14 2.85h-.87l1.1-4.03.02-.2c0-.22-.16-.3-.75-.3v-.2c.93-.17 1.26-.22 1.87-.35l.04.03-.77 2.5c1.16-1.83 1.94-2.53 2.67-2.53.5 0 .75.3.75.7 0 .2-.05.46-.1.7l-.66 2.34c-.1.4-.16.6-.16.7 0 .1.05.2.18.2.17 0 .37-.18.7-.6.1-.1.17-.2.25-.3M334.9 416.1l-.23 1.6h-.18c-.13-.95-.47-1.33-1.04-1.33-.4 0-.68.23-.68.66 0 .3.18.64.63 1.17.58.67.8 1.12.8 1.57 0 .95-.7 1.54-1.67 1.54-.2 0-.37 0-.63-.1-.22-.1-.38-.1-.5-.1-.14 0-.26.05-.34.23h-.2l.24-1.83h.2c.15 1.1.54 1.57 1.14 1.57.54 0 .87-.32.87-.9 0-.36-.18-.75-.63-1.3-.5-.64-.73-1.15-.73-1.52 0-.76.55-1.25 1.4-1.25.2 0 .35.04.64.12.22.07.33.08.42.08.17 0 .25-.05.34-.2h.16M337.3 408l.2-.27c2.48 1.5 3.96 4.22 3.96 7 0 3-1.43 5.3-4.02 6.9l-.15-.27c2.3-1.9 2.76-3.43 2.76-6.6 0-3.04-.4-4.9-2.77-6.77"/></g></svg>