<?xml version="1.0" encoding="UTF-8" standalone="no"?>
<svg
   xmlns:lucid="lucid"
   xmlns:dc="http://purl.org/dc/elements/1.1/"
   xmlns:cc="http://creativecommons.org/ns#"
   xmlns:rdf="http://www.w3.org/1999/02/22-rdf-syntax-ns#"
   xmlns:svg="http://www.w3.org/2000/svg"
   xmlns="http://www.w3.org/2000/svg"
   xmlns:sodipodi="http://sodipodi.sourceforge.net/DTD/sodipodi-0.dtd"
   xmlns:inkscape="http://www.inkscape.org/namespaces/inkscape"
   width="836.88"
   height="576.61"
   version="1.1"
   id="svg122"
   sodipodi:docname="right_pinv.svg"
   inkscape:version="0.92.4 (5da689c313, 2019-01-14)"
   inkscape:export-filename="D:\work\website\siva82kb.github.io\figs\right_pinv.png"
   inkscape:export-xdpi="600"
   inkscape:export-ydpi="600">
  <metadata
     id="metadata128">
    <rdf:RDF>
      <cc:Work
         rdf:about="">
        <dc:format>image/svg+xml</dc:format>
        <dc:type
           rdf:resource="http://purl.org/dc/dcmitype/StillImage" />
        <dc:title></dc:title>
      </cc:Work>
    </rdf:RDF>
  </metadata>
  <defs
     id="defs126" />
  <sodipodi:namedview
     pagecolor="#ffffff"
     bordercolor="#666666"
     borderopacity="1"
     objecttolerance="10"
     gridtolerance="10"
     guidetolerance="10"
     inkscape:pageopacity="0"
     inkscape:pageshadow="2"
     inkscape:window-width="1920"
     inkscape:window-height="1027"
     id="namedview124"
     showgrid="false"
     inkscape:zoom="0.95984287"
     inkscape:cx="419.05273"
     inkscape:cy="284.32528"
     inkscape:window-x="-8"
     inkscape:window-y="-8"
     inkscape:window-maximized="1"
     inkscape:current-layer="g120" />
  <g
     lucid:page-tab-id="0_0"
     id="g120">
    <path
       d="M216.55 38L354.7 278.95l-196.56 112.7L20 150.7z"
       stroke="#c92d39"
       stroke-width="4"
       fill-opacity="0"
       id="path4" />
    <path
       d="M158 391.2l65.56 114.3-103.52 59.37-65.56-114.33z"
       stroke="#c92d39"
       stroke-width="4"
       fill-opacity="0"
       id="path6" />
    <path
       d="M821.65 131.17L728.8 392.9l-213.53-75.73L608.1 55.43z"
       stroke="#0c7cba"
       stroke-width="4"
       fill-opacity="0"
       id="path8" />
    <path
       d="M203.4 257.77c4.8 2.7 6.52 8.8 3.8 13.62-2.7 4.8-8.8 6.5-13.6 3.8-4.82-2.7-6.53-8.8-3.83-13.6 2.7-4.82 8.8-6.53 13.62-3.83z"
       stroke="#c92d39"
       fill="#ffbbb1"
       id="path10" />
    <path
       d="M687.6 137.6l-9.14-5.52-9.65-5.28-9.74-4.82-9.87-4.37-10-3.93-10.18-3.52-10.35-3.1-10.55-2.7-10.8-2.27-11.04-1.85-11.35-1.4-11.67-.97-12.03-.48-12.42.02-12.86.57-13.34 1.14-13.87 1.8-14.45 2.46-15.07 3.24-15.75 4.08-16.5 5-17.32 6.08-18.2 7.25-19.13 8.57-20.14 10.05-21.22 11.72-22.36 13.6-23.56 15.73-24.8 18.1-26.1 20.76L224 244.98"
       stroke="#0c7cba"
       fill="none"
       id="path12" />
    <path
       d="M688.34 137.46l-.62.8-.4-.24.53-.85z"
       fill="#0c7cba"
       id="path14" />
    <path
       d="M207.6 259.67l7.53-23.84 16.98 18.96z"
       stroke="#0c7cba"
       fill="#fff"
       id="path16" />
    <path
       d="M706.38 144.1c0 5.5-4.48 10-10 10s-10-4.5-10-10c0-5.54 4.48-10 10-10s10 4.46 10 10z"
       stroke="#0c7cba"
       fill="#b2d6ef"
       id="path18" />
    <path
       d="M620 269.3c0 5.53-4.48 10-10 10-5.53 0-10-4.47-10-10 0-5.52 4.47-10 10-10 5.52 0 10 4.48 10 10z"
       stroke="#7ab648"
       fill="#a3d977"
       id="path20" />
    <path
       d="M208.07 271.92l10.8 7.54 11.08 7.05 10.96 6.36 10.92 5.7 10.88 5.15 10.9 4.62 11 4.1 11.1 3.62 11.25 3.16 11.5 2.7 11.75 2.26 12.1 1.8 12.53 1.33 13.03.83 13.64.3 14.4-.3 15.27-.93 16.4-1.7 17.76-2.62 19.56-3.7 21.94-5.14 25.35-7.07 30.82-10 36.76-13.7"
       stroke="#c92d39"
       fill="none"
       id="path22" />
    <path
       d="M208.37 271.52l-.58.82-.46-.3.3-.4.2-.5z"
       fill="#c92d39"
       id="path24" />
    <path
       d="M600.27 275.22l-15.37 19.72-9.32-23.68z"
       stroke="#c92d39"
       fill="#fff"
       id="path26" />
    <path
       d="M422.6 80.16h40v28.16h-40z"
       fill="#fff"
       id="path28" />
    <path
       d="M443.7 107.8h-9.87v-.77l.98-.1c1.02-.08 1.42-.33 1.42-1 0-.67-.37-1.75-1.4-4.16h-6.9l-.4 1.04c-.36.96-.94 2.24-.94 2.98 0 .8.67 1.13 2.48 1.25v.77h-6.2v-.77c1.42-.24 1.88-.8 3.04-3.67l6.77-16.68h.86l6.8 15.97c1.55 3.7 2.1 4.38 3.36 4.38v.77m-9.35-7.23l-3.1-7.43-2.87 7.43h5.97M458.48 82.1h-5.67V95h-1.42V82.1h-5.65V80.7h12.75v1.43"
       id="path30" />
    <path
       d="M40 17.95h73.82v40H40z"
       fill="#fff"
       fill-opacity="0"
       id="path32" />
    <path
       d="M78.7 57.02H67.43L56.84 42.3h-4V57H43.8V21.04h17.4c6.95 0 12.93 2.88 12.93 10.65 0 4.77-2.5 8.4-7.12 9.83M66.7 24.2v15.37c3.16-1.3 5.06-4.4 5.06-7.77 0-3.7-1.8-6.14-5.06-7.6m-2.4 15.43V23.87c-.8-.1-1.9-.44-2.7-.44h-8.75V39.9h8.47c.98 0 2-.17 3-.27m9.72 15l-9.5-12.56c-1.6.27-3.22.22-4.8.22L68.7 54.6H74m-23.6 0v-31.2H46.2v31.2h4.23M107.67 31.8l-.2.28c-2.03 2.84-3.72 4.1-5.52 4.1-1 0-1.54-.6-1.54-1.76 0-.38.12-1.04.5-2.54l2.24-8.72c.2-.77.27-1.27.27-1.46 0-.46-.34-.8-.76-.8-1.16 0-3.12 1.8-5.04 4.5-1.88 2.64-2.65 4.52-4.15 10.44h-2.88l1.04-3.57c1.7-5.84 2.62-9.92 2.62-10.42 0-.6-.34-.96-.84-.96-1.3 0-3.58 2.22-5.73 5.5-1.3 2-1.84 3.37-3.7 9.44H81.1l1.65-5.53c1.54-5.1 2.12-8.3 2.12-8.75 0-.58-.54-.85-1.58-.85h-.96v-.6l6.23-1.2.12.07L86.42 27c3.42-5.57 6.1-8.1 8.45-8.1 1.54 0 2.3.92 2.3 2.3 0 .73-.5 2.88-1.53 5.84 2.7-4.26 4.27-6.18 6.15-7.38.9-.57 1.64-.76 2.4-.76 1.43 0 2.24 1.03 2.24 2.42 0 .27-.08.88-.1 1.07l-2.63 9.64c-.22.88-.37 1.57-.37 1.73 0 .42.15.6.46.6.64 0 1.34-.6 2.5-2.02l.8-1"
       id="path34" />
    <path
       d="M720 17.95h65.3v40H720z"
       fill="#fff"
       fill-opacity="0"
       id="path36" />
    <path
       d="M758.7 57.02h-11.26l-10.6-14.73h-4V57h-9.04V21.04h17.4c6.95 0 12.93 2.88 12.93 10.65 0 4.77-2.5 8.4-7.12 9.83m-.32-17.34v15.37c3.16-1.3 5.06-4.4 5.06-7.77 0-3.7-1.8-6.14-5.06-7.6m-2.4 15.43V23.87c-.8-.1-1.9-.44-2.7-.44h-8.75V39.9h8.47c.98 0 2-.17 3-.27m9.72 15l-9.5-12.56c-1.6.27-3.22.22-4.8.22l8.97 12.32H754m-23.6 0v-31.2h-4.22v31.2h4.23M778.3 31.35l.53.5c-2.6 3.57-3.57 4.34-5.38 4.34-.96 0-1.8-.63-1.8-2.1 0-.37.07-.87.6-2.87l1.7-6.22c.3-1.2.54-2.57.54-3.03 0-.7-.36-1.1-.93-1.1-1.54 0-3.27 1.87-5.7 5.44-1.72 2.6-2.03 3.47-3.83 9.54h-2.88l3.7-13.45c.02-.2.06-.43.06-.66 0-.77-.54-1-2.5-1.04v-.6c3.12-.63 4.2-.78 6.23-1.2l.15.07-2.57 8.38c3.84-6.15 6.42-8.45 8.88-8.45 1.66 0 2.5.96 2.5 2.34 0 .7-.15 1.5-.38 2.3l-2.15 7.8c-.4 1.4-.54 2.04-.54 2.35 0 .34.15.68.6.68.55 0 1.24-.6 2.36-2.03.26-.3.53-.66.8-1"
       id="path38" />
    <path
       d="M684.98 144.54l-2.58 1.3m-3.45 1.75l-4.33 2.18-.82.46m-3.36 1.9l-2 1.13-2.96 1.86m-3.24 2.1l-2.86 1.98-1.85 1.4M654.5 163l-2.33 1.92-2.07 1.86m-2.8 2.66l-1.4 1.38-2.6 2.8m-2.53 2.93l-.57.67-2.7 3.47-.3.42m-2.24 3.14l-.1.13-2.58 3.97-.45.77m-1.96 3.34l-.1.2-2.5 4.7-.1.22m-1.67 3.5l-.68 1.42-1.64 3.87m-1.43 3.6l-1.72 4.6-.27.83m-1.2 3.68l-.86 2.66-.8 2.9m-1.02 3.7l-.44 1.57-.93 4.06m-.86 3.76l-.36 1.6-.23 1.23"
       stroke="#000"
       stroke-width="2"
       fill="none"
       id="path40" />
    <path
       d="M685.88 144.1l.16 1.02-.63.32-.9-1.78 1.53-.77z"
       id="path42" />
    <path
       d="M610.53 255.6l-2.22-14.83 9.15 1.53z"
       stroke="#000"
       stroke-width="2"
       fill="#fff"
       id="path44" />
    <path
       d="M621.5 269.18l1.3-.16 1.6-.27m3.86-.76l1.53-.33 4.18-1.1m3.77-1.1l2.15-.66 3.44-1.2m3.68-1.36l4.3-1.72 1.15-.52m3.6-1.62l.8-.37 4.47-2.24m3.44-1.88l2.26-1.26 2.82-1.74m3.3-2.13l2.5-1.7 2.3-1.7m3.1-2.43l1.75-1.4 2.74-2.43m2.84-2.73l.3-.3 2.54-2.66 1.17-1.34m2.5-3.02l.7-.88 1.9-2.6.86-1.3m2.1-3.32l.3-.5 1.38-2.53 1.07-2.16m1.6-3.6l.72-1.87.88-2.58.33-1.12m1-3.8l.1-.32.53-2.67.43-2.73V197m.4-3.92l.1-1.65.1-2.93-.02-1.3m-.16-3.94l-.05-.94-.33-3.26-.24-1.66m-.66-3.87l-.28-1.46-.33-1.42"
       stroke="#000"
       stroke-width="2"
       fill="none"
       id="path46" />
    <path
       d="M621.64 270.17l-1.3.16.16-1.02-.13-1 1.02-.1z"
       id="path48" />
    <path
       d="M702.57 156.17l8.86 12.1-8.8 2.9z"
       stroke="#000"
       stroke-width="2"
       fill="#fff"
       id="path50" />
    <path
       d="M581.66 157.95h56.67v25.7h-56.67z"
       fill="#fff"
       fill-opacity="0"
       id="path52" />
    <path
       d="M600.9 183.16h-9v-.7l.9-.08c.92-.08 1.3-.3 1.3-.92 0-.6-.35-1.6-1.3-3.8h-6.28l-.36.95c-.34.88-.87 2.05-.87 2.72 0 .73.6 1.03 2.25 1.15v.7h-5.64v-.7c1.3-.23 1.72-.73 2.78-3.35l6.17-15.22h.78l6.2 14.57c1.42 3.38 1.92 4 3.07 4v.7m-8.52-6.6l-2.82-6.78-2.62 6.78h5.44M621.05 183.16h-9v-.7l.9-.08c.93-.08 1.3-.3 1.3-.92 0-.6-.34-1.6-1.3-3.8h-6.27l-.37.95c-.32.88-.85 2.05-.85 2.72 0 .73.6 1.03 2.26 1.15v.7h-5.63v-.7c1.28-.23 1.7-.73 2.76-3.35L611 163.9h.8l6.18 14.57c1.43 3.38 1.93 4 3.07 4v.7m-8.5-6.6l-2.83-6.78-2.62 6.78h5.44M634.55 159.73h-5.17v11.77h-1.3v-11.77h-5.16v-1.3h11.63v1.3"
       id="path54" />
    <path
       d="M677.05 237.95h99.87v39.76h-99.87z"
       fill="#fff"
       fill-opacity="0"
       id="path56" />
    <path
       d="M687.53 276.47v.82c-3.9-3.7-6.67-9.42-6.67-16.88 0-7.33 2.77-13.2 6.67-16.87v.82c-2.47 3.02-4.45 7.74-4.45 16.05 0 8.4 1.98 13.03 4.45 16.05M707.1 266.65h-8.04v-.63l.8-.07c.82-.08 1.15-.28 1.15-.83 0-.55-.3-1.42-1.14-3.4h-5.62l-.33.85c-.3.78-.76 1.83-.76 2.43 0 .65.55.92 2.02 1.02v.63h-5.04v-.63c1.14-.2 1.52-.65 2.47-3l5.5-13.6h.7l5.56 13.03c1.27 3.02 1.72 3.57 2.75 3.57v.63m-7.6-5.9l-2.54-6.07-2.35 6.07h4.9M725.15 266.65h-8.05v-.63l.8-.07c.82-.08 1.15-.28 1.15-.83 0-.55-.3-1.42-1.15-3.4h-5.62l-.33.85c-.3.78-.77 1.83-.77 2.43 0 .65.55.92 2.02 1.02v.63h-5.04v-.63c1.14-.2 1.52-.65 2.47-3l5.52-13.6h.7l5.55 13.03c1.27 3.02 1.72 3.57 2.75 3.57v.63m-7.63-5.9l-2.52-6.07-2.35 6.07h4.87M737.22 245.67h-4.63v10.53h-1.17v-10.53h-4.6v-1.16h10.4v1.17M742.97 244.37v-.82c3.9 3.67 6.67 9.4 6.67 16.87 0 7.32-2.77 13.2-6.67 16.87v-.83c2.47-3.02 4.45-7.74 4.45-16.05 0-8.4-1.98-13.03-4.45-16.05M764.43 246.44h-9.84v-1.16h9.83v1.16M772.52 250.33h-4.88v-.26c1.3-.08 1.68-.45 1.68-1.42v-7.93c0-.6-.16-.87-.53-.87-.2 0-.5.1-.8.22l-.48.17V240l3.16-1.6.16.04V249c0 .75.35 1.07 1.68 1.07v.26"
       id="path58" />
    <path
       d="M45.57 141.65h64.1v28.74h-64.1z"
       fill="#fff"
       fill-opacity="0"
       id="path60" />
    <path
       d="M56.24 158.3l.3.33c-.07.13-1.83 2.8-5.18 2.8-2.44 0-4.9-1.37-4.9-4.77 0-4.58 3.5-8.34 7.42-9.2.5-.12.95-.18 1.4-.18 1.48 0 2.45.73 2.45 1.95 0 .67-.64 1.77-1.55 1.77-.77 0-1.16-.52-1.16-1.08 0-1.06 1.03-.87 1.03-1.43 0-.33-.56-.5-1-.5-2.15 0-4.4 1.56-5.55 4.45-.48 1.2-.8 2.6-.8 4.32 0 2.65 1.52 3.77 3.35 3.77 2.1 0 3.86-1.9 4.2-2.24M69.9 169.36v.7c-3.23-3.07-5.53-7.83-5.53-14.03 0-6.08 2.3-10.96 5.53-14v.68c-2.05 2.5-3.7 6.43-3.7 13.33 0 6.98 1.65 10.83 3.7 13.33M86.16 161.2h-6.68v-.5l.67-.07c.68-.07.95-.23.95-.7 0-.45-.25-1.17-.95-2.8h-4.67l-.27.7c-.24.64-.64 1.5-.64 2 0 .55.46.77 1.68.86v.5h-4.2v-.5c.97-.18 1.28-.55 2.07-2.5l4.6-11.3h.57l4.6 10.82c1.07 2.5 1.44 2.97 2.3 2.97v.5m-6.34-4.9l-2.1-5.03-1.94 5.04h4.03M96.2 143.8h-3.85v8.73h-.97v-8.74h-3.83v-.98h8.64v.97M100.96 142.7v-.68c3.23 3.05 5.54 7.82 5.54 14 0 6.1-2.3 10.97-5.54 14.03v-.7c2.05-2.5 3.7-6.4 3.7-13.32 0-6.97-1.65-10.82-3.7-13.32"
       id="path62" />
    <path
       d="M108.14 510.96h59.98v26.24h-59.98z"
       fill="#fff"
       fill-opacity="0"
       id="path64" />
    <path
       d="M122.06 526.68h.02c2.93-9.67 3.5-11.64 3.97-12.37.62-.94 1.4-1.52 2.36-1.52 1.03 0 1.82.76 1.82 1.74 0 .7-.38 1.24-1.1 1.24-1 0-.85-1.18-1.52-1.18-1.12 0-1.47 1.52-1.68 2.16l-3.96 13.03h-.42c-1.95-2.66-3.84-5.8-5.35-9.88h-.05c-.75 3.6-2.18 10.14-5.38 10.14-1 0-1.8-.77-1.8-1.74 0-.7.37-1.25 1.1-1.25 1 0 .85 1.18 1.5 1.18 2.5 0 3.8-9.42 4.54-12.88h.57c1.62 4.04 3.2 8.5 5.4 11.33M141.6 536.22v.63c-2.94-2.78-5.03-7.12-5.03-12.77 0-5.54 2.1-9.98 5.04-12.76v.63c-1.86 2.28-3.35 5.85-3.35 12.13 0 6.35 1.5 9.86 3.36 12.14M157.7 529.27H151v-.52l.67-.06c.7-.07.96-.24.96-.7 0-.45-.25-1.18-.96-2.82H147l-.27.7c-.24.65-.64 1.52-.64 2.02 0 .54.45.77 1.67.85v.52h-4.2v-.52c.97-.16 1.28-.54 2.06-2.5l4.6-11.3h.57l4.6 10.84c1.07 2.5 1.44 2.95 2.3 2.95v.52m-6.34-4.9l-2.1-5.04-1.94 5.04h4.04M160.18 511.95v-.63c2.95 2.78 5.04 7.12 5.04 12.76 0 5.54-2.1 10-5.04 12.77v-.63c1.87-2.28 3.36-5.85 3.36-12.14 0-6.35-1.5-9.85-3.36-12.13"
       id="path66" />
    <path
       d="M763.62 131.08h50.06v26.24h-50.06z"
       fill="#fff"
       fill-opacity="0"
       id="path68" />
    <path
       d="M774.3 146.5l.3.32c-.1.12-1.85 2.8-5.2 2.8-2.44 0-4.9-1.37-4.9-4.77 0-4.6 3.5-8.34 7.42-9.22.5-.1.95-.16 1.4-.16 1.48 0 2.46.72 2.46 1.95 0 .66-.64 1.76-1.56 1.76-.76 0-1.16-.52-1.16-1.08 0-1.05 1.04-.87 1.04-1.43 0-.3-.56-.48-1-.48-2.16 0-4.4 1.55-5.56 4.44-.48 1.2-.8 2.6-.8 4.3 0 2.67 1.53 3.8 3.35 3.8 2.1 0 3.85-1.9 4.2-2.25M787.17 156.34v.63c-2.94-2.78-5.04-7.12-5.04-12.77 0-5.54 2.1-9.98 5.04-12.76v.63c-1.87 2.28-3.36 5.85-3.36 12.13 0 6.35 1.5 9.86 3.37 12.14M803.25 149.4h-6.68v-.53l.67-.06c.68-.05.95-.22.95-.67 0-.46-.26-1.2-.96-2.83h-4.67l-.27.7c-.25.65-.65 1.52-.65 2.02 0 .54.46.77 1.7.85v.52h-4.2v-.53c.95-.16 1.26-.54 2.05-2.5l4.58-11.3h.58l4.6 10.84c1.07 2.52 1.44 2.97 2.3 2.97v.52m-6.34-4.9l-2.1-5.05-1.94 5.05h4.04M805.74 132.07v-.63c2.95 2.78 5.05 7.12 5.05 12.76 0 5.55-2.1 10-5.06 12.77v-.63c1.87-2.28 3.37-5.85 3.37-12.14 0-6.35-1.5-9.85-3.36-12.13"
       id="path70" />
    <path
       d="M143.97 254.8h39.6V277h-39.6z"
       fill="#fff"
       fill-opacity="0"
       id="path72" />
    <path
       d="M160.4 271.02h-8.18v-.8c1.08-.08 1.52-.28 1.52-.7 0-.4-.3-.97-1.12-2.16-.5-.7-.98-1.43-1.42-2.14-.17.2-.34.44-.55.68-1.32 1.6-2.17 2.95-2.17 3.5 0 .5.48.74 1.7.8v.82h-5.73v-.8c1.25-.08 1.93-.62 3.83-3.17l1.46-1.9c.5-.64.24-.33.75-.95l-4.36-6.68c-.68-1.02-.88-1.2-1.76-1.32v-.82h8.48v.82c-1.12.03-1.6.24-1.6.64 0 .44.85 1.87 1.97 3.33.14.17.3.37.44.57l1.23-1.56c.9-1.18 1.28-1.66 1.28-2.17 0-.5-.27-.67-1.05-.73l-.68-.07v-.82h5.7v.82c-1.05.17-1.73.54-2.37 1.32l-3.43 4.28 5.02 7.73c.24.37.48.5 1.02.68v.82M165.16 270.76l.38-.84c.46-1 1.27-2.28 2.25-3.3.62-.65 1.34-1.1 1.9-1.1.66 0 1.12.52 1.12 1.24s-.4 1.3-1.13 1.3c-.44 0-.63-.27-.85-.63-.14-.24-.22-.34-.38-.34-.44 0-1.1.78-1.97 2.25-1.03 1.77-1.46 2.73-2.66 6.76H162l1.96-7c.33-1.24.38-1.46.38-1.96s-.43-.62-.9-.62c-.2 0-.4.02-.75.07v-.42l3.7-.65.08.05M179.6 265.5l-.48 3.37h-.4c-.23-2-.95-2.78-2.12-2.78-.84 0-1.42.46-1.42 1.35 0 .65.36 1.35 1.3 2.45 1.2 1.4 1.63 2.33 1.63 3.26 0 2-1.45 3.22-3.44 3.22-.4 0-.77-.03-1.32-.24-.46-.2-.8-.22-1.06-.22s-.53.12-.7.5h-.38l.48-3.8h.38c.34 2.27 1.16 3.25 2.4 3.25 1.13 0 1.83-.67 1.83-1.84 0-.77-.42-1.6-1.36-2.76-1.03-1.3-1.5-2.38-1.5-3.15 0-1.58 1.12-2.6 2.9-2.6.4 0 .74.1 1.34.25.45.15.67.17.86.17.36 0 .53-.1.72-.43h.34"
       id="path74" />
    <path
       d="M606.7 282.82h15.32v19.94H606.7z"
       fill="#fff"
       fill-opacity="0"
       id="path76" />
    <path
       d="M708.5 112.13h15.33v25.45H708.5z"
       fill="#fff"
       fill-opacity="0"
       id="path80" />
    <path
       d="M347.32 437.95H800v97.95H347.32z"
       stroke="#e5e5e5"
       fill="#e5e5e5"
       id="path84" />
    <path
       d="M358.5 445.53h430.33v82.8H358.5z"
       fill-opacity="0"
       id="path86" />
    <path
       d="M163.22 445.2c0 5.52-4.47 10-10 10-5.52 0-10-4.48-10-10 0-5.53 4.48-10 10-10 5.53 0 10 4.47 10 10zM280.37 380.6c0 5.52-4.48 10-10 10-5.53 0-10-4.48-10-10s4.47-10 10-10c5.52 0 10 4.48 10 10z"
       stroke="#c92d39"
       fill="#ffbbb1"
       id="path90" />
    <path
       d="M164.75 440.8c0 .54-.45 1-1 1-.56 0-1-.46-1-1 0-.56.44-1 1-1 .55 0 1 .44 1 1zm3.43-2c0 .56-.45 1-1 1s-1-.44-1-1c0-.55.45-1 1-1s1 .45 1 1zm3.44-1.98c0 .55-.45 1-1 1-.56 0-1-.45-1-1 0-.56.44-1 1-1 .55 0 1 .44 1 1zm3.43-2c0 .56-.45 1-1 1s-1-.44-1-1c0-.54.45-1 1-1s1 .46 1 1zm3.44-1.98c0 .56-.46 1-1 1-.57 0-1-.44-1-1 0-.55.43-1 1-1 .54 0 1 .45 1 1zm3.42-1.98c0 .55-.45 1-1 1s-1-.45-1-1 .45-1 1-1 1 .45 1 1zm3.43-2c0 .56-.44 1-1 1-.55 0-1-.44-1-1 0-.54.45-1 1-1 .56 0 1 .46 1 1zm3.44-1.98c0 .56-.46 1-1 1-.56 0-1-.44-1-1 0-.55.44-1 1-1 .54 0 1 .45 1 1zm3.42-1.98c0 .55-.44 1-1 1-.55 0-1-.45-1-1s.45-1 1-1c.56 0 1 .45 1 1zm3.44-2c0 .56-.45 1-1 1s-1-.44-1-1c0-.54.45-1 1-1s1 .46 1 1zm3.43-1.97c0 .55-.45 1-1 1-.56 0-1-.45-1-1 0-.56.44-1 1-1 .55 0 1 .44 1 1zm3.43-2c0 .56-.45 1-1 1s-1-.44-1-1c0-.54.45-1 1-1s1 .46 1 1zm3.43-1.98c0 .55-.45 1-1 1s-1-.45-1-1 .45-1 1-1 1 .45 1 1zm3.44-1.98c0 .55-.45 1-1 1-.56 0-1-.45-1-1 0-.56.44-1 1-1 .55 0 1 .44 1 1zm3.43-2c0 .56-.45 1-1 1s-1-.44-1-1c0-.54.45-1 1-1s1 .46 1 1zm3.44-1.98c0 .55-.45 1-1 1-.56 0-1-.45-1-1 0-.56.44-1 1-1 .55 0 1 .44 1 1zm3.43-2c0 .56-.45 1-1 1s-1-.44-1-1c0-.55.45-1 1-1s1 .45 1 1zm3.44-1.98c0 .55-.45 1-1 1-.56 0-1-.45-1-1s.44-1 1-1c.55 0 1 .45 1 1zm3.43-2c0 .57-.45 1-1 1s-1-.43-1-1c0-.54.45-1 1-1s1 .46 1 1zm3.43-1.97c0 .55-.44 1-1 1-.55 0-1-.45-1-1 0-.56.45-1 1-1 .56 0 1 .44 1 1zm3.44-2c0 .56-.45 1-1 1s-1-.44-1-1c0-.54.45-1 1-1s1 .46 1 1zm3.43-1.98c0 .56-.44 1-1 1-.55 0-1-.44-1-1 0-.55.45-1 1-1 .56 0 1 .45 1 1zm3.44-1.98c0 .54-.44 1-1 1-.54 0-1-.46-1-1 0-.56.46-1 1-1 .56 0 1 .44 1 1zm3.44-2c0 .55-.44 1-1 1-.55 0-1-.45-1-1s.45-1 1-1c.56 0 1 .45 1 1zm3.44-2c0 .57-.45 1-1 1s-1-.43-1-1c0-.54.45-1 1-1s1 .46 1 1zm3.43-1.97c0 .55-.44 1-1 1-.54 0-1-.45-1-1s.46-1 1-1c.56 0 1 .45 1 1zm3.45-2c0 .56-.45 1-1 1-.56 0-1-.44-1-1 0-.54.44-1 1-1 .55 0 1 .46 1 1zm3.43-1.97c0 .55-.45 1-1 1s-1-.45-1-1c0-.56.45-1 1-1s1 .44 1 1zm3.44-2c0 .56-.45 1-1 1-.56 0-1-.44-1-1 0-.54.44-1 1-1 .55 0 1 .46 1 1z"
       id="path92" />
    <path
       d="M164.27 441.64l-1 .58-.77-1.86.77-.45zM260.4 383.92l.84 1.64-.85.5-1-1.74.97-.57zM263.4 372.32c0 .55-.44 1-1 1-.54 0-1-.45-1-1s.46-1 1-1c.56 0 1 .45 1 1zm-2.1-3.4c0 .55-.44 1-1 1-.55 0-1-.45-1-1 0-.56.45-1 1-1 .56 0 1 .44 1 1zm-2.1-3.4c0 .54-.45 1-1 1-.56 0-1-.46-1-1 0-.57.44-1 1-1 .55 0 1 .43 1 1zm-2.1-3.42c0 .55-.46 1-1 1-.57 0-1-.45-1-1s.43-1 1-1c.54 0 1 .45 1 1zm-2.12-3.4c0 .54-.45 1-1 1s-1-.46-1-1c0-.56.45-1 1-1s1 .44 1 1zm-2.1-3.42c0 .55-.46 1-1 1-.56 0-1-.45-1-1s.44-1 1-1c.54 0 1 .45 1 1zm-2.12-3.4c0 .55-.45 1-1 1s-1-.45-1-1c0-.56.45-1 1-1s1 .44 1 1zm-2.1-3.4c0 .54-.46 1-1 1-.56 0-1-.46-1-1 0-.57.44-1 1-1 .54 0 1 .43 1 1zm-2.12-3.42c0 .55-.44 1-1 1-.55 0-1-.45-1-1s.45-1 1-1c.56 0 1 .45 1 1zm-2.1-3.4c0 .54-.45 1-1 1-.56 0-1-.46-1-1 0-.56.44-1 1-1 .55 0 1 .44 1 1zm-2.1-3.42c0 .56-.46 1-1 1-.57 0-1-.44-1-1 0-.55.43-1 1-1 .54 0 1 .45 1 1zm-2.12-3.4c0 .55-.45 1-1 1s-1-.45-1-1c0-.56.45-1 1-1s1 .44 1 1zm-2.1-3.4c0 .54-.46 1-1 1-.56 0-1-.46-1-1 0-.56.44-1 1-1 .54 0 1 .44 1 1zM236 328c0 .55-.45 1-1 1s-1-.45-1-1 .45-1 1-1 1 .45 1 1zm-2.1-3.4c0 .54-.45 1-1 1-.56 0-1-.46-1-1 0-.56.44-1 1-1 .55 0 1 .44 1 1zm-2.12-3.42c0 .56-.44 1-1 1-.55 0-1-.44-1-1 0-.55.45-1 1-1 .56 0 1 .45 1 1zm-2.1-3.4c0 .55-.45 1-1 1-.56 0-1-.45-1-1 0-.56.44-1 1-1 .55 0 1 .44 1 1zm-2.1-3.4c0 .54-.46 1-1 1-.56 0-1-.46-1-1 0-.56.44-1 1-1 .54 0 1 .44 1 1zm-2.12-3.42c0 .55-.45 1-1 1s-1-.45-1-1 .45-1 1-1 1 .45 1 1zm-2.1-3.4c0 .55-.46 1-1 1-.56 0-1-.45-1-1 0-.56.44-1 1-1 .54 0 1 .44 1 1zm-2.12-3.4c0 .54-.45 1-1 1s-1-.46-1-1c0-.57.45-1 1-1s1 .43 1 1zm-2.1-3.42c0 .55-.45 1-1 1-.56 0-1-.45-1-1s.44-1 1-1c.55 0 1 .45 1 1zm-2.1-3.4c0 .54-.46 1-1 1-.57 0-1-.46-1-1 0-.56.43-1 1-1 .54 0 1 .44 1 1zm-2.12-3.42c0 .55-.45 1-1 1s-1-.45-1-1 .45-1 1-1 1 .45 1 1zm-2.1-3.4c0 .55-.46 1-1 1-.56 0-1-.45-1-1 0-.56.44-1 1-1 .54 0 1 .44 1 1zm-2.12-3.4c0 .54-.45 1-1 1s-1-.46-1-1c0-.57.45-1 1-1s1 .43 1 1zm-2.1-3.42c0 .55-.46 1-1 1-.56 0-1-.45-1-1s.44-1 1-1c.54 0 1 .45 1 1zm-2.12-3.4c0 .54-.44 1-1 1-.55 0-1-.46-1-1 0-.56.45-1 1-1 .56 0 1 .44 1 1zm-2.1-3.42c0 .56-.45 1-1 1-.56 0-1-.44-1-1 0-.55.44-1 1-1 .55 0 1 .45 1 1z"
       id="path94" />
    <path
       d="M263.74 372.56l-.8.6-.65.86-.75-1.2 1.7-1.05zM204.24 276.4l-1.7 1.05-.7-1.12 1-.28.84-.55z"
       id="path96" />
    <path
       d="M281.37 380.6l1.58-.02 2.83-.15 4-.37 5.9-.8 9.22-1.67 15.53-3.5 28.46-7.64 56.22-17.67 106.94-38.55 67.74-26.9"
       stroke="#c92d39"
       fill="none"
       id="path98" />
    <path
       d="M281.4 381.1h-.6l.07-.5-.07-.5h.58z"
       fill="#c92d39"
       id="path100" />
    <path
       d="M600.27 275.22L584.97 295l-9.4-23.66z"
       stroke="#c92d39"
       fill="#fff"
       id="path102" />
    <path
       d="M434.54 314.8h24.98v25.06h-24.98z"
       fill="#fff"
       id="path104" />
    <path
       d="M458.36 339.27h-11.13v-.87l1.1-.1c1.15-.1 1.6-.38 1.6-1.14 0-.76-.42-1.97-1.6-4.7h-7.77l-.45 1.17c-.4 1.07-1.07 2.52-1.07 3.35 0 .9.76 1.28 2.8 1.42v.87h-6.98v-.87c1.6-.28 2.1-.9 3.42-4.15l7.65-18.84h.96l7.68 18.06c1.76 4.18 2.4 4.94 3.8 4.94v.87m-10.54-8.17l-3.5-8.4-3.25 8.4h6.75"
       id="path106" />
    <path
       d="M118.93 452.36h41.72v22.2h-41.72z"
       fill="#fff"
       fill-opacity="0"
       id="path108" />
    <path
       d="M135.35 468.58h-8.17v-.8c1.08-.08 1.52-.28 1.52-.7 0-.4-.3-.97-1.12-2.16-.5-.7-.98-1.43-1.42-2.14l-.54.68c-1.33 1.6-2.18 2.95-2.18 3.5 0 .5.48.74 1.7.8v.82h-5.73v-.8c1.26-.08 1.94-.62 3.84-3.17l1.46-1.9c.5-.63.24-.32.75-.94l-4.35-6.68c-.68-1.02-.88-1.2-1.76-1.32v-.82h8.48v.82c-1.12.03-1.6.24-1.6.64 0 .44.85 1.87 1.97 3.33.13.17.3.37.43.57l1.23-1.56c.9-1.18 1.28-1.66 1.28-2.17 0-.5-.27-.68-1.05-.74l-.7-.07v-.82h5.7v.82c-1.04.17-1.72.54-2.36 1.32l-3.43 4.28 5.03 7.73c.24.36.48.5 1.02.67v.8M146.93 470.87l.34.3c-1.64 2.24-2.24 2.72-3.36 2.72-.6 0-1.12-.4-1.12-1.3 0-.25.05-.56.38-1.8l1.06-3.9c.2-.74.33-1.6.33-1.9 0-.42-.2-.68-.57-.68-.96 0-2.04 1.17-3.55 3.4-1.08 1.6-1.27 2.16-2.4 5.95h-1.8l2.3-8.4c.03-.1.05-.26.05-.4 0-.48-.33-.63-1.56-.65v-.38c1.95-.4 2.62-.48 3.9-.75l.08.04-1.6 5.23c2.4-3.84 4-5.28 5.54-5.28 1.03 0 1.56.6 1.56 1.46 0 .43-.1.93-.24 1.44l-1.35 4.87c-.23.86-.32 1.27-.32 1.46 0 .2.1.43.38.43.34 0 .77-.38 1.47-1.27l.5-.63M156.67 463.07l-.48 3.36h-.4c-.23-2-.95-2.8-2.13-2.8-.84 0-1.42.5-1.42 1.38 0 .66.36 1.36 1.3 2.46 1.2 1.4 1.63 2.33 1.63 3.26 0 2-1.46 3.22-3.45 3.22-.4 0-.77-.03-1.32-.24-.45-.2-.78-.22-1.05-.22-.26 0-.53.12-.7.5h-.38l.48-3.8h.4c.32 2.27 1.14 3.25 2.4 3.25 1.1 0 1.8-.67 1.8-1.84 0-.78-.4-1.6-1.34-2.77-1.02-1.3-1.5-2.38-1.5-3.15 0-1.58 1.13-2.6 2.9-2.6.4 0 .75.1 1.35.25.46.15.67.17.86.17.37 0 .54-.1.73-.43h.34"
       id="path110" />
    <path
       d="M281.85 387.4h16.98v16.8h-16.98z"
       fill="#fff"
       fill-opacity="0"
       id="path112" />
    <path
       d="M298.27 403.62h-8.18v-.8c1.08-.08 1.52-.28 1.52-.7 0-.4-.3-.97-1.12-2.16-.5-.7-1-1.43-1.43-2.14l-.54.68c-1.32 1.6-2.17 2.95-2.17 3.5 0 .5.47.74 1.7.8v.82h-5.74v-.8c1.26-.08 1.93-.62 3.83-3.17l1.46-1.9c.52-.64.25-.34.76-.95l-4.34-6.68c-.68-1.02-.88-1.2-1.77-1.32v-.82h8.48v.82c-1.1.03-1.6.23-1.6.64 0 .44.86 1.87 1.98 3.33l.45.57 1.22-1.56c.92-1.18 1.3-1.66 1.3-2.17 0-.5-.28-.67-1.06-.73l-.67-.07v-.82h5.7v.82c-1.05.17-1.73.54-2.38 1.32l-3.42 4.27 5.02 7.73c.24.37.47.5 1.02.68v.82"
       id="path114" />
    <path
       d="M245.58 407.45h96.68v14.45h-96.68z"
       fill="#fff"
       fill-opacity="0"
       id="path116" />
    <path
       d="m 236.17122,423.57108 -0.2662,0.34606 c -3.42067,-1.94326 -5.28407,-5.61682 -5.28407,-9.29038 0,-4.01962 1.89002,-7.13416 5.36393,-9.1839 l 0.17303,0.33275 c -3.00806,2.56883 -3.68687,4.57864 -3.68687,8.7846 0,4.01962 0.6655,6.46866 3.68687,8.99756 m 11.15378,-3.47391 h -5.24414 v -0.5324 c 0.69212,-0.0266 0.98494,-0.15972 0.98494,-0.42592 0,-0.2662 -0.19965,-0.62557 -0.71874,-1.38424 -0.33275,-0.45254 -0.62557,-0.90508 -0.9317,-1.35762 l -0.33275,0.42592 c -0.82522,1.02487 -1.37093,1.89002 -1.37093,2.23608 0,0.31944 0.30613,0.47916 1.09142,0.5324 v 0.50578 h -3.68687 v -0.5324 c 0.7986,-0.0266 1.23783,-0.37268 2.44904,-1.9965 l 0.9317,-1.22452 0.47916,-0.59895 -2.76848,-4.2592 c -0.43923,-0.6655 -0.57233,-0.77198 -1.13135,-0.86515 v -0.5324 h 5.41717 v 0.5324 c -0.71874,0.0266 -1.01156,0.15972 -1.01156,0.3993 0,0.29282 0.5324,1.1979 1.26445,2.1296 0.0932,0.1331 0.19965,0.2662 0.2662,0.3993 l 0.7986,-1.01156 c 0.58564,-0.75867 0.82522,-1.0648 0.82522,-1.39755 0,-0.30613 -0.17303,-0.3993 -0.6655,-0.45254 l -0.43923,-0.0532 v -0.5324 h 3.63363 v 0.5324 c -0.6655,0.10648 -1.10473,0.34606 -1.51734,0.85184 l -2.18284,2.70193 3.1944,4.95132 c 0.1331,0.23958 0.30613,0.33275 0.6655,0.43923 v 0.5324 m 20.16465,-6.94782 h -12.7776 v -1.43748 h 12.7776 v 1.43748 m 0,4.33906 h -12.7776 v -1.4641 h 12.7776 v 1.4641 m 17.58251,2.59545 h -5.23083 v -0.5324 c 0.70543,-0.0266 0.98494,-0.15972 0.98494,-0.42592 0,-0.2662 -0.19965,-0.62557 -0.71874,-1.38424 -0.31944,-0.45254 -0.62557,-0.90508 -0.90508,-1.35762 -0.1331,0.1331 -0.22627,0.2662 -0.34606,0.42592 -0.86515,1.02487 -1.41086,1.89002 -1.41086,2.23608 0,0.31944 0.30613,0.47916 1.09142,0.5324 v 0.50578 h -3.67356 v -0.5324 c 0.7986,-0.0266 1.23783,-0.37268 2.44904,-1.9965 l 0.9317,-1.22452 0.47916,-0.59895 -2.76848,-4.2592 c -0.43923,-0.6655 -0.55902,-0.77198 -1.13135,-0.86515 v -0.5324 h 5.41717 v 0.5324 c -0.70543,0.0266 -1.01156,0.15972 -1.01156,0.3993 0,0.29282 0.5324,1.1979 1.25114,2.1296 0.0932,0.1331 0.19965,0.2662 0.2662,0.3993 l 0.7986,-1.01156 c 0.58564,-0.75867 0.82522,-1.0648 0.82522,-1.39755 0,-0.30613 -0.17303,-0.3993 -0.6655,-0.45254 l -0.43923,-0.0532 v -0.5324 h 3.66025 v 0.5324 c -0.6655,0.10648 -1.11804,0.34606 -1.51734,0.85184 l -2.18284,2.72855 3.1944,4.95132 c 0.15972,0.23958 0.31944,0.33275 0.6655,0.43923 v 0.5324 m 3.03468,-0.19965 0.23958,-0.5324 c 0.29282,-0.6655 0.7986,-1.4641 1.43748,-2.1296 0.3993,-0.3993 0.87846,-0.69212 1.22452,-0.69212 0.43923,0 0.71874,0.33275 0.71874,0.7986 0,0.45254 -0.2662,0.7986 -0.71874,0.7986 -0.2662,0 -0.3993,-0.1331 -0.5324,-0.3993 -0.0932,-0.1331 -0.1331,-0.19965 -0.23958,-0.19965 -0.2662,0 -0.70543,0.50578 -1.26445,1.4641 -0.6655,1.11804 -0.9317,1.7303 -1.7303,4.29913 h -1.14466 l 1.23783,-4.47216 c 0.21296,-0.7986 0.2662,-0.9317 0.2662,-1.25114 0,-0.33275 -0.29282,-0.3993 -0.59895,-0.3993 -0.1331,0 -0.2662,0 -0.47916,0.0399 v -0.23958 l 2.3958,-0.42592 0.0266,0.0399 m 8.3853,-0.0532 -0.30613,2.1296 h -0.23958 c -0.15972,-1.26445 -0.62557,-1.77023 -1.37093,-1.77023 -0.5324,0 -0.90508,0.30613 -0.90508,0.87846 0,0.3993 0.22627,0.85184 0.82522,1.55727 0.77198,0.89177 1.0648,1.49072 1.0648,2.08967 0,1.26445 -0.95832,2.04974 -2.22277,2.04974 -0.2662,0 -0.47916,0 -0.83853,-0.1331 -0.2662,-0.1331 -0.50578,-0.1331 -0.6655,-0.1331 -0.17303,0 -0.34606,0.0666 -0.45254,0.30613 h -0.23958 l 0.30613,-2.43573 h 0.23958 c 0.21296,1.4641 0.74536,2.08967 1.54396,2.08967 0.71874,0 1.15797,-0.42592 1.15797,-1.1979 0,-0.47916 -0.2662,-0.99825 -0.86515,-1.7303 -0.6655,-0.85184 -0.97163,-1.53065 -0.97163,-2.02312 0,-1.01156 0.71874,-1.66375 1.8634,-1.66375 0.2662,0 0.46585,0.0532 0.85184,0.15972 0.29282,0.0932 0.42592,0.10648 0.5324,0.10648 0.2662,0 0.35937,-0.0666 0.47916,-0.2662 h 0.21296 m 21.13628,-1.26445 h -5.65675 v 5.65675 h -1.42417 v -5.64344 h -5.65675 v -1.43748 h 5.65675 v -5.65675 h 1.43748 v 5.65675 h 5.67006 v 1.43748 m 16.35799,4.75167 h -5.23083 v -0.5324 c 0.70543,-0.0266 0.98494,-0.15972 0.98494,-0.42592 0,-0.2662 -0.19965,-0.62557 -0.71874,-1.38424 -0.31944,-0.45254 -0.62557,-0.90508 -0.90508,-1.35762 -0.1331,0.1331 -0.22627,0.2662 -0.34606,0.42592 -0.85184,1.02487 -1.39755,1.89002 -1.39755,2.23608 0,0.31944 0.30613,0.47916 1.09142,0.5324 v 0.50578 h -3.66025 v -0.5324 c 0.7986,-0.0266 1.22452,-0.37268 2.44904,-1.9965 l 0.9317,-1.22452 c 0.31944,-0.3993 0.1331,-0.21296 0.46585,-0.59895 l -2.75517,-4.2592 c -0.43923,-0.6655 -0.55902,-0.77198 -1.13135,-0.86515 v -0.5324 h 5.41717 v 0.5324 c -0.70543,0.0266 -1.01156,0.15972 -1.01156,0.3993 0,0.29282 0.5324,1.1979 1.23783,2.1296 l 0.29282,0.3993 0.77198,-1.01156 c 0.58564,-0.75867 0.82522,-1.0648 0.82522,-1.39755 0,-0.30613 -0.17303,-0.3993 -0.6655,-0.45254 l -0.43923,-0.0532 v -0.5324 h 3.64694 v 0.5324 c -0.6655,0.10648 -1.10473,0.34606 -1.51734,0.85184 l -2.19615,2.72855 3.1944,4.95132 c 0.17303,0.23958 0.31944,0.33275 0.6655,0.43923 v 0.5324 m 7.40036,1.42417 0.21296,0.19965 c -1.0648,1.41086 -1.43748,1.7303 -2.15622,1.7303 -0.3993,0 -0.71874,-0.2662 -0.71874,-0.85184 0,-0.1331 0.0266,-0.34606 0.23958,-1.14466 l 0.6655,-2.47566 c 0.1331,-0.47916 0.22627,-1.03818 0.22627,-1.1979 0,-0.29282 -0.15972,-0.46585 -0.3993,-0.46585 -0.59895,0 -1.29107,0.74536 -2.2627,2.16953 -0.6655,1.02487 -0.7986,1.37093 -1.51734,3.79335 h -1.15797 l 1.4641,-5.36393 0.0266,-0.2662 c 0,-0.29282 -0.21296,-0.3993 -0.99825,-0.3993 v -0.2662 c 1.23783,-0.22627 1.67706,-0.29282 2.48897,-0.46585 l 0.0532,0.0399 -1.02487,3.3275 c 1.54396,-2.43573 2.58214,-3.36743 3.55377,-3.36743 0.6655,0 0.99825,0.3993 0.99825,0.9317 0,0.2662 -0.0666,0.61226 -0.1331,0.9317 l -0.87846,3.11454 c -0.1331,0.5324 -0.21296,0.7986 -0.21296,0.9317 0,0.1331 0.0666,0.2662 0.23958,0.2662 0.22627,0 0.49247,-0.23958 0.9317,-0.7986 0.1331,-0.1331 0.22627,-0.2662 0.33275,-0.3993 m 6.24239,-4.95132 -0.30613,2.1296 h -0.23958 c -0.17303,-1.26445 -0.62557,-1.77023 -1.38424,-1.77023 -0.5324,0 -0.90508,0.30613 -0.90508,0.87846 0,0.3993 0.23958,0.85184 0.83853,1.55727 0.77198,0.89177 1.0648,1.49072 1.0648,2.08967 0,1.26445 -0.9317,2.04974 -2.22277,2.04974 -0.2662,0 -0.49247,0 -0.83853,-0.1331 -0.29282,-0.1331 -0.50578,-0.1331 -0.6655,-0.1331 -0.18634,0 -0.34606,0.0666 -0.45254,0.30613 h -0.2662 l 0.31944,-2.43573 h 0.2662 c 0.19965,1.4641 0.71874,2.08967 1.51734,2.08967 0.71874,0 1.15797,-0.42592 1.15797,-1.1979 0,-0.47916 -0.23958,-0.99825 -0.83853,-1.7303 -0.6655,-0.85184 -0.97163,-1.53065 -0.97163,-2.02312 0,-1.01156 0.73205,-1.66375 1.8634,-1.66375 0.2662,0 0.46585,0.0532 0.85184,0.15972 0.29282,0.0932 0.43923,0.10648 0.55902,0.10648 0.22627,0 0.33275,-0.0666 0.45254,-0.2662 h 0.21296 m 3.18109,-10.79441 0.2662,-0.35937 c 3.30088,1.9965 5.27076,5.61682 5.27076,9.317 0,3.993 -1.90333,7.0543 -5.35062,9.1839 l -0.19965,-0.35937 c 3.0613,-2.5289 3.67356,-4.56533 3.67356,-8.7846 0,-4.04624 -0.5324,-6.5219 -3.68687,-9.01087"
       id="path118"
       inkscape:connector-curvature="0"
       style="stroke-width:1.33100009" />
    <g
       id="page1"
       transform="matrix(1.5066667,0,0,1.5066667,533.23799,202.88531)">
      <path
         inkscape:connector-curvature="0"
         d="m 68.682856,56.359133 c 0.148723,-0.347019 0.247871,-0.545315 1.834242,-0.545315 v -1.065844 c -0.842759,0.04957 -0.941908,0.04957 -1.958177,0.04957 -0.66925,0 -0.718824,0 -2.131686,-0.04957 v 1.065844 c 0.02479,0 1.189778,0 1.189778,0.322231 0,0.07436 -0.07436,0.223084 -0.09915,0.297445 l -2.900083,6.246337 -3.172743,-6.866013 h 1.363288 v -1.065844 c -0.594889,0.04957 -2.280409,0.04957 -2.974447,0.04957 -0.718824,0 -2.18126,0 -2.825724,-0.04957 v 1.065844 h 1.586372 l 4.585605,9.939608 c -0.123936,0.297445 -0.470954,1.016269 -0.59489,1.313714 -0.520528,1.115417 -1.313714,2.825724 -3.048807,2.825724 -0.09915,0 -0.396593,0 -0.669251,-0.148722 0.04957,-0.02479 0.793186,-0.322232 0.793186,-1.26414 0,-0.817973 -0.594889,-1.338501 -1.338501,-1.338501 -0.768399,0 -1.363288,0.520528 -1.363288,1.363288 0,1.164991 1.090631,2.206048 2.577854,2.206048 2.032538,0 3.371039,-1.834242 3.86678,-2.924873 z"
         id="use5" />
    </g>
    <g
       id="page1-4"
       transform="matrix(1.5066667,0,0,1.5066667,628.04516,37.104837)">
      <path
         inkscape:connector-curvature="0"
         d="m 68.569771,54.354559 -0.594889,-0.545315 c -0.322232,0.371806 -0.991482,0.917121 -1.908603,0.917121 -0.570103,0 -1.189779,-0.198297 -2.082113,-0.520528 -0.371806,-0.148723 -1.065843,-0.396593 -1.710307,-0.396593 -0.619676,0 -1.239352,0.198296 -1.660732,0.66925 l -1.288927,1.412862 0.594889,0.545316 c 0.322232,-0.371806 0.991482,-0.917121 1.908603,-0.917121 0.570103,0 1.189779,0.198296 2.082113,0.520528 0.371806,0.148722 1.065843,0.396593 1.710307,0.396593 0.619676,0 1.239352,-0.198297 1.660732,-0.669251 z"
         id="use6" />
      <path
         inkscape:connector-curvature="0"
         d="m 68.682856,61.617166 c 0.148723,-0.347019 0.247871,-0.545315 1.834242,-0.545315 v -1.065844 c -0.842759,0.04957 -0.941908,0.04957 -1.958177,0.04957 -0.66925,0 -0.718824,0 -2.131686,-0.04957 v 1.065844 c 0.02479,0 1.189778,0 1.189778,0.322231 0,0.07436 -0.07436,0.223084 -0.09915,0.297445 l -2.900083,6.246337 -3.172743,-6.866013 h 1.363288 v -1.065844 c -0.594889,0.04957 -2.280409,0.04957 -2.974447,0.04957 -0.718824,0 -2.18126,0 -2.825724,-0.04957 v 1.065844 h 1.586372 l 4.585605,9.939608 c -0.123936,0.297445 -0.470954,1.016269 -0.59489,1.313714 -0.520528,1.115417 -1.313714,2.825724 -3.048807,2.825724 -0.09915,0 -0.396593,0 -0.669251,-0.148722 0.04957,-0.02479 0.793186,-0.322232 0.793186,-1.26414 0,-0.817973 -0.594889,-1.338501 -1.338501,-1.338501 -0.768399,0 -1.363288,0.520528 -1.363288,1.363288 0,1.164991 1.090631,2.206048 2.577854,2.206048 2.032538,0 3.371039,-1.834242 3.86678,-2.924873 z"
         id="use8" />
    </g>
    <g
       id="page1-9"
       transform="matrix(1.8230666,0,0,1.8230666,251.30562,343.64012)">
      <path
         inkscape:connector-curvature="0"
         d="M 64.766502,81.522488 67.6418,78.22581 c 0.272658,-0.322232 0.495741,-0.520528 2.553067,-0.520528 v -1.065844 c -1.388075,0.04957 -1.437649,0.04957 -2.280409,0.04957 -0.718825,0 -1.784668,0 -2.478706,-0.04957 v 1.065844 c 0.470954,0 0.991483,0.123935 0.991483,0.297444 0,0.04957 -0.123936,0.223084 -0.17351,0.272658 l -2.156473,2.429131 -2.453919,-2.999233 h 1.041057 v -1.065844 c -0.570103,0.04957 -2.255622,0.04957 -2.924873,0.04957 -0.743611,0 -2.082112,0 -2.77615,-0.04957 v 1.065844 h 1.759881 l 3.86678,4.70954 -3.222317,3.643697 c -0.297444,0.347018 -0.470954,0.520528 -2.528279,0.520528 v 1.065843 c 1.487223,-0.04957 1.536797,-0.04957 2.305196,-0.04957 0.718824,0 1.759881,0 2.453918,0.04957 v -1.065843 c -0.470954,0 -0.991482,-0.123936 -0.991482,-0.297445 0,-0.02479 0,-0.04957 0.173509,-0.24787 l 2.478706,-2.800938 2.751363,3.346253 h -1.041057 v 1.065843 c 0.59489,-0.04957 2.255622,-0.04957 2.94966,-0.04957 0.743611,0 2.057325,0 2.751363,0.04957 v -1.065843 h -1.735094 z"
         id="use16" />
      <path
         inkscape:connector-curvature="0"
         d="m 79.168298,82.911952 c -0.640538,0.123975 -0.971139,0.57855 -0.971139,1.033126 0,0.4959 0.392588,0.661201 0.681863,0.661201 0.578551,0 1.053789,-0.495901 1.053789,-1.115777 0,-0.6612 -0.640538,-1.239751 -1.673664,-1.239751 -0.826501,0 -1.776977,0.371926 -2.644803,1.632339 -0.144638,-1.095113 -0.971138,-1.632339 -1.797639,-1.632339 -0.805839,0 -1.219089,0.619876 -1.467039,1.074451 -0.351263,0.743851 -0.661201,1.983602 -0.661201,2.086915 0,0.08265 0.08265,0.185963 0.227288,0.185963 0.1653,0 0.185962,-0.02066 0.309938,-0.495901 0.309937,-1.239751 0.702525,-2.438177 1.529026,-2.438177 0.495901,0 0.640538,0.351263 0.640538,0.950476 0,0.454575 -0.206625,1.260413 -0.351263,1.900952 l -0.57855,2.231552 c -0.08265,0.392588 -0.309938,1.322401 -0.413251,1.694327 -0.144637,0.537225 -0.371925,1.508364 -0.371925,1.611676 0,0.289275 0.227288,0.516563 0.537226,0.516563 0.227287,0 0.619875,-0.144637 0.74385,-0.557888 0.06199,-0.1653 0.826501,-3.285341 0.950476,-3.760579 0.103313,-0.454575 0.227288,-0.888488 0.330601,-1.343064 0.08265,-0.289275 0.1653,-0.619875 0.227287,-0.888488 0.06199,-0.185963 0.619876,-1.198426 1.136439,-1.653002 0.24795,-0.227287 0.785176,-0.702525 1.632339,-0.702525 0.330601,0 0.661201,0.06199 0.929814,0.24795 z"
         id="use18" />
      <path
         inkscape:connector-curvature="0"
         d="m 85.521121,87.230419 c 0.351263,0.06199 0.909151,0.185962 1.033126,0.206625 0.268613,0.08265 1.198426,0.41325 1.198426,1.405051 0,0.640539 -0.578551,2.314203 -2.975403,2.314203 -0.433913,0 -1.983602,-0.06199 -2.396852,-1.198426 0.8265,0.103312 1.239751,-0.537226 1.239751,-0.991801 0,-0.433913 -0.289275,-0.661201 -0.702526,-0.661201 -0.454575,0 -1.053788,0.351263 -1.053788,1.281076 0,1.219089 1.239751,1.983602 2.892753,1.983602 3.140703,0 4.070516,-2.314202 4.070516,-3.388653 0,-0.309938 0,-0.888489 -0.661201,-1.549689 -0.516563,-0.495901 -1.012463,-0.599213 -2.128239,-0.826501 -0.557888,-0.123975 -1.446377,-0.309938 -1.446377,-1.239751 0,-0.413251 0.371926,-1.900952 2.334865,-1.900952 0.867826,0 1.714989,0.3306 1.921615,1.074451 -0.909151,0 -0.950476,0.785176 -0.950476,0.805838 0,0.433913 0.392588,0.557888 0.57855,0.557888 0.289276,0 0.867826,-0.227288 0.867826,-1.095113 0,-0.867825 -0.785176,-1.756315 -2.396852,-1.756315 -2.706791,0 -3.429979,2.12824 -3.429979,2.975403 0,1.570352 1.529027,1.900952 2.004265,2.004265 z"
         id="use20" />
      <path
         style="stroke-width:1.19961405"
         id="use22"
         d="m 113.66155,79.688247 c 0.37181,0 0.74362,0 0.74362,-0.42138 0,-0.446166 -0.42138,-0.446166 -0.84276,-0.446166 H 99.706445 c -0.42138,0 -0.84276,0 -0.84276,0.446166 0,0.42138 0.371806,0.42138 0.743611,0.42138 z m -0.0992,4.412094 c 0.42138,0 0.84276,0 0.84276,-0.446166 0,-0.42138 -0.3718,-0.42138 -0.74361,-0.42138 H 99.607296 c -0.371805,0 -0.743611,0 -0.743611,0.42138 0,0.446166 0.42138,0.446166 0.84276,0.446166 z"
         inkscape:connector-curvature="0" />
      <path
         inkscape:connector-curvature="0"
         d="m 133.80386,70.864055 c -0.17351,-0.446167 -0.22308,-0.570102 -0.81797,-0.570102 -0.61968,0 -0.66925,0.123935 -0.84276,0.570102 l -6.14719,15.120102 c -0.17351,0.396593 -0.17351,0.446167 -0.86754,0.520529 -0.61968,0.07436 -0.71883,0.07436 -1.26414,0.07436 h -0.44617 v 1.065843 c 0.64446,-0.04957 2.13169,-0.04957 2.85051,-0.04957 0.66925,0 2.47871,0 3.04881,0.04957 v -1.065843 c -0.54532,0 -1.48723,0 -2.18126,-0.272658 0.0744,-0.223083 0.0744,-0.272657 0.12393,-0.371806 l 1.31372,-3.222317 h 6.64293 l 1.56158,3.866781 h -2.32998 v 1.065843 c 0.79318,-0.04957 3.19753,-0.04957 4.13944,-0.04957 0.79318,0 3.32146,0 3.94114,0.04957 v -1.065843 h -2.35477 z m -1.9086,3.643697 2.8753,7.138671 h -5.77538 z"
         id="use24" />
      <path
         inkscape:connector-curvature="0"
         d="m 151.9599,64.434452 h 5.76484 c 0.35126,0 0.72319,0 0.72319,-0.413251 0,-0.413251 -0.37193,-0.41325 -0.72319,-0.41325 h -12.33552 c -0.30994,0 -0.74385,0 -0.74385,0.41325 0,0.41325 0.43391,0.413251 0.74385,0.413251 h 5.74418 v 12.232212 c 0,0.309938 0,0.743851 0.41325,0.743851 0.41325,0 0.41325,-0.371925 0.41325,-0.743851 z"
         id="use26" />
      <path
         inkscape:connector-curvature="0"
         d="m 176.97445,103.45878 c 0.0496,0.0248 0.27266,0.27266 0.29745,0.27266 h 0.54531 c 0.0744,0 0.27266,-0.0248 0.27266,-0.24787 0,-0.0991 -0.0496,-0.14872 -0.0991,-0.22308 -0.89233,-0.89234 -2.23083,-2.25562 -3.76763,-4.982199 -2.677,-4.759114 -3.66848,-10.881516 -3.66848,-16.830409 0,-11.005452 3.12317,-17.474873 7.4609,-21.862181 0.0744,-0.07436 0.0744,-0.148722 0.0744,-0.198297 0,-0.24787 -0.17351,-0.24787 -0.47095,-0.24787 -0.32224,0 -0.37181,0 -0.59489,0.198296 -2.35477,2.032539 -5.00699,5.477939 -6.71729,10.708007 -1.06585,3.271891 -1.63595,7.262607 -1.63595,11.377258 0,5.874532 1.06584,12.517462 4.95741,18.268058 0.66925,0.966697 1.58637,1.982967 1.58637,2.007747 0.24787,0.29745 0.59489,0.69404 0.79319,0.86755 z"
         id="use28" />
      <path
         inkscape:connector-curvature="0"
         d="m 190.36501,70.864055 c -0.17351,-0.446167 -0.22308,-0.570102 -0.81797,-0.570102 -0.61968,0 -0.66925,0.123935 -0.84276,0.570102 l -6.14719,15.120102 c -0.17351,0.396593 -0.17351,0.446167 -0.86755,0.520529 -0.61967,0.07436 -0.71882,0.07436 -1.26414,0.07436 h -0.44616 v 1.065843 c 0.64446,-0.04957 2.13168,-0.04957 2.85051,-0.04957 0.66925,0 2.4787,0 3.04881,0.04957 v -1.065843 c -0.54532,0 -1.48723,0 -2.18126,-0.272658 0.0744,-0.223083 0.0744,-0.272657 0.12393,-0.371806 l 1.31371,-3.222317 h 6.64294 l 1.56158,3.866781 h -2.32998 v 1.065843 c 0.79318,-0.04957 3.19753,-0.04957 4.13943,-0.04957 0.79319,0 3.32147,0 3.94115,0.04957 v -1.065843 h -2.35477 z m -1.9086,3.643697 2.8753,7.138671 h -5.77539 z"
         id="use30" />
      <path
         inkscape:connector-curvature="0"
         d="m 211.42255,70.864055 c -0.17351,-0.446167 -0.22308,-0.570102 -0.81797,-0.570102 -0.61968,0 -0.66925,0.123935 -0.84276,0.570102 l -6.14719,15.120102 c -0.17351,0.396593 -0.17351,0.446167 -0.86754,0.520529 -0.61968,0.07436 -0.71883,0.07436 -1.26414,0.07436 h -0.44617 v 1.065843 c 0.64446,-0.04957 2.13169,-0.04957 2.85051,-0.04957 0.66925,0 2.47871,0 3.04881,0.04957 v -1.065843 c -0.54532,0 -1.48723,0 -2.18126,-0.272658 0.0744,-0.223083 0.0744,-0.272657 0.12393,-0.371806 l 1.31372,-3.222317 h 6.64293 l 1.56158,3.866781 h -2.32998 v 1.065843 c 0.79318,-0.04957 3.19753,-0.04957 4.13944,-0.04957 0.79318,0 3.32146,0 3.94114,0.04957 v -1.065843 h -2.35477 z m -1.9086,3.643697 2.8753,7.138671 h -5.77538 z"
         id="use32" />
      <path
         inkscape:connector-curvature="0"
         d="m 229.5786,64.434452 h 5.76484 c 0.35126,0 0.72319,0 0.72319,-0.413251 0,-0.413251 -0.37193,-0.41325 -0.72319,-0.41325 h -12.33553 c -0.30993,0 -0.74385,0 -0.74385,0.41325 0,0.41325 0.43392,0.413251 0.74385,0.413251 h 5.74418 v 12.232212 c 0,0.309938 0,0.743851 0.41326,0.743851 0.41325,0 0.41325,-0.371925 0.41325,-0.743851 z"
         id="use34" />
      <path
         inkscape:connector-curvature="0"
         d="m 248.00807,81.423095 c 0,-7.113884 -1.66073,-14.673936 -6.54378,-20.251023 -0.34702,-0.396593 -1.26414,-1.363288 -1.85903,-1.883816 -0.17351,-0.148722 -0.22308,-0.148722 -0.54532,-0.148722 -0.24787,0 -0.47095,0 -0.47095,0.24787 0,0.09915 0.0992,0.198297 0.14872,0.247871 0.84276,0.867547 2.18126,2.230835 3.71806,4.957411 2.677,4.759114 3.66848,10.881516 3.66848,16.830409 0,10.757581 -2.97444,17.32615 -7.43611,21.862185 -0.0496,0.0496 -0.0992,0.12393 -0.0992,0.19829 0,0.24787 0.22308,0.24787 0.47095,0.24787 0.32224,0 0.37181,0 0.59489,-0.19829 2.35477,-2.03254 5.00699,-5.477942 6.71729,-10.708011 1.09063,-3.395826 1.63595,-7.411328 1.63595,-11.402044 z"
         id="use36" />
      <path
         inkscape:connector-curvature="0"
         d="m 266.11668,62.365158 c 0.35126,0 0.72319,0 0.72319,-0.41325 0,-0.41325 -0.37193,-0.413251 -0.72319,-0.413251 h -11.17843 c -0.35126,0 -0.72318,0 -0.72318,0.413251 0,0.413251 0.37192,0.41325 0.72318,0.41325 z"
         id="use38" />
      <path
         inkscape:connector-curvature="0"
         d="m 274.06721,53.914187 c 0,-0.433913 -0.0207,-0.454575 -0.30993,-0.454575 -0.80584,0.971138 -2.02493,1.281076 -3.18203,1.322401 -0.062,0 -0.1653,0 -0.18596,0.04133 -0.0207,0.04133 -0.0207,0.08265 -0.0207,0.516563 0.64054,0 1.71499,-0.123975 2.54149,-0.619876 v 10.889149 c 0,0.723188 -0.0413,0.971138 -1.8183,0.971138 h -0.61987 v 0.537221 c 0.9918,-0.02066 2.02492,-0.04133 3.01672,-0.04133 0.9918,0 2.02493,0.02066 3.01673,0.04133 v -0.537226 h -0.61987 c -1.77698,0 -1.81831,-0.227287 -1.81831,-0.971138 z"
         id="use40" />
      <path
         inkscape:connector-curvature="0"
         d="m 294.94604,78.250597 c 0.14873,-0.347019 0.24787,-0.545315 1.83425,-0.545315 v -1.065844 c -0.84276,0.04957 -0.94191,0.04957 -1.95818,0.04957 -0.66925,0 -0.71883,0 -2.13169,-0.04957 v 1.065844 c 0.0248,0 1.18978,0 1.18978,0.322231 0,0.07436 -0.0744,0.223084 -0.0992,0.297445 l -2.90008,6.246337 -3.17275,-6.866013 h 1.36329 v -1.065844 c -0.59489,0.04957 -2.28041,0.04957 -2.97444,0.04957 -0.71883,0 -2.18126,0 -2.82573,-0.04957 v 1.065844 h 1.58637 l 4.58561,9.939608 c -0.12394,0.297445 -0.47096,1.016269 -0.59489,1.313714 -0.52053,1.115417 -1.31372,2.825724 -3.04881,2.825724 -0.0992,0 -0.39659,0 -0.66925,-0.148722 0.0496,-0.02479 0.79319,-0.322232 0.79319,-1.26414 0,-0.817973 -0.59489,-1.338501 -1.3385,-1.338501 -0.7684,0 -1.36329,0.520528 -1.36329,1.363288 0,1.164991 1.09063,2.206048 2.57785,2.206048 2.03254,0 3.37104,-1.834242 3.86678,-2.924873 z"
         id="use42" />
    </g>
  </g>
</svg>
